<?xml version="1.0" encoding="utf-8"?>
<!-- Generator: Adobe Illustrator 19.1.0, SVG Export Plug-In . SVG Version: 6.00 Build 0)  -->
<svg version="1.1" id="Layer_1" xmlns="http://www.w3.org/2000/svg" xmlns:xlink="http://www.w3.org/1999/xlink" x="0px" y="0px"
	 viewBox="0 0 275.1 142.9" style="enable-background:new 0 0 275.1 142.9;" xml:space="preserve">
<style type="text/css">
	.st0{fill:none;stroke:#FFFFFF;stroke-width:2;stroke-miterlimit:10;}
	.st1{fill:none;stroke:#FFFFFF;stroke-width:2;stroke-miterlimit:10;stroke-dasharray:5.8241,5.8241;}
	.st2{fill:none;stroke:#FFFFFF;stroke-width:2;stroke-miterlimit:10;stroke-dasharray:6.1111,6.1111;}
	.st3{fill:none;stroke:#FFFFFF;stroke-width:2;stroke-miterlimit:10;stroke-dasharray:6.1102,6.1102;}
	.st4{fill:none;stroke:#FFFFFF;stroke-width:2;stroke-miterlimit:10;stroke-dasharray:6.4134,6.4134;}
</style>
<g>
	<path class="st0" d="M210,138.3c0,0-0.1,0-0.1,0c-0.1,0-0.3-0.1-0.4-0.1c0,0-0.1,0-0.1,0c-0.1-0.1-0.3-0.1-0.4-0.2c0,0,0,0,0,0
		c-0.1-0.1-0.3-0.1-0.4-0.2c0,0,0,0,0,0c0,0,0,0,0,0c-1.5-0.8-2.6-2.1-3.3-3.6c0-0.1-0.1-0.2-0.1-0.3c-0.4-1.2-0.5-2.5-0.3-3.9
		c0.4-1.9,2.8-5.4,3-5.6c0,0,0,0,0,0c0.2-0.4,0.4-0.7,0.6-1c0.1-0.2,0.1-0.4,0.2-0.6c0-0.1,0-0.2,0-0.3c0,0,0,0,0,0
		c0-0.2,0-0.4,0-0.5c0,0,0,0,0,0c0-0.2-0.1-0.3-0.1-0.5c0,0,0,0,0,0c-0.1-0.2-0.1-0.3-0.2-0.5c0,0,0,0,0,0c-0.1-0.1-0.2-0.3-0.3-0.4
		c0,0,0,0,0,0c-0.1-0.1-0.1-0.1-0.2-0.2l0,0c-0.1-0.1-0.1-0.1-0.2-0.2c0,0,0,0-0.1,0c-0.1-0.1-0.2-0.1-0.2-0.1c0,0,0,0,0,0
		c-0.1,0-0.2-0.1-0.2-0.1c0,0,0,0-0.1,0c-0.1,0-0.2-0.1-0.3-0.1c0,0,0,0,0,0c-0.1,0-0.2-0.1-0.3-0.1c0,0-0.1,0-0.1,0
		c-0.1,0-0.2-0.1-0.3-0.1l-19.1-4c0,0,0,0,0,0l-4.9-1l0.8-3.9c0.1-0.3,0.2-0.6,0.3-1l3.5-17.1l0.2-1.1l0.2-0.8
		c0.6-2.7,2.8-3.6,5.1-2c0,0,3.6,2.6,5.7,3c0.1,0,0.3,0,0.4,0.1c0,0,0.1,0,0.1,0c0.1,0,0.2,0,0.3,0c0,0,0.1,0,0.1,0
		c0.1,0,0.2,0,0.2,0c0,0,0.1,0,0.1,0c0.1,0,0.2,0,0.2,0c0,0,0.1,0,0.1,0c0.1,0,0.1,0,0.2,0c0,0,0.1,0,0.1,0c0.1,0,0.2,0,0.2,0
		c0,0,0.1,0,0.1,0c0.1,0,0.2,0,0.2,0c0,0,0.1,0,0.1,0c0.1,0,0.2,0,0.2,0c0,0,0.1,0,0.1,0c0.1,0,0.2,0,0.2-0.1c0,0,0.1,0,0.1,0
		c0.1,0,0.2,0,0.2-0.1c0,0,0.1,0,0.1,0c0.1,0,0.2-0.1,0.3-0.1c0,0,0.1,0,0.1,0c0.1,0,0.2-0.1,0.3-0.1c0,0,0,0,0,0
		c0.4-0.2,0.9-0.5,1.3-0.7l0,0c1.4-1,2.4-2.5,2.8-4.3c0.6-3.1-0.8-6.1-3.4-7.6l0,0c-0.3-0.2-0.6-0.4-1-0.5c0,0-0.1,0-0.1,0
		c-0.1,0-0.1,0-0.2-0.1c0,0-0.1,0-0.1,0c-0.1,0-0.1,0-0.2-0.1c-0.1,0-0.1,0-0.2-0.1c0,0-0.1,0-0.1,0c-0.1,0-0.2-0.1-0.3-0.1
		c-2-0.4-6.4,0.5-6.4,0.5c-2.7,0.6-4.4-1.2-3.8-3.8l0.1-0.6l0.2-1l3.6-17.4c0.1-0.3,0.1-0.7,0.1-1l0.8-3.9l4.9,1l19.1,4
		c0.1,0,0.2,0,0.3,0.1c0,0,0,0,0.1,0c0.1,0,0.2,0,0.2,0.1c0,0,0,0,0,0c0.9,0.3,1.5,0.9,1.9,1.6c0,0,0,0,0,0c0,0,0,0.1,0.1,0.1
		c0,0,0,0,0,0.1c0,0,0,0.1,0,0.1c0,0,0,0,0,0.1c0,0,0,0.1,0,0.1c0,0,0,0,0,0.1c0,0,0,0.1,0,0.1c0,0,0,0,0,0.1c0,0,0,0.1,0,0.1
		c0,0,0,0,0,0.1c0,0.1,0,0.1,0,0.2c0,0,0,0,0,0.1c0,0.1,0,0.3,0,0.4c0,0,0,0,0,0.1c0,0.1,0,0.1,0,0.2c0,0,0,0,0,0.1c0,0,0,0.1,0,0.1
		c0,0,0,0.1,0,0.1c0,0,0,0.1-0.1,0.1c0,0,0,0.1,0,0.1c0,0,0,0.1-0.1,0.1c0,0,0,0.1,0,0.1c0,0,0,0.1-0.1,0.1c0,0,0,0.1,0,0.1
		c0,0.1-0.1,0.1-0.1,0.2c0,0,0,0,0,0.1c0,0.1-0.1,0.1-0.2,0.2c0,0-2.6,3.7-3,5.7c0,0.1-0.1,0.3-0.1,0.4c0,0,0,0.1,0,0.1
		c0,0.1,0,0.2,0,0.3c0,0,0,0.1,0,0.1c0,0.1,0,0.2,0,0.3c0,0,0,0.1,0,0.1c0,0.1,0,0.2,0,0.4c0,0,0,0,0,0c0,0.4,0.1,0.8,0.2,1.2
		c0,0,0,0,0,0c0,0.1,0.1,0.3,0.1,0.4c0.7,2.5,2.7,4.5,5.5,5.1c2.3,0.5,4.6-0.2,6.2-1.6c0,0,0,0,0,0c0.1-0.1,0.3-0.2,0.4-0.4
		c0,0,0,0,0.1-0.1c0.1-0.1,0.2-0.2,0.3-0.4c0,0,0,0,0,0c0.1-0.1,0.2-0.3,0.3-0.4c0,0,0,0,0,0c0.1-0.1,0.2-0.3,0.3-0.4
		c0,0,0-0.1,0.1-0.1c0.1-0.1,0.2-0.3,0.2-0.5c0,0,0,0,0,0c0.1-0.1,0.1-0.3,0.2-0.4c0,0,0-0.1,0-0.1c0.1-0.2,0.1-0.3,0.2-0.5
		c0,0,0-0.1,0-0.1c0-0.2,0.1-0.3,0.1-0.5c0.4-2-0.5-6.4-0.5-6.4c-0.6-2.7,1.2-4.4,3.8-3.9l0.6,0.1l1.3,0.3l17.2,3.6l4.3,0.9l0.5,0.1
		l0.1,0l-1,4.9L254.9,86l-0.3,1.3c0,0.1,0,0.1,0,0.2c0,0,0,0,0,0c-0.3,1.7,0.4,3.1,1.7,3.5c0,0,0,0,0,0c0.1,0,0.1,0,0.2,0.1
		c0,0,0,0,0,0c0.1,0,0.1,0,0.2,0c0,0,0,0,0,0c0,0,0.1,0,0.1,0c0,0,0,0,0.1,0c0,0,0.1,0,0.1,0c0,0,0.1,0,0.1,0c0,0,0.1,0,0.1,0
		c0,0,0.1,0,0.1,0c0,0,0.1,0,0.1,0c0,0,0.1,0,0.1,0c0,0,0.1,0,0.1,0c0,0,0.1,0,0.1,0c0,0,0.1,0,0.1,0c0.1,0,0.1,0,0.2,0
		c0,0,0,0,0.1,0c0.1,0,0.2,0,0.2,0c0,0,0,0,0,0l0,0c0,0,0,0,0,0c0,0,0,0,0,0l0,0c0,0,0.1,0,0.1,0l0,0c0.8-0.2,4.4-0.8,6.2-0.5
		c1.1,0.2,2.1,0.7,3,1.4c0,0,0,0,0,0c0.3,0.2,0.5,0.4,0.7,0.7c0,0,0,0,0,0c0.2,0.2,0.4,0.5,0.6,0.8c0,0,0,0,0,0
		c0.1,0.1,0.2,0.3,0.3,0.4c0,0,0,0,0,0c0.1,0.1,0.2,0.3,0.2,0.4c0,0,0,0,0,0.1c0.1,0.1,0.1,0.3,0.2,0.4c0,0,0,0,0,0
		c0.1,0.1,0.1,0.3,0.2,0.4c0,0,0,0.1,0,0.1c0,0.1,0.1,0.3,0.1,0.4c0,0,0,0,0,0c0,0.2,0.1,0.3,0.1,0.5c0,0,0,0.1,0,0.1
		c0,0.1,0,0.3,0.1,0.5c0,0,0,0,0,0c0,0.2,0,0.3,0,0.5c0,0,0,0.1,0,0.1c0,0.2,0,0.3,0,0.5c0,0,0,0,0,0c0,0.2,0,0.3,0,0.5
		c0,0,0,0.1,0,0.1c0,0.2,0,0.3-0.1,0.5c-0.8,3.9-4.6,6.4-8.5,5.6c-2-0.4-5.7-3-5.7-3c-2.2-1.6-4.5-0.7-5.1,2l-4,19.1l-1,4.9l-4.9-1
		c0,0,0,0,0,0l-19.1-4c-2.7-0.6-4.4,1.2-3.8,3.8c0,0,0,0,0,0c0.1,0.3,0.9,4.4,0.5,6.4c-0.3,1.3-0.9,2.5-1.8,3.4
		c-0.1,0.1-0.2,0.2-0.2,0.2c-1.6,1.6-4,2.4-6.5,1.9C210.3,138.4,210.2,138.3,210,138.3z"/>
	<g>
		<g>
			<path class="st0" d="M183.4,83.1c0.1-0.3,0.2-0.6,0.3-0.9c0-0.2,0.1-0.3,0.1-0.5c0,0,0-0.1,0-0.1c0-0.1,0-0.3,0-0.4
				c0,0,0-0.1,0-0.1c0-0.1,0-0.3,0-0.4c0,0,0,0,0,0c0-0.2,0-0.3,0-0.5c0,0,0,0,0,0c0,0,0,0,0,0c-0.1-1-0.3-2-0.8-2.9"/>
			<path class="st1" d="M178.7,73.7c-0.1,0-0.2-0.1-0.4-0.1c-1.9-0.4-6,0.3-6.4,0.4c0,0,0,0,0,0c-0.4,0.1-0.8,0.1-1.2,0.1
				c-0.2,0-0.4-0.1-0.6-0.1c-0.1,0-0.2-0.1-0.3-0.1c0,0,0,0,0,0c-0.2-0.1-0.3-0.1-0.5-0.2c0,0,0,0,0,0c-0.2-0.1-0.3-0.2-0.4-0.3
				c0,0,0,0,0,0c-0.1-0.1-0.2-0.3-0.3-0.4c0,0,0,0,0,0c-0.1-0.1-0.2-0.3-0.2-0.5c0,0,0,0,0,0c0-0.1-0.1-0.2-0.1-0.3l0,0
				c0-0.1,0-0.2-0.1-0.3c0,0,0,0,0-0.1c0-0.1,0-0.2,0-0.3c0,0,0,0,0,0c0-0.1,0-0.2,0-0.3c0,0,0-0.1,0-0.1c0-0.1,0-0.2,0-0.3
				c0,0,0,0,0,0c0-0.1,0-0.2,0-0.3c0,0,0-0.1,0-0.1c0-0.1,0-0.2,0.1-0.3l4.1-18.1"/>
			<polyline class="st0" points="172.9,49.2 173.5,46.3 170.6,45.7 			"/>
			<path class="st2" d="M164.6,44.4l-13-2.9l-1.1-0.3l-0.8-0.2c-2.7-0.6-4.4,1.1-3.9,3.8c0,0,0.8,4.4,0.4,6.4c0,0.1-0.1,0.2-0.1,0.4
				c0,0,0,0.1,0,0.1c0,0.1,0,0.2-0.1,0.2c0,0,0,0.1,0,0.1c0,0.1-0.1,0.1-0.1,0.2c0,0,0,0.1-0.1,0.1c0,0.1-0.1,0.1-0.1,0.2
				c0,0,0,0.1-0.1,0.1c0,0.1-0.1,0.1-0.1,0.2c0,0,0,0.1-0.1,0.1c0,0.1-0.1,0.1-0.1,0.2c0,0,0,0.1-0.1,0.1c0,0.1-0.1,0.1-0.1,0.2
				c0,0,0,0.1-0.1,0.1c0,0.1-0.1,0.1-0.1,0.2c0,0-0.1,0.1-0.1,0.1c-0.1,0.1-0.1,0.1-0.2,0.2c0,0,0,0.1-0.1,0.1
				c-0.1,0.1-0.1,0.1-0.2,0.2c0,0,0,0-0.1,0.1c-0.1,0.1-0.1,0.1-0.2,0.2c0,0,0,0-0.1,0.1c-0.1,0.1-0.2,0.1-0.2,0.2c0,0,0,0,0,0
				c-0.4,0.3-0.8,0.6-1.2,0.8v0c-1.5,0.8-3.3,1.1-5.1,0.7c-3.1-0.7-5.2-3.3-5.5-6.2v0c0-0.4-0.1-0.7,0-1.1c0,0,0-0.1,0-0.1
				c0-0.1,0-0.1,0-0.2c0,0,0-0.1,0-0.1c0-0.1,0-0.1,0-0.2c0-0.1,0-0.1,0-0.2c0,0,0-0.1,0-0.1c0-0.1,0-0.2,0.1-0.3
				c0.5-2,3.1-5.6,3.1-5.6c1.6-2.2,0.8-4.5-1.9-5.1l-0.6-0.1l-1-0.2l-16.3-3.7"/>
			<polyline class="st0" points="112.5,32.5 109.6,31.8 108.9,34.7 			"/>
			<path class="st2" d="M107.6,40.7l-3.4,14.9c0,0.1,0,0.2-0.1,0.3c0,0,0,0,0,0.1c0,0.1,0,0.2,0,0.2c0,0,0,0,0,0
				c-0.1,1,0.2,1.8,0.6,2.4c0,0,0,0,0,0c0,0,0.1,0.1,0.1,0.1c0,0,0,0,0,0c0,0,0.1,0.1,0.1,0.1c0,0,0,0,0.1,0c0,0,0.1,0.1,0.1,0.1
				c0,0,0,0,0.1,0c0,0,0.1,0,0.1,0.1c0,0,0,0,0.1,0c0,0,0.1,0,0.1,0.1c0,0,0,0,0.1,0c0,0,0.1,0,0.1,0.1c0,0,0,0,0,0
				c0.1,0.1,0.3,0.1,0.4,0.1c0,0,0,0,0.1,0c0.1,0,0.1,0,0.2,0c0,0,0,0,0.1,0c0,0,0.1,0,0.2,0c0,0,0.1,0,0.1,0c0,0,0.1,0,0.1,0
				c0,0,0.1,0,0.1,0c0.1,0,0.1,0,0.2,0c0,0,0.1,0,0.1,0c0.1,0,0.1,0,0.2,0c0,0,0.1,0,0.1,0c0.1,0,0.1,0,0.2,0c0,0,0.1,0,0.1,0
				c0.1,0,0.2,0,0.3,0c0,0,4.4-0.8,6.4-0.4c0.1,0,0.3,0.1,0.4,0.1c0,0,0.1,0,0.1,0c0.1,0,0.2,0.1,0.3,0.1c0,0,0.1,0,0.1,0
				c0.1,0,0.2,0.1,0.3,0.1c0,0,0.1,0,0.1,0c0.1,0,0.2,0.1,0.3,0.1c0,0,0,0,0,0c0.4,0.2,0.7,0.4,1.1,0.7c0,0,0,0,0,0
				c0.1,0.1,0.2,0.2,0.3,0.2c2,1.7,3,4.4,2.4,7.1c-0.5,2.3-2.1,4.1-4.1,5c0,0,0,0,0,0c-0.2,0.1-0.3,0.1-0.5,0.2c0,0,0,0-0.1,0
				c-0.2,0.1-0.3,0.1-0.5,0.2c0,0,0,0-0.1,0c-0.2,0-0.3,0.1-0.5,0.1c0,0,0,0-0.1,0c-0.2,0-0.3,0.1-0.5,0.1c0,0-0.1,0-0.1,0
				c-0.2,0-0.3,0-0.5,0c0,0,0,0-0.1,0c-0.2,0-0.3,0-0.5,0c0,0-0.1,0-0.1,0c-0.2,0-0.3,0-0.5-0.1c0,0-0.1,0-0.1,0
				c-0.2,0-0.4-0.1-0.5-0.1c-2-0.5-5.6-3.1-5.6-3.1c-2.2-1.6-4.5-0.8-5.1,1.9l-0.1,0.6l-0.3,1.3l-3.6,16.1"/>
			<polyline class="st0" points="95.7,92.8 95.2,95.2 95.1,95.7 95.1,95.8 98,96.4 			"/>
			<path class="st3" d="M104,97.8l13.6,3.1l1.3,0.3c0.1,0,0.1,0,0.2,0.1c0,0,0,0,0,0c1.7,0.5,2.6,1.7,2.5,3.1c0,0,0,0,0,0
				c0,0.1,0,0.1,0,0.2c0,0,0,0,0,0c0,0.1,0,0.1,0,0.2c0,0,0,0,0,0c0,0,0,0.1,0,0.1c0,0,0,0,0,0.1c0,0,0,0.1,0,0.1c0,0,0,0.1,0,0.1
				c0,0,0,0.1,0,0.1c0,0,0,0.1,0,0.1c0,0,0,0.1,0,0.1c0,0,0,0.1-0.1,0.1c0,0,0,0.1,0,0.1c0,0,0,0.1-0.1,0.1c0,0,0,0.1,0,0.1
				c0,0-0.1,0.1-0.1,0.1c0,0,0,0,0,0.1c0,0.1-0.1,0.1-0.1,0.2c0,0,0,0,0,0l0,0c0,0,0,0,0,0c0,0,0,0,0,0l0,0c0,0,0,0-0.1,0.1l0,0
				c-0.5,0.7-2.6,3.7-3,5.5c-0.3,1.1-0.2,2.2,0,3.3c0,0,0,0,0,0c0.1,0.3,0.2,0.7,0.3,1c0,0,0,0,0,0c0.1,0.3,0.3,0.6,0.4,0.9
				c0,0,0,0,0,0.1c0.1,0.1,0.2,0.3,0.3,0.4c0,0,0,0,0,0c0.1,0.1,0.2,0.3,0.3,0.4c0,0,0,0,0,0.1c0.1,0.1,0.2,0.2,0.3,0.4c0,0,0,0,0,0
				c0.1,0.1,0.2,0.2,0.3,0.3c0,0,0,0,0.1,0.1c0.1,0.1,0.2,0.2,0.3,0.3c0,0,0,0,0,0c0.1,0.1,0.3,0.2,0.4,0.3c0,0,0.1,0,0.1,0.1
				c0.1,0.1,0.3,0.2,0.4,0.2c0,0,0,0,0,0c0.1,0.1,0.3,0.2,0.4,0.2c0,0,0.1,0,0.1,0.1c0.1,0.1,0.3,0.1,0.4,0.2c0,0,0,0,0,0
				c0.1,0.1,0.3,0.1,0.5,0.2c0,0,0.1,0,0.1,0c0.2,0,0.3,0.1,0.5,0.1c3.9,0.9,7.7-1.5,8.6-5.4c0.5-2-0.4-6.4-0.4-6.4
				c-0.5-2.7,1.2-4.4,3.9-3.8l17.9,4.1"/>
			<polyline class="st0" points="156.1,109.6 159,110.3 159.7,107.3 			"/>
			<path class="st4" d="M161.1,101.1l3.3-14.7c0.6-2.7,2.9-3.5,5.1-1.9c0,0,0,0,0,0c0.3,0.2,3.7,2.7,5.6,3.1
				c1.3,0.3,2.7,0.2,3.9-0.2c0.1,0,0.2-0.1,0.3-0.1c0.9-0.3,1.7-0.9,2.4-1.5"/>
		</g>
	</g>
	<path class="st0" d="M94.7,65.1c0,0,0,0.1,0,0.1c0,0.1-0.1,0.3-0.1,0.4c0,0,0,0.1,0,0.1c-0.1,0.1-0.1,0.3-0.2,0.4c0,0,0,0,0,0
		c-0.1,0.1-0.1,0.3-0.2,0.4c0,0,0,0,0,0c0,0,0,0,0,0c-0.8,1.5-2.1,2.6-3.6,3.2c-0.1,0-0.2,0.1-0.3,0.1c-1.2,0.4-2.5,0.5-3.9,0.2
		c-1.9-0.4-5.3-2.8-5.6-3c0,0,0,0,0,0c-0.3-0.3-0.7-0.4-1-0.6c-0.2-0.1-0.4-0.1-0.6-0.2c-0.1,0-0.2,0-0.3,0c0,0,0,0,0,0
		c-0.2,0-0.4,0-0.5,0c0,0,0,0,0,0c-0.2,0-0.3,0.1-0.5,0.1c0,0,0,0,0,0c-0.2,0.1-0.3,0.1-0.5,0.2c0,0,0,0,0,0
		c-0.1,0.1-0.3,0.2-0.4,0.3c0,0,0,0,0,0c-0.1,0.1-0.1,0.1-0.2,0.2l0,0c-0.1,0.1-0.1,0.1-0.2,0.2c0,0,0,0,0,0.1
		c-0.1,0.1-0.1,0.2-0.2,0.2c0,0,0,0,0,0c0,0.1-0.1,0.2-0.1,0.2c0,0,0,0,0,0.1c0,0.1-0.1,0.2-0.1,0.3c0,0,0,0,0,0
		c0,0.1-0.1,0.2-0.1,0.3c0,0,0,0.1,0,0.1c0,0.1-0.1,0.2-0.1,0.3l-4.1,19c0,0,0,0,0,0l-1,4.9l-3.8-0.8c-0.3-0.1-0.6-0.3-1-0.3
		l-17.1-3.7l-1.1-0.2l-0.8-0.2c-2.7-0.6-3.5-2.9-2-5.1c0,0,2.6-3.6,3.1-5.6c0-0.1,0.1-0.3,0.1-0.4c0,0,0-0.1,0-0.1
		c0-0.1,0-0.2,0-0.3c0,0,0-0.1,0-0.1c0-0.1,0-0.2,0-0.2c0,0,0-0.1,0-0.1c0-0.1,0-0.2,0-0.2c0,0,0-0.1,0-0.1c0-0.1,0-0.1,0-0.2
		c0,0,0-0.1,0-0.1c0-0.1,0-0.2,0-0.2c0,0,0-0.1,0-0.1c0-0.1,0-0.2,0-0.2c0,0,0-0.1,0-0.1c0-0.1,0-0.2,0-0.2c0,0,0-0.1,0-0.1
		c0-0.1,0-0.2-0.1-0.2c0,0,0-0.1,0-0.1c0-0.1,0-0.2-0.1-0.2c0,0,0-0.1,0-0.1c0-0.1-0.1-0.2-0.1-0.3c0,0,0-0.1,0-0.1
		c0-0.1-0.1-0.2-0.1-0.3c0,0,0,0,0,0c-0.2-0.4-0.4-0.9-0.7-1.3l0,0c-1-1.4-2.5-2.4-4.3-2.8c-3.1-0.7-6.1,0.8-7.6,3.3l0,0
		c-0.2,0.3-0.4,0.6-0.5,1c0,0,0,0.1,0,0.1c0,0.1,0,0.1-0.1,0.2c0,0,0,0.1,0,0.1c0,0.1,0,0.1-0.1,0.2c0,0.1,0,0.1-0.1,0.2
		c0,0,0,0.1,0,0.1c0,0.1-0.1,0.2-0.1,0.3c-0.4,2,0.5,6.4,0.5,6.4c0.5,2.7-1.2,4.4-3.9,3.8L29.7,84l-1-0.2l-17.4-3.7
		c-0.3-0.1-0.7-0.1-1-0.1l-3.8-0.8l1-4.9l4.1-19c0-0.1,0-0.2,0.1-0.3c0,0,0,0,0-0.1c0-0.1,0-0.2,0.1-0.2c0,0,0,0,0,0
		c0.3-0.9,0.9-1.5,1.6-1.9c0,0,0,0,0,0c0,0,0.1,0,0.1-0.1c0,0,0,0,0.1,0c0,0,0.1,0,0.1,0c0,0,0,0,0.1,0c0,0,0.1,0,0.1,0
		c0,0,0,0,0.1,0c0,0,0.1,0,0.1,0c0,0,0,0,0.1,0c0,0,0.1,0,0.1,0c0,0,0,0,0.1,0c0.1,0,0.1,0,0.2,0c0,0,0,0,0.1,0c0.1,0,0.3,0,0.4,0.1
		c0,0,0,0,0.1,0c0.1,0,0.1,0,0.2,0c0,0,0,0,0.1,0c0,0,0.1,0,0.1,0c0,0,0.1,0,0.1,0c0,0,0.1,0,0.1,0.1c0,0,0.1,0,0.1,0
		c0,0,0.1,0,0.1,0.1c0,0,0.1,0,0.1,0c0,0,0.1,0,0.1,0.1c0,0,0.1,0,0.1,0c0.1,0,0.1,0.1,0.2,0.1c0,0,0,0,0.1,0c0.1,0,0.1,0.1,0.2,0.2
		c0,0,3.6,2.6,5.6,3.1c0.1,0,0.3,0.1,0.4,0.1c0,0,0.1,0,0.1,0c0.1,0,0.2,0,0.3,0c0,0,0.1,0,0.1,0c0.1,0,0.2,0,0.3,0c0,0,0.1,0,0.1,0
		c0.1,0,0.2,0,0.4,0c0,0,0,0,0,0c0.4,0,0.8-0.1,1.2-0.2c0,0,0,0,0,0c0.1,0,0.3-0.1,0.4-0.1c2.5-0.7,4.5-2.7,5.1-5.4
		c0.5-2.3-0.2-4.6-1.6-6.2c0,0,0,0,0,0c-0.1-0.1-0.2-0.3-0.4-0.4c0,0,0,0-0.1-0.1c-0.1-0.1-0.2-0.2-0.4-0.3c0,0,0,0,0,0
		c-0.1-0.1-0.3-0.2-0.4-0.3c0,0,0,0,0,0c-0.1-0.1-0.3-0.2-0.4-0.3c0,0-0.1,0-0.1-0.1c-0.1-0.1-0.3-0.2-0.4-0.2c0,0,0,0,0,0
		c-0.1-0.1-0.3-0.1-0.4-0.2c0,0-0.1,0-0.1,0c-0.2-0.1-0.3-0.1-0.5-0.2c0,0-0.1,0-0.1,0c-0.2-0.1-0.3-0.1-0.5-0.1
		c-2-0.4-6.4,0.5-6.4,0.5c-2.7,0.5-4.4-1.2-3.8-3.9l0.1-0.6l0.3-1.3l3.7-17.2l0.9-4.3l0.1-0.5l0-0.1l4.9,1l17.7,3.8l1.3,0.3
		c0.1,0,0.1,0,0.2,0c0,0,0,0,0,0c1.7,0.3,3.1-0.4,3.5-1.7c0,0,0,0,0,0c0-0.1,0-0.1,0.1-0.2c0,0,0,0,0,0c0-0.1,0-0.1,0-0.2
		c0,0,0,0,0,0c0,0,0-0.1,0-0.1c0,0,0,0,0-0.1c0,0,0-0.1,0-0.1c0,0,0-0.1,0-0.1c0,0,0-0.1,0-0.1c0,0,0-0.1,0-0.1c0,0,0-0.1,0-0.1
		c0,0,0-0.1,0-0.1c0,0,0-0.1,0-0.1c0,0,0-0.1,0-0.1c0,0,0-0.1,0-0.1c0-0.1,0-0.1,0-0.2c0,0,0,0,0-0.1c0-0.1,0-0.2,0-0.2c0,0,0,0,0,0
		l0,0c0,0,0,0,0,0c0,0,0,0,0,0l0,0c0,0,0-0.1,0-0.1l0,0c-0.2-0.8-0.8-4.5-0.4-6.2c0.2-1.1,0.7-2.1,1.4-3c0,0,0,0,0,0
		c0.2-0.3,0.4-0.5,0.7-0.7c0,0,0,0,0,0c0.2-0.2,0.5-0.4,0.8-0.6c0,0,0,0,0,0c0.1-0.1,0.3-0.2,0.4-0.3c0,0,0,0,0,0
		C51,5.2,51.1,5.1,51.2,5c0,0,0,0,0.1,0c0.1-0.1,0.3-0.1,0.4-0.2c0,0,0,0,0,0c0.1-0.1,0.3-0.1,0.4-0.2c0,0,0.1,0,0.1,0
		c0.1,0,0.3-0.1,0.4-0.1c0,0,0,0,0,0c0.2,0,0.3-0.1,0.5-0.1c0,0,0.1,0,0.1,0c0.1,0,0.3,0,0.5-0.1c0,0,0,0,0,0c0.2,0,0.3,0,0.5,0
		c0,0,0.1,0,0.1,0c0.2,0,0.3,0,0.5,0c0,0,0,0,0,0c0.2,0,0.3,0,0.5,0c0,0,0.1,0,0.1,0c0.2,0,0.3,0.1,0.5,0.1c3.9,0.8,6.3,4.6,5.5,8.5
		c-0.4,2-3.1,5.6-3.1,5.6c-1.6,2.2-0.7,4.5,2,5.1l19,4.1l4.9,1l-1,4.9c0,0,0,0,0,0l-4.1,19c-0.6,2.7,1.1,4.4,3.8,3.9c0,0,0,0,0,0
		c0.3-0.1,4.4-0.9,6.4-0.5c1.3,0.3,2.5,0.9,3.4,1.8c0.1,0.1,0.2,0.2,0.2,0.2c1.6,1.7,2.4,4.1,1.8,6.5C94.8,64.8,94.8,64.9,94.7,65.1
		z"/>
</g>
</svg>
