<?xml version="1.0" encoding="utf-8"?>
<!-- Generator: Adobe Illustrator 19.1.0, SVG Export Plug-In . SVG Version: 6.00 Build 0)  -->
<svg version="1.1" id="Layer_1" xmlns="http://www.w3.org/2000/svg" xmlns:xlink="http://www.w3.org/1999/xlink" x="0px" y="0px"
	 viewBox="0 0 275.1 142.9" style="enable-background:new 0 0 275.1 142.9;" xml:space="preserve">
<style type="text/css">
	.st0{fill:none;stroke:#FFFFFF;stroke-width:2;stroke-miterlimit:10;}
	.st1{fill:none;}
	.st2{fill:#FFFFFF;}
	.st3{font-family:'FontAwesome';}
	.st4{font-size:44px;}
</style>
<path class="st0" d="M174.8,136.5c0,0-0.1,0-0.1,0c-0.1,0-0.3-0.1-0.4-0.1c0,0-0.1,0-0.1,0c-0.1-0.1-0.3-0.1-0.4-0.2c0,0,0,0,0,0
	c-0.1-0.1-0.3-0.1-0.4-0.2c0,0,0,0,0,0c0,0,0,0,0,0c-1.5-0.8-2.6-2.1-3.3-3.6c0-0.1-0.1-0.2-0.1-0.3c-0.4-1.2-0.5-2.5-0.3-3.9
	c0.4-1.9,2.8-5.4,3-5.6c0,0,0,0,0,0c0.2-0.4,0.4-0.7,0.6-1c0.1-0.2,0.1-0.4,0.2-0.6c0-0.1,0-0.2,0-0.3c0,0,0,0,0,0
	c0-0.2,0-0.4,0-0.5c0,0,0,0,0,0c0-0.2-0.1-0.3-0.1-0.5c0,0,0,0,0,0c-0.1-0.2-0.1-0.3-0.2-0.5c0,0,0,0,0,0c-0.1-0.1-0.2-0.3-0.3-0.4
	c0,0,0,0,0,0c-0.1-0.1-0.1-0.1-0.2-0.2l0,0c-0.1-0.1-0.1-0.1-0.2-0.2c0,0,0,0-0.1,0c-0.1-0.1-0.2-0.1-0.2-0.1c0,0,0,0,0,0
	c-0.1,0-0.2-0.1-0.2-0.1c0,0,0,0-0.1,0c-0.1,0-0.2-0.1-0.3-0.1c0,0,0,0,0,0c-0.1,0-0.2-0.1-0.3-0.1c0,0-0.1,0-0.1,0
	c-0.1,0-0.2-0.1-0.3-0.1l-19.1-4c0,0,0,0,0,0l-4.9-1l0.8-3.9c0.1-0.3,0.2-0.6,0.3-1l3.5-17.1l0.2-1.1l0.2-0.8c0.6-2.7,2.8-3.6,5.1-2
	c0,0,3.6,2.6,5.7,3c0.1,0,0.3,0,0.4,0.1c0,0,0.1,0,0.1,0c0.1,0,0.2,0,0.3,0c0,0,0.1,0,0.1,0c0.1,0,0.2,0,0.2,0c0,0,0.1,0,0.1,0
	c0.1,0,0.2,0,0.2,0c0,0,0.1,0,0.1,0c0.1,0,0.1,0,0.2,0c0,0,0.1,0,0.1,0c0.1,0,0.2,0,0.2,0c0,0,0.1,0,0.1,0c0.1,0,0.2,0,0.2,0
	c0,0,0.1,0,0.1,0c0.1,0,0.2,0,0.2,0c0,0,0.1,0,0.1,0c0.1,0,0.2,0,0.2-0.1c0,0,0.1,0,0.1,0c0.1,0,0.2,0,0.2-0.1c0,0,0.1,0,0.1,0
	c0.1,0,0.2-0.1,0.3-0.1c0,0,0.1,0,0.1,0c0.1,0,0.2-0.1,0.3-0.1c0,0,0,0,0,0c0.4-0.2,0.9-0.5,1.3-0.7l0,0c1.4-1,2.4-2.5,2.8-4.3
	c0.6-3.1-0.8-6.1-3.4-7.6l0,0c-0.3-0.2-0.6-0.4-1-0.5c0,0-0.1,0-0.1,0c-0.1,0-0.1,0-0.2-0.1c0,0-0.1,0-0.1,0c-0.1,0-0.1,0-0.2-0.1
	c-0.1,0-0.1,0-0.2-0.1c0,0-0.1,0-0.1,0c-0.1,0-0.2-0.1-0.3-0.1c-2-0.4-6.4,0.5-6.4,0.5c-2.7,0.6-4.4-1.2-3.8-3.8l0.1-0.6l0.2-1
	l3.6-17.4c0.1-0.3,0.1-0.7,0.1-1l0.8-3.9l4.9,1l19.1,4c0.1,0,0.2,0,0.3,0.1c0,0,0,0,0.1,0c0.1,0,0.2,0,0.2,0.1c0,0,0,0,0,0
	c0.9,0.3,1.5,0.9,1.9,1.6c0,0,0,0,0,0c0,0,0,0.1,0.1,0.1c0,0,0,0,0,0.1c0,0,0,0.1,0,0.1c0,0,0,0,0,0.1c0,0,0,0.1,0,0.1
	c0,0,0,0,0,0.1c0,0,0,0.1,0,0.1c0,0,0,0,0,0.1c0,0,0,0.1,0,0.1c0,0,0,0,0,0.1c0,0.1,0,0.1,0,0.2c0,0,0,0,0,0.1c0,0.1,0,0.3,0,0.4
	c0,0,0,0,0,0.1c0,0.1,0,0.1,0,0.2c0,0,0,0,0,0.1c0,0,0,0.1,0,0.1c0,0,0,0.1,0,0.1c0,0,0,0.1-0.1,0.1c0,0,0,0.1,0,0.1
	c0,0,0,0.1-0.1,0.1c0,0,0,0.1,0,0.1c0,0,0,0.1-0.1,0.1c0,0,0,0.1,0,0.1c0,0.1-0.1,0.1-0.1,0.2c0,0,0,0,0,0.1c0,0.1-0.1,0.1-0.2,0.2
	c0,0-2.6,3.7-3,5.7c0,0.1-0.1,0.3-0.1,0.4c0,0,0,0.1,0,0.1c0,0.1,0,0.2,0,0.3c0,0,0,0.1,0,0.1c0,0.1,0,0.2,0,0.3c0,0,0,0.1,0,0.1
	c0,0.1,0,0.2,0,0.4c0,0,0,0,0,0c0,0.4,0.1,0.8,0.2,1.2c0,0,0,0,0,0c0,0.1,0.1,0.3,0.1,0.4c0.7,2.5,2.7,4.5,5.5,5.1
	c2.3,0.5,4.6-0.2,6.2-1.6c0,0,0,0,0,0c0.1-0.1,0.3-0.2,0.4-0.4c0,0,0,0,0.1-0.1c0.1-0.1,0.2-0.2,0.3-0.4c0,0,0,0,0,0
	c0.1-0.1,0.2-0.3,0.3-0.4c0,0,0,0,0,0c0.1-0.1,0.2-0.3,0.3-0.4c0,0,0-0.1,0.1-0.1c0.1-0.1,0.2-0.3,0.2-0.5c0,0,0,0,0,0
	c0.1-0.1,0.1-0.3,0.2-0.4c0,0,0-0.1,0-0.1c0.1-0.2,0.1-0.3,0.2-0.5c0,0,0-0.1,0-0.1c0-0.2,0.1-0.3,0.1-0.5c0.4-2-0.5-6.4-0.5-6.4
	c-0.6-2.7,1.2-4.4,3.8-3.9l0.6,0.1l1.3,0.3l17.2,3.6l4.3,0.9l0.5,0.1l0.1,0l-1,4.9l-3.7,17.7l-0.3,1.3c0,0.1,0,0.1,0,0.2
	c0,0,0,0,0,0c-0.3,1.7,0.4,3.1,1.7,3.5c0,0,0,0,0,0c0.1,0,0.1,0,0.2,0.1c0,0,0,0,0,0c0.1,0,0.1,0,0.2,0c0,0,0,0,0,0c0,0,0.1,0,0.1,0
	c0,0,0,0,0.1,0c0,0,0.1,0,0.1,0c0,0,0.1,0,0.1,0c0,0,0.1,0,0.1,0c0,0,0.1,0,0.1,0c0,0,0.1,0,0.1,0c0,0,0.1,0,0.1,0c0,0,0.1,0,0.1,0
	c0,0,0.1,0,0.1,0c0,0,0.1,0,0.1,0c0.1,0,0.1,0,0.2,0c0,0,0,0,0.1,0c0.1,0,0.2,0,0.2,0c0,0,0,0,0,0l0,0c0,0,0,0,0,0c0,0,0,0,0,0l0,0
	c0,0,0.1,0,0.1,0l0,0c0.8-0.2,4.4-0.8,6.2-0.5c1.1,0.2,2.1,0.7,3,1.4c0,0,0,0,0,0c0.3,0.2,0.5,0.4,0.7,0.7c0,0,0,0,0,0
	c0.2,0.2,0.4,0.5,0.6,0.8c0,0,0,0,0,0c0.1,0.1,0.2,0.3,0.3,0.4c0,0,0,0,0,0c0.1,0.1,0.2,0.3,0.2,0.4c0,0,0,0,0,0.1
	c0.1,0.1,0.1,0.3,0.2,0.4c0,0,0,0,0,0c0.1,0.1,0.1,0.3,0.2,0.4c0,0,0,0.1,0,0.1c0,0.1,0.1,0.3,0.1,0.4c0,0,0,0,0,0
	c0,0.2,0.1,0.3,0.1,0.5c0,0,0,0.1,0,0.1c0,0.1,0,0.3,0.1,0.5c0,0,0,0,0,0c0,0.2,0,0.3,0,0.5c0,0,0,0.1,0,0.1c0,0.2,0,0.3,0,0.5
	c0,0,0,0,0,0c0,0.2,0,0.3,0,0.5c0,0,0,0.1,0,0.1c0,0.2,0,0.3-0.1,0.5c-0.8,3.9-4.6,6.4-8.5,5.6c-2-0.4-5.7-3-5.7-3
	c-2.2-1.6-4.5-0.7-5.1,2l-4,19.1l-1,4.9l-4.9-1c0,0,0,0,0,0l-19.1-4c-2.7-0.6-4.4,1.2-3.8,3.8c0,0,0,0,0,0c0.1,0.3,0.9,4.4,0.5,6.4
	c-0.3,1.3-0.9,2.5-1.8,3.4c-0.1,0.1-0.2,0.2-0.2,0.2c-1.6,1.6-4,2.4-6.5,1.9C175.1,136.6,175,136.6,174.8,136.5z"/>
<path class="st0" d="M141.6,82.2C141.6,82.2,141.7,82.2,141.6,82.2c0.2-0.2,0.2-0.3,0.3-0.4c0,0,0,0,0-0.1c0.1-0.1,0.2-0.2,0.2-0.4
	c0,0,0,0,0,0c0.1-0.1,0.2-0.3,0.2-0.4c0,0,0,0,0,0c0,0,0,0,0,0c0.8-1.5,1-3.2,0.7-4.8c0-0.1,0-0.2-0.1-0.3c-0.3-1.2-1-2.4-1.9-3.3
	c-1.4-1.4-5.3-2.9-5.7-3c0,0,0,0,0,0c-0.4-0.2-0.8-0.3-1.1-0.6c-0.2-0.1-0.3-0.3-0.5-0.4c-0.1-0.1-0.1-0.1-0.2-0.2c0,0,0,0,0,0
	c-0.1-0.1-0.2-0.3-0.3-0.5c0,0,0,0,0,0c-0.1-0.2-0.1-0.3-0.2-0.5c0,0,0,0,0,0c0-0.2-0.1-0.3-0.1-0.5c0,0,0,0,0,0c0-0.2,0-0.3,0-0.5
	c0,0,0,0,0-0.1c0-0.1,0-0.2,0.1-0.3l0,0c0-0.1,0.1-0.2,0.1-0.3c0,0,0,0,0-0.1c0-0.1,0.1-0.2,0.1-0.3c0,0,0,0,0,0
	c0-0.1,0.1-0.2,0.1-0.2c0,0,0,0,0-0.1c0.1-0.1,0.1-0.2,0.2-0.2c0,0,0,0,0,0c0.1-0.1,0.1-0.2,0.2-0.2c0,0,0,0,0.1-0.1
	c0.1-0.1,0.1-0.2,0.2-0.2l13.5-14c0,0,0,0,0,0l3.5-3.6l-2.8-2.7c-0.3-0.2-0.6-0.4-0.8-0.6l-12.5-12.2l-0.8-0.8l-0.6-0.6
	c-2-1.9-4.3-1.4-5.3,1.2c0,0-1.6,4.2-3,5.7c-0.1,0.1-0.2,0.2-0.3,0.3c0,0-0.1,0.1-0.1,0.1c-0.1,0.1-0.1,0.1-0.2,0.2
	c0,0-0.1,0.1-0.1,0.1c-0.1,0-0.1,0.1-0.2,0.1c0,0-0.1,0.1-0.1,0.1c-0.1,0-0.1,0.1-0.2,0.1c0,0-0.1,0.1-0.1,0.1
	c-0.1,0-0.1,0.1-0.2,0.1c0,0-0.1,0-0.1,0.1c-0.1,0-0.1,0.1-0.2,0.1c0,0-0.1,0-0.1,0.1c-0.1,0-0.1,0.1-0.2,0.1c0,0-0.1,0-0.1,0.1
	c-0.1,0-0.1,0.1-0.2,0.1c0,0-0.1,0-0.1,0c-0.1,0-0.2,0.1-0.2,0.1c0,0-0.1,0-0.1,0c-0.1,0-0.2,0.1-0.2,0.1c0,0-0.1,0-0.1,0
	c-0.1,0-0.2,0-0.3,0.1c0,0-0.1,0-0.1,0c-0.1,0-0.2,0-0.3,0.1c0,0,0,0,0,0c-0.5,0.1-1,0.1-1.5,0.1l0,0c-1.7-0.1-3.4-0.7-4.7-2
	c-2.3-2.2-2.8-5.5-1.5-8.2l0,0c0.2-0.3,0.3-0.7,0.5-1c0,0,0-0.1,0.1-0.1c0-0.1,0.1-0.1,0.1-0.2c0,0,0.1-0.1,0.1-0.1
	c0,0,0.1-0.1,0.1-0.1c0-0.1,0.1-0.1,0.1-0.2c0,0,0.1-0.1,0.1-0.1c0.1-0.1,0.2-0.2,0.2-0.2c1.4-1.5,5.6-3.2,5.6-3.2
	c2.5-1,3-3.4,1-5.3l-0.5-0.5l-0.8-0.7L107.6,4.5c-0.3-0.2-0.5-0.5-0.7-0.8L104.1,1l-3.5,3.6l-13.5,14c-0.1,0.1-0.1,0.2-0.2,0.2
	c0,0,0,0,0,0.1c-0.1,0.1-0.1,0.1-0.2,0.2c0,0,0,0,0,0c-0.6,0.8-0.8,1.6-0.7,2.3c0,0,0,0,0,0c0,0,0,0.1,0,0.1c0,0,0,0,0,0.1
	c0,0,0,0.1,0,0.1c0,0,0,0,0,0.1c0,0,0,0.1,0,0.1c0,0,0,0,0,0.1c0,0,0,0.1,0.1,0.1c0,0,0,0,0,0.1c0,0,0,0.1,0.1,0.1c0,0,0,0,0,0.1
	c0,0,0.1,0.1,0.1,0.1c0,0,0,0,0,0c0.1,0.1,0.2,0.2,0.3,0.3c0,0,0,0,0,0c0,0,0.1,0.1,0.1,0.1c0,0,0,0,0.1,0c0,0,0.1,0.1,0.1,0.1
	c0,0,0,0,0.1,0.1c0,0,0.1,0.1,0.1,0.1c0,0,0.1,0,0.1,0.1c0,0,0.1,0.1,0.1,0.1c0,0,0.1,0,0.1,0c0,0,0.1,0.1,0.1,0.1c0,0,0.1,0,0.1,0
	c0.1,0,0.1,0.1,0.2,0.1c0,0,0,0,0.1,0c0.1,0,0.2,0.1,0.2,0.1c0,0,4.2,1.6,5.7,3c0.1,0.1,0.2,0.2,0.3,0.3c0,0,0.1,0.1,0.1,0.1
	c0.1,0.1,0.1,0.1,0.2,0.2c0,0,0.1,0.1,0.1,0.1c0.1,0.1,0.1,0.2,0.2,0.2c0,0,0,0.1,0.1,0.1c0.1,0.1,0.1,0.2,0.2,0.3c0,0,0,0,0,0
	c0.2,0.4,0.4,0.7,0.6,1.1c0,0,0,0,0,0c0,0.1,0.1,0.2,0.1,0.4c0.8,2.5,0.3,5.3-1.6,7.3c-1.6,1.7-3.9,2.4-6.1,2.1c0,0,0,0,0,0
	c-0.2,0-0.3-0.1-0.5-0.1c0,0-0.1,0-0.1,0c-0.2,0-0.3-0.1-0.5-0.1c0,0,0,0-0.1,0c-0.2,0-0.3-0.1-0.5-0.2c0,0,0,0,0,0
	c-0.2-0.1-0.3-0.1-0.5-0.2c0,0-0.1,0-0.1,0c-0.2-0.1-0.3-0.2-0.5-0.2c0,0,0,0,0,0c-0.1-0.1-0.3-0.2-0.4-0.3c0,0-0.1,0-0.1-0.1
	c-0.1-0.1-0.3-0.2-0.4-0.3c0,0-0.1,0-0.1-0.1c-0.1-0.1-0.3-0.2-0.4-0.4c-1.5-1.4-3.2-5.6-3.2-5.6c-1-2.5-3.4-3-5.3-1L75.1,31l-0.9,1
	L62,44.5l-3.1,3.2l-0.3,0.3l0,0l3.6,3.5l13,12.6l1,0.9c0.1,0,0.1,0.1,0.1,0.1c0,0,0,0,0,0c1.2,1.3,1.4,2.8,0.5,3.9c0,0,0,0,0,0
	c0,0-0.1,0.1-0.1,0.1c0,0,0,0,0,0c0,0-0.1,0.1-0.1,0.1c0,0,0,0,0,0c0,0-0.1,0.1-0.1,0.1c0,0,0,0-0.1,0c0,0-0.1,0.1-0.1,0.1
	c0,0,0,0-0.1,0.1c0,0-0.1,0.1-0.1,0.1c0,0-0.1,0-0.1,0.1c0,0-0.1,0-0.1,0.1c0,0-0.1,0-0.1,0.1c0,0-0.1,0-0.1,0.1c0,0-0.1,0-0.1,0.1
	c0,0-0.1,0-0.1,0c0,0-0.1,0.1-0.2,0.1c0,0,0,0-0.1,0c-0.1,0-0.2,0.1-0.2,0.1c0,0,0,0,0,0l0,0c0,0,0,0,0,0c0,0,0,0,0,0l0,0
	c0,0-0.1,0-0.1,0l0,0c-0.8,0.3-4.2,1.8-5.4,3.1c-0.8,0.8-1.4,1.8-1.7,2.8c0,0,0,0,0,0c-0.1,0.3-0.2,0.7-0.2,1c0,0,0,0,0,0
	c-0.1,0.3-0.1,0.7-0.1,1c0,0,0,0,0,0.1c0,0.2,0,0.3,0,0.5c0,0,0,0,0,0c0,0.2,0,0.3,0,0.5c0,0,0,0.1,0,0.1c0,0.2,0,0.3,0.1,0.5
	c0,0,0,0,0,0c0,0.2,0.1,0.3,0.1,0.5c0,0,0,0.1,0,0.1c0,0.1,0.1,0.3,0.1,0.4c0,0,0,0,0,0c0.1,0.1,0.1,0.3,0.2,0.4c0,0,0,0.1,0,0.1
	c0.1,0.1,0.1,0.3,0.2,0.4c0,0,0,0,0,0c0.1,0.1,0.2,0.3,0.2,0.4c0,0,0,0.1,0.1,0.1c0.1,0.1,0.2,0.3,0.3,0.4c0,0,0,0,0,0
	c0.1,0.1,0.2,0.3,0.3,0.4c0,0,0.1,0.1,0.1,0.1c0.1,0.1,0.2,0.2,0.3,0.4c2.8,2.8,7.4,2.7,10.1-0.2c1.4-1.5,3-5.7,3-5.7
	c1-2.6,3.3-3.1,5.3-1.2l14,13.5l3.6,3.5l3.5-3.6c0,0,0,0,0,0l13.5-14c1.9-2,4.3-1.5,5.3,1c0,0,0,0,0,0c0.1,0.3,1.7,4.2,3.2,5.6
	c1,0.9,2.2,1.6,3.4,1.8c0.1,0,0.2,0,0.3,0.1c2.3,0.4,4.7-0.3,6.4-2.1C141.4,82.5,141.5,82.4,141.6,82.2z"/>
<rect x="95.9" y="93.4" class="st1" width="66.7" height="66.7"/>
<text transform="matrix(1 0 0 1 95.8506 132.1303)" class="st2 st3 st4"></text>
</svg>
