<?xml version="1.0" encoding="utf-8"?>
<!-- Generator: Adobe Illustrator 19.1.0, SVG Export Plug-In . SVG Version: 6.00 Build 0)  -->
<svg version="1.1" id="Layer_1" xmlns="http://www.w3.org/2000/svg" xmlns:xlink="http://www.w3.org/1999/xlink" x="0px" y="0px"
	 viewBox="0 0 275.1 142.9" style="enable-background:new 0 0 275.1 142.9;" xml:space="preserve">
<style type="text/css">
	.st0{fill:#FFFFFF;}
	.st1{fill:none;}
	.st2{fill:#046B9A;}
	.st3{font-family:'FontAwesome';}
	.st4{font-size:44px;}
</style>
<g>
	<path class="st0" d="M203.9,84.3c0,0,0,0.1,0,0.1c0,0.2-0.1,0.4-0.1,0.5c0,0,0,0.1,0,0.1c0,0.2-0.1,0.4-0.1,0.6c0,0,0,0,0,0.1
		c-0.1,0.2-0.1,0.4-0.2,0.6c0,0,0,0,0,0c0,0,0,0,0,0c-0.8,2.1-2.2,3.9-4.1,5c-0.1,0.1-0.3,0.2-0.4,0.2c-1.5,0.8-3.2,1.2-5.1,1.1
		c-2.6-0.2-7.7-2.7-8.1-2.9c0,0,0,0-0.1,0c-0.5-0.3-1-0.4-1.5-0.5c-0.3,0-0.5-0.1-0.8-0.1c-0.1,0-0.3,0-0.4,0c0,0,0,0,0,0
		c-0.2,0-0.5,0.1-0.7,0.1c0,0,0,0,0,0c-0.2,0.1-0.4,0.2-0.7,0.3c0,0,0,0,0,0c-0.2,0.1-0.4,0.2-0.6,0.4c0,0,0,0,0,0
		c-0.2,0.1-0.3,0.3-0.5,0.5c0,0,0,0,0,0.1c-0.1,0.1-0.1,0.2-0.2,0.3l0,0c-0.1,0.1-0.1,0.2-0.2,0.3c0,0,0,0.1,0,0.1
		c-0.1,0.1-0.1,0.2-0.2,0.3c0,0,0,0,0,0c0,0.1-0.1,0.2-0.1,0.3c0,0,0,0.1,0,0.1c0,0.1-0.1,0.3-0.1,0.4c0,0,0,0,0,0
		c0,0.1,0,0.3-0.1,0.4c0,0,0,0.1,0,0.1c0,0.1,0,0.3,0,0.4l-1.5,26c0,0,0,0,0,0l-0.4,6.6l-5.3-0.3c-0.4-0.1-0.9-0.2-1.4-0.2
		l-23.4-1.4l-1.5-0.1l-1.1-0.1c-3.7-0.2-5.3-3.1-3.6-6.3c0,0,2.7-5.3,2.9-8.1c0-0.2,0-0.3,0-0.5c0-0.1,0-0.1,0-0.2
		c0-0.1,0-0.2,0-0.3c0-0.1,0-0.1,0-0.2c0-0.1,0-0.2,0-0.3c0-0.1,0-0.1,0-0.2c0-0.1,0-0.2,0-0.3c0-0.1,0-0.1,0-0.2
		c0-0.1,0-0.2-0.1-0.3c0-0.1,0-0.1,0-0.2c0-0.1,0-0.2-0.1-0.3c0-0.1,0-0.1,0-0.2c0-0.1-0.1-0.2-0.1-0.3c0-0.1,0-0.1-0.1-0.2
		c0-0.1-0.1-0.2-0.1-0.3c0-0.1,0-0.1-0.1-0.2c0-0.1-0.1-0.2-0.1-0.3c0,0,0-0.1-0.1-0.1c0-0.1-0.1-0.2-0.1-0.3c0,0,0-0.1-0.1-0.1
		c-0.1-0.1-0.1-0.2-0.2-0.3c0,0,0-0.1-0.1-0.1c-0.1-0.1-0.1-0.2-0.2-0.4c0,0,0,0,0-0.1c-0.4-0.5-0.8-1.1-1.2-1.5l0,0
		c-1.6-1.6-3.8-2.7-6.3-2.8c-4.2-0.2-7.9,2.2-9.4,5.9l0,0c-0.2,0.5-0.3,0.9-0.5,1.4c0,0,0,0.1,0,0.1c0,0.1,0,0.2-0.1,0.3
		c0,0.1,0,0.1,0,0.2c0,0.1,0,0.1,0,0.2c0,0.1,0,0.2,0,0.3c0,0.1,0,0.1,0,0.2c0,0.1,0,0.3,0,0.5c-0.2,2.8,1.9,8.4,1.9,8.4
		c1.3,3.4-0.7,6.1-4.3,5.9l-0.9-0.1l-1.4-0.1l-23.7-1.4c-0.5,0-0.9,0-1.4,0.1l-5.3-0.3l0.4-6.6l1.5-26.1c0-0.1,0-0.3,0-0.4
		c0,0,0-0.1,0-0.1c0-0.1,0-0.2,0.1-0.3c0,0,0,0,0-0.1c0.3-1.3,0.9-2.2,1.7-2.8c0,0,0,0,0.1,0c0.1,0,0.1-0.1,0.2-0.1c0,0,0.1,0,0.1,0
		c0.1,0,0.1-0.1,0.2-0.1c0,0,0.1,0,0.1,0c0.1,0,0.1,0,0.2-0.1c0,0,0.1,0,0.1,0c0.1,0,0.1,0,0.2-0.1c0,0,0.1,0,0.1,0
		c0.1,0,0.1,0,0.2,0c0,0,0.1,0,0.1,0c0.1,0,0.1,0,0.2,0c0,0,0,0,0.1,0c0.2,0,0.4,0,0.6,0c0,0,0,0,0.1,0c0.1,0,0.1,0,0.2,0
		c0,0,0.1,0,0.1,0c0.1,0,0.1,0,0.2,0c0,0,0.1,0,0.1,0c0.1,0,0.1,0,0.2,0c0,0,0.1,0,0.1,0c0.1,0,0.1,0,0.2,0.1c0,0,0.1,0,0.1,0
		c0.1,0,0.1,0,0.2,0.1c0,0,0.1,0,0.1,0c0.1,0,0.1,0.1,0.2,0.1c0,0,0.1,0,0.1,0c0.1,0,0.2,0.1,0.3,0.2c0,0,5.3,2.7,8.1,2.9
		c0.2,0,0.4,0,0.6,0c0.1,0,0.1,0,0.2,0c0.1,0,0.3,0,0.4,0c0.1,0,0.1,0,0.2,0c0.1,0,0.3,0,0.4,0c0,0,0.1,0,0.1,0c0.2,0,0.3,0,0.5-0.1
		c0,0,0,0,0.1,0c0.6-0.1,1.1-0.3,1.6-0.5c0,0,0,0,0,0c0.2-0.1,0.3-0.1,0.5-0.2c3.2-1.4,5.5-4.5,5.7-8.2c0.2-3.1-1.2-6-3.4-7.9
		c0,0,0,0,0,0c-0.2-0.1-0.4-0.3-0.5-0.4c0,0-0.1,0-0.1-0.1c-0.2-0.1-0.4-0.3-0.6-0.4c0,0,0,0-0.1,0c-0.2-0.1-0.4-0.2-0.6-0.3
		c0,0,0,0-0.1,0c-0.2-0.1-0.4-0.2-0.6-0.3c0,0-0.1,0-0.1-0.1c-0.2-0.1-0.4-0.2-0.6-0.2c0,0,0,0-0.1,0c-0.2-0.1-0.4-0.1-0.6-0.2
		c0,0-0.1,0-0.1,0c-0.2,0-0.4-0.1-0.7-0.1c0,0-0.1,0-0.1,0c-0.2,0-0.5-0.1-0.7-0.1c-2.8-0.2-8.4,1.9-8.4,1.9
		c-3.4,1.3-6.1-0.7-5.9-4.3l0-0.8l0.1-1.8l1.4-23.5l0.3-5.9l0-0.6l0-0.1l6.6,0.4l24.2,1.4l1.8,0.1c0.1,0,0.2,0,0.3,0c0,0,0,0,0,0
		c2.4,0,4-1.2,4.3-3c0,0,0,0,0,0c0-0.1,0-0.2,0-0.2c0,0,0,0,0,0c0-0.1,0-0.1,0-0.2c0,0,0,0,0-0.1c0-0.1,0-0.1,0-0.2c0,0,0-0.1,0-0.1
		c0-0.1,0-0.1,0-0.2c0,0,0-0.1,0-0.1c0-0.1,0-0.1,0-0.2c0,0,0-0.1,0-0.1c0-0.1,0-0.1,0-0.2c0-0.1,0-0.1,0-0.2c0,0,0-0.1,0-0.1
		c0-0.1,0-0.1,0-0.2c0,0,0-0.1,0-0.1c0-0.1,0-0.1-0.1-0.2c0,0,0-0.1,0-0.1c0-0.1-0.1-0.2-0.1-0.3c0,0,0,0,0,0l0,0c0,0,0,0,0,0
		c0,0,0,0,0,0l0,0c0,0,0-0.1,0-0.1l0,0c-0.4-1-2-5.7-1.8-8.2c0.1-1.5,0.5-3,1.3-4.2c0,0,0,0,0,0c0.2-0.4,0.5-0.8,0.8-1.1
		c0,0,0,0,0,0c0.3-0.3,0.6-0.7,0.9-1c0,0,0,0,0.1-0.1c0.2-0.1,0.3-0.3,0.5-0.4c0,0,0,0,0,0c0.2-0.1,0.3-0.3,0.5-0.4
		c0,0,0.1,0,0.1-0.1c0.2-0.1,0.3-0.2,0.5-0.3c0,0,0,0,0,0c0.2-0.1,0.4-0.2,0.6-0.3c0,0,0.1,0,0.1-0.1c0.2-0.1,0.4-0.2,0.6-0.3
		c0,0,0,0,0,0c0.2-0.1,0.4-0.2,0.6-0.2c0,0,0.1,0,0.1,0c0.2-0.1,0.4-0.1,0.6-0.2c0,0,0,0,0,0c0.2-0.1,0.4-0.1,0.6-0.1
		c0.1,0,0.1,0,0.2,0c0.2,0,0.4-0.1,0.6-0.1c0,0,0,0,0,0c0.2,0,0.4,0,0.6,0c0.1,0,0.1,0,0.2,0c0.2,0,0.4,0,0.7,0
		c5.3,0.3,9.3,4.9,9,10.2c-0.2,2.8-2.9,8.1-2.9,8.1c-1.7,3.3,0,6.1,3.6,6.3l26,1.5l6.6,0.4l-0.4,6.6c0,0,0,0,0,0l-1.5,26
		c-0.2,3.6,2.4,5.6,5.8,4.3c0,0,0,0,0.1,0c0.4-0.2,5.7-2.1,8.3-1.9c1.8,0.1,3.5,0.7,4.9,1.7c0.1,0.1,0.3,0.2,0.4,0.3
		c2.5,1.9,4,4.9,3.8,8.2C204,83.8,204,84,203.9,84.3z"/>
	<rect x="113.4" y="49.2" class="st1" width="54" height="47"/>
	<text transform="matrix(1 0 0 1 121.5657 87.8975)" class="st2 st3 st4"></text>
</g>
</svg>
