<?xml version="1.0" encoding="UTF-8"?>
<svg width="29px" height="29px" viewBox="0 0 29 29" version="1.1" xmlns="http://www.w3.org/2000/svg" xmlns:xlink="http://www.w3.org/1999/xlink">
    <!-- Generator: Sketch 47 (45396) - http://www.bohemiancoding.com/sketch -->
    <title>family-of-overseas-employees</title>
    <desc>Created with Sketch.</desc>
    <defs></defs>
    <g id="Symbols2" stroke="none" stroke-width="1" fill="none" fill-rule="evenodd">
        <g id="family-of-overseas-employees">
            <path d="M29,14.5 C29,22.508355 22.5081202,29 14.4994755,29 C6.49187977,29 0,22.508355 0,14.5 C0,6.49164497 6.49187977,0 14.4994755,0 C22.5081202,0 29,6.49164497 29,14.5" id="Fill-1-Copy-3" fill="#046B99"></path>
            <g id="plane" transform="translate(6.000000, 6.000000)" fill-rule="nonzero" fill="#FFFFFF">
                <path d="M16.6849608,0.315039202 C17.0403896,0.735091471 17.0888572,1.33285816 16.8303635,2.10833927 C16.5718698,2.88382038 16.1356617,3.57852221 15.5217391,4.19244476 L13.5709195,6.14326443 L15.5096222,14.5766215 C15.5500119,14.7301022 15.5015443,14.863388 15.3642195,14.976479 L13.8132573,16.1397006 C13.7567118,16.1881682 13.6799715,16.212402 13.5830364,16.212402 C13.5507246,16.212402 13.5224519,16.208363 13.4982181,16.2002851 C13.3770492,16.1760513 13.2922309,16.1114279 13.2437634,16.0064148 L9.86315039,9.8510335 L6.72487527,12.9893086 L7.36707056,15.3399857 C7.4074602,15.4773105 7.37514849,15.6025184 7.27013542,15.7156094 L6.10691376,16.8788311 C6.0342124,16.9515324 5.94131623,16.9878831 5.82822523,16.9878831 L5.80399145,16.9878831 C5.68282252,16.9717273 5.58588738,16.9192207 5.51318603,16.8303635 L3.22309337,13.7769066 L0.169636493,11.486814 C0.0807792825,11.4302685 0.0282727489,11.3373723 0.0121168924,11.2081254 C0.00403896412,11.1031124 0.0403896412,11.0021383 0.121168924,10.9052031 L1.28439059,9.72986458 C1.35709195,9.65716322 1.44998812,9.62081254 1.56307912,9.62081254 C1.61154669,9.62081254 1.6438584,9.62485151 1.66001426,9.63292944 L4.01069138,10.2751247 L7.1489665,7.13684961 L0.993585175,3.75623664 C0.880494179,3.69161321 0.811831789,3.59467807 0.787598004,3.46543122 C0.771442148,3.33618437 0.807792825,3.22713234 0.896650036,3.13827512 L2.44761226,1.5873129 C2.56070325,1.48229983 2.68187218,1.44998812 2.81111903,1.49037776 L10.8688525,3.41696365 L12.8075552,1.47826087 C13.4214778,0.864338323 14.1161796,0.428130197 14.8916607,0.169636493 C15.6671418,-0.0888572107 16.2649085,-0.0403896412 16.6849608,0.315039202 Z" id="Shape"></path>
            </g>
        </g>
    </g>
</svg>