<?xml version="1.0" encoding="UTF-8"?>
<svg width="29px" height="29px" viewBox="0 0 29 29" version="1.1" xmlns="http://www.w3.org/2000/svg" xmlns:xlink="http://www.w3.org/1999/xlink">
    <!-- Generator: Sketch 47 (45396) - http://www.bohemiancoding.com/sketch -->
    <title>federal-employees</title>
    <desc>Created with Sketch.</desc>
    <defs></defs>
    <g id="Symbols2" stroke="none" stroke-width="1" fill="none" fill-rule="evenodd">
        <g id="federal-employees">
            <circle id="Oval-3" fill="#112E51" cx="14.5" cy="14.5" r="14.5"></circle>
            <g id="institution" transform="translate(5.000000, 6.000000)" fill-rule="nonzero" fill="#FFFFFF">
                <path d="M9.5,0 L19,3.5625 L19,4.75 L17.7333333,4.75 C17.7333333,4.91080729 17.6657118,5.04996745 17.5304688,5.16748047 C17.3952257,5.28499349 17.2352431,5.34375 17.0505208,5.34375 L1.94947917,5.34375 C1.76475694,5.34375 1.60477431,5.28499349 1.46953125,5.16748047 C1.33428819,5.04996745 1.26666667,4.91080729 1.26666667,4.75 L0,4.75 L0,3.5625 L9.5,0 Z M2.53333333,5.9375 L5.06666667,5.9375 L5.06666667,13.0625 L6.33333333,13.0625 L6.33333333,5.9375 L8.86666667,5.9375 L8.86666667,13.0625 L10.1333333,13.0625 L10.1333333,5.9375 L12.6666667,5.9375 L12.6666667,13.0625 L13.9333333,13.0625 L13.9333333,5.9375 L16.4666667,5.9375 L16.4666667,13.0625 L17.0505208,13.0625 C17.2352431,13.0625 17.3952257,13.1212565 17.5304688,13.2387695 C17.6657118,13.3562826 17.7333333,13.4954427 17.7333333,13.65625 L17.7333333,14.25 L1.26666667,14.25 L1.26666667,13.65625 C1.26666667,13.4954427 1.33428819,13.3562826 1.46953125,13.2387695 C1.60477431,13.1212565 1.76475694,13.0625 1.94947917,13.0625 L2.53333333,13.0625 L2.53333333,5.9375 Z M18.3171875,14.84375 C18.5019097,14.84375 18.6618924,14.9025065 18.7971354,15.0200195 C18.9323785,15.1375326 19,15.2766927 19,15.4375 L19,16.625 L0,16.625 L0,15.4375 C0,15.2766927 0.0676215278,15.1375326 0.202864583,15.0200195 C0.338107639,14.9025065 0.498090278,14.84375 0.6828125,14.84375 L18.3171875,14.84375 Z" id="Shape"></path>
            </g>
        </g>
    </g>
</svg>