<?xml version="1.0" encoding="UTF-8"?>
<svg width="29px" height="29px" viewBox="0 0 29 29" version="1.1" xmlns="http://www.w3.org/2000/svg" xmlns:xlink="http://www.w3.org/1999/xlink">
    <!-- Generator: Sketch 47 (45396) - http://www.bohemiancoding.com/sketch -->
    <title>individuals-with-disabilities</title>
    <desc>Created with Sketch.</desc>
    <defs></defs>
    <g id="Symbols2" stroke="none" stroke-width="1" fill="none" fill-rule="evenodd">
        <g id="individuals-with-disabilities">
            <path d="M29,14.5 C29,22.508355 22.5081202,29 14.4994755,29 C6.49187977,29 0,22.508355 0,14.5 C0,6.49164497 6.49187977,0 14.4994755,0 C22.5081202,0 29,6.49164497 29,14.5" id="Fill-1-Copy-2" fill="#205493"></path>
            <g id="wheelchair-alt" transform="translate(6.000000, 5.000000)" fill-rule="nonzero" fill="#FFFFFF">
                <path d="M16.6357143,8.99804688 C16.9109524,9.2562934 17.0283333,9.55881076 16.9878571,9.90559896 L16.4535714,16.0039062 C16.4211905,16.3138021 16.2815476,16.5720486 16.0346429,16.7786458 C15.7877381,16.9852431 15.4983333,17.0885417 15.1664286,17.0885417 C15.1178571,17.0885417 15.0814286,17.0848524 15.0571429,17.077474 C14.7009524,17.0553385 14.4075,16.9206814 14.1767857,16.6735026 C13.9460714,16.4263238 13.8428571,16.140408 13.8671429,15.8157552 L14.2921429,11.0677083 L12.5557143,11.15625 C13.0009524,11.9900174 13.2235714,12.875434 13.2235714,13.8125 C13.2235714,15.40625 12.6245238,16.7786458 11.4264286,17.9296875 L9.76285714,16.4134115 C10.4995238,15.6681858 10.8678571,14.8012153 10.8678571,13.8125 C10.8678571,12.7426215 10.4529762,11.827691 9.62321429,11.0677083 C8.79345238,10.3077257 7.79166667,9.92773438 6.61785714,9.92773438 C5.53309524,9.92773438 4.57785714,10.2671441 3.75214286,10.9459635 L2.08857143,9.41861979 C3.06,8.57747396 4.20952381,8.05729167 5.53714286,7.85807292 L8.74285714,4.53776042 L6.93357143,3.57486979 L4.73571429,5.35677083 C4.46857143,5.578125 4.15690476,5.67957899 3.80071429,5.66113281 C3.44452381,5.64268663 3.14904762,5.51171875 2.91428571,5.26822917 C2.67952381,5.02473958 2.5722619,4.7406684 2.5925,4.41601562 C2.6127381,4.09136285 2.75238095,3.82204861 3.01142857,3.60807292 L5.91357143,1.25065104 C6.12404762,1.08094618 6.36690476,0.983181424 6.64214286,0.957356771 C6.91738095,0.931532118 7.17642857,0.985026042 7.41928571,1.11783854 L13.345,4.25 C13.6364286,4.40494792 13.8307143,4.65581597 13.9278571,5.00260417 C14.0654762,5.49696181 13.9602381,5.92860243 13.6121429,6.29752604 L11.1228571,8.86523438 L15.6278571,8.64388021 C16.0245238,8.62174479 16.3604762,8.73980035 16.6357143,8.99804688 Z M14.2314286,3.94010417 C13.632381,3.94010417 13.122381,3.74826389 12.7014286,3.36458333 C12.2804762,2.98090278 12.07,2.51605903 12.07,1.97005208 C12.07,1.42404514 12.2804762,0.959201389 12.7014286,0.575520833 C13.122381,0.191840278 13.632381,0 14.2314286,0 C14.8304762,0 15.3425,0.191840278 15.7675,0.575520833 C16.1925,0.959201389 16.405,1.42404514 16.405,1.97005208 C16.405,2.51605903 16.1925,2.98090278 15.7675,3.36458333 C15.3425,3.74826389 14.8304762,3.94010417 14.2314286,3.94010417 Z M6.61785714,17.6861979 C7.47595238,17.6861979 8.26928571,17.4611545 8.99785714,17.0110677 L10.6857143,18.5494792 C9.50380952,19.4053819 8.14785714,19.8333333 6.61785714,19.8333333 C5.4197619,19.8333333 4.3127381,19.5640191 3.29678571,19.0253906 C2.28083333,18.4867622 1.47738095,17.7562934 0.886428571,16.8339844 C0.29547619,15.9116753 0,14.9045139 0,13.8125 C0,12.4253472 0.46952381,11.1857639 1.40857143,10.09375 L3.09642857,11.6321615 C2.61071429,12.281467 2.36785714,13.0082465 2.36785714,13.8125 C2.36785714,14.8823785 2.7827381,15.7954644 3.6125,16.5517578 C4.4422619,17.3080512 5.44404762,17.6861979 6.61785714,17.6861979 Z" id="Shape"></path>
            </g>
        </g>
    </g>
</svg>