<?xml version="1.0" encoding="UTF-8"?>
<svg width="29px" height="29px" viewBox="0 0 29 29" version="1.1" xmlns="http://www.w3.org/2000/svg" xmlns:xlink="http://www.w3.org/1999/xlink">
    <!-- Generator: Sketch 47 (45396) - http://www.bohemiancoding.com/sketch -->
    <title>land-mgmt</title>
    <desc>Created with Sketch.</desc>
    <defs></defs>
    <g id="Symbols2" stroke="none" stroke-width="1" fill="none" fill-rule="evenodd">
        <g id="land-mgmt">
            <path d="M29,14.5 C29,22.508355 22.5081202,29 14.4994755,29 C6.49187977,29 0,22.508355 0,14.5 C0,6.49164497 6.49187977,0 14.4994755,0 C22.5081202,0 29,6.49164497 29,14.5" id="Fill-1-Copy-9" fill="#494440"></path>
            <g id="tree" transform="translate(6.000000, 5.000000)" fill-rule="nonzero" fill="#FFFFFF">
                <path d="M17,16.2916667 C17,16.4835069 16.9268569,16.6495226 16.7805707,16.7897135 C16.6342844,16.9299045 16.4610507,17 16.2608696,17 L10.9252717,17 C10.932971,17.125434 10.9560688,17.4482422 10.9945652,17.9684245 C11.0330616,18.4886068 11.0523098,18.8888889 11.0523098,19.1692708 C11.0523098,19.3537326 10.9830163,19.5105252 10.8444293,19.6396484 C10.7058424,19.7687717 10.540308,19.8333333 10.3478261,19.8333333 L6.65217391,19.8333333 C6.45969203,19.8333333 6.29415761,19.7687717 6.15557065,19.6396484 C6.0169837,19.5105252 5.94769022,19.3537326 5.94769022,19.1692708 C5.94769022,18.8888889 5.96693841,18.4886068 6.00543478,17.9684245 C6.04393116,17.4482422 6.06702899,17.125434 6.07472826,17 L0.739130435,17 C0.538949275,17 0.36571558,16.9299045 0.219429348,16.7897135 C0.0731431159,16.6495226 0,16.4835069 0,16.2916667 C0,16.0998264 0.0731431159,15.9338108 0.219429348,15.7936198 L4.86209239,11.3333333 L2.2173913,11.3333333 C2.01721014,11.3333333 1.84397645,11.2632378 1.69769022,11.1230469 C1.55140399,10.9828559 1.47826087,10.8168403 1.47826087,10.625 C1.47826087,10.4331597 1.55140399,10.2671441 1.69769022,10.1269531 L6.34035326,5.66666667 L4.06521739,5.66666667 C3.86503623,5.66666667 3.69180254,5.59657118 3.5455163,5.45638021 C3.39923007,5.31618924 3.32608696,5.15017361 3.32608696,4.95833333 C3.32608696,4.76649306 3.39923007,4.60047743 3.5455163,4.46028646 L7.98029891,0.210286458 C8.12658514,0.0700954861 8.29981884,0 8.5,0 C8.70018116,0 8.87341486,0.0700954861 9.01970109,0.210286458 L13.4544837,4.46028646 C13.6007699,4.60047743 13.673913,4.76649306 13.673913,4.95833333 C13.673913,5.15017361 13.6007699,5.31618924 13.4544837,5.45638021 C13.3081975,5.59657118 13.1349638,5.66666667 12.9347826,5.66666667 L10.6596467,5.66666667 L15.3023098,10.1269531 C15.448596,10.2671441 15.5217391,10.4331597 15.5217391,10.625 C15.5217391,10.8168403 15.448596,10.9828559 15.3023098,11.1230469 C15.1560236,11.2632378 14.9827899,11.3333333 14.7826087,11.3333333 L12.1379076,11.3333333 L16.7805707,15.7936198 C16.9268569,15.9338108 17,16.0998264 17,16.2916667 Z" id="Shape"></path>
            </g>
        </g>
    </g>
</svg>