<?xml version="1.0" encoding="UTF-8"?>
<svg width="29px" height="29px" viewBox="0 0 29 29" version="1.1" xmlns="http://www.w3.org/2000/svg" xmlns:xlink="http://www.w3.org/1999/xlink">
    <!-- Generator: Sketch 47 (45396) - http://www.bohemiancoding.com/sketch -->
    <title>military-spouses</title>
    <desc>Created with Sketch.</desc>
    <defs></defs>
    <g id="Symbols2" stroke="none" stroke-width="1" fill="none" fill-rule="evenodd">
        <g id="military-spouses">
            <path d="M29,14.5 C29,22.508355 22.5081202,29 14.4994755,29 C6.49187977,29 0,22.508355 0,14.5 C0,6.49164497 6.49187977,0 14.4994755,0 C22.5081202,0 29,6.49164497 29,14.5" id="Fill-1-Copy-4" fill="#2E8540"></path>
            <g id="Group" transform="translate(5.000000, 7.000000)" fill-rule="nonzero" fill="#FFFFFF">
                <g id="circle-o" transform="translate(6.000000, 2.000000)">
                    <path d="M6.5,1.89583333 C5.66493056,1.89583333 4.89474826,2.10177951 4.18945312,2.51367188 C3.48415799,2.92556424 2.92556424,3.48415799 2.51367187,4.18945313 C2.10177951,4.89474826 1.89583333,5.66493056 1.89583333,6.5 C1.89583333,7.33506944 2.10177951,8.10525174 2.51367187,8.81054688 C2.92556424,9.51584201 3.48415799,10.0744358 4.18945312,10.4863281 C4.89474826,10.8982205 5.66493056,11.1041667 6.5,11.1041667 C7.33506944,11.1041667 8.10525174,10.8982205 8.81054688,10.4863281 C9.51584201,10.0744358 10.0744358,9.51584201 10.4863281,8.81054688 C10.8982205,8.10525174 11.1041667,7.33506944 11.1041667,6.5 C11.1041667,5.66493056 10.8982205,4.89474826 10.4863281,4.18945313 C10.0744358,3.48415799 9.51584201,2.92556424 8.81054688,2.51367188 C8.10525174,2.10177951 7.33506944,1.89583333 6.5,1.89583333 Z M13,6.5 C13,7.67925347 12.7094184,8.76681858 12.1282552,9.76269531 C11.547092,10.758572 10.758572,11.547092 9.76269531,12.1282552 C8.76681858,12.7094184 7.67925347,13 6.5,13 C5.32074653,13 4.23318142,12.7094184 3.23730469,12.1282552 C2.24142795,11.547092 1.45290799,10.758572 0.871744792,9.76269531 C0.290581597,8.76681858 0,7.67925347 0,6.5 C0,5.32074653 0.290581597,4.23318142 0.871744792,3.23730469 C1.45290799,2.24142795 2.24142795,1.45290799 3.23730469,0.871744792 C4.23318142,0.290581597 5.32074653,0 6.5,0 C7.67925347,0 8.76681858,0.290581597 9.76269531,0.871744792 C10.758572,1.45290799 11.547092,2.24142795 12.1282552,3.23730469 C12.7094184,4.23318142 13,5.32074653 13,6.5 Z" id="Shape"></path>
                </g>
                <g id="circle-o-copy" opacity="0.8">
                    <path d="M6.5,1.89583333 C5.66493056,1.89583333 4.89474826,2.10177951 4.18945312,2.51367188 C3.48415799,2.92556424 2.92556424,3.48415799 2.51367187,4.18945313 C2.10177951,4.89474826 1.89583333,5.66493056 1.89583333,6.5 C1.89583333,7.33506944 2.10177951,8.10525174 2.51367187,8.81054688 C2.92556424,9.51584201 3.48415799,10.0744358 4.18945312,10.4863281 C4.89474826,10.8982205 5.66493056,11.1041667 6.5,11.1041667 C7.33506944,11.1041667 8.10525174,10.8982205 8.81054688,10.4863281 C9.51584201,10.0744358 10.0744358,9.51584201 10.4863281,8.81054688 C10.8982205,8.10525174 11.1041667,7.33506944 11.1041667,6.5 C11.1041667,5.66493056 10.8982205,4.89474826 10.4863281,4.18945313 C10.0744358,3.48415799 9.51584201,2.92556424 8.81054688,2.51367188 C8.10525174,2.10177951 7.33506944,1.89583333 6.5,1.89583333 Z M13,6.5 C13,7.67925347 12.7094184,8.76681858 12.1282552,9.76269531 C11.547092,10.758572 10.758572,11.547092 9.76269531,12.1282552 C8.76681858,12.7094184 7.67925347,13 6.5,13 C5.32074653,13 4.23318142,12.7094184 3.23730469,12.1282552 C2.24142795,11.547092 1.45290799,10.758572 0.871744792,9.76269531 C0.290581597,8.76681858 0,7.67925347 0,6.5 C0,5.32074653 0.290581597,4.23318142 0.871744792,3.23730469 C1.45290799,2.24142795 2.24142795,1.45290799 3.23730469,0.871744792 C4.23318142,0.290581597 5.32074653,0 6.5,0 C7.67925347,0 8.76681858,0.290581597 9.76269531,0.871744792 C10.758572,1.45290799 11.547092,2.24142795 12.1282552,3.23730469 C12.7094184,4.23318142 13,5.32074653 13,6.5 Z" id="Shape"></path>
                </g>
            </g>
        </g>
    </g>
</svg>