<?xml version="1.0" encoding="UTF-8"?>
<svg width="29px" height="29px" viewBox="0 0 29 29" version="1.1" xmlns="http://www.w3.org/2000/svg" xmlns:xlink="http://www.w3.org/1999/xlink">
    <!-- Generator: Sketch 47 (45396) - http://www.bohemiancoding.com/sketch -->
    <title>native-americans</title>
    <desc>Created with Sketch.</desc>
    <defs></defs>
    <g id="Symbols2" stroke="none" stroke-width="1" fill="none" fill-rule="evenodd">
        <g id="native-americans">
            <path d="M29,14.5 C29,22.508355 22.5081202,29 14.4994755,29 C6.49187977,29 0,22.508355 0,14.5 C0,6.49164497 6.49187977,0 14.4994755,0 C22.5081202,0 29,6.49164497 29,14.5" id="Fill-1-Copy-6" fill="#5B616B"></path>
            <g id="sun-o" transform="translate(6.000000, 6.000000)" fill-rule="nonzero" fill="#FFFFFF">
                <path d="M14.2330211,8.49525405 C14.2330211,7.75488554 14.0820648,7.04773869 13.7801522,6.37381351 C13.4782397,5.69988833 13.07016,5.11771822 12.5559133,4.62730318 C12.0416667,4.13688814 11.4312061,3.74772008 10.7245316,3.45979899 C10.0178571,3.17187791 9.2763466,3.02791736 8.5,3.02791736 C7.7236534,3.02791736 6.98214286,3.17187791 6.27546838,3.45979899 C5.56879391,3.74772008 4.95833333,4.13688814 4.44408665,4.62730318 C3.92983997,5.11771822 3.52176034,5.69988833 3.21984778,6.37381351 C2.91793521,7.04773869 2.76697892,7.75488554 2.76697892,8.49525405 C2.76697892,9.23562256 2.91793521,9.9427694 3.21984778,10.6166946 C3.52176034,11.2906198 3.92983997,11.8727899 4.44408665,12.3632049 C4.95833333,12.85362 5.56879391,13.242788 6.27546838,13.5307091 C6.98214286,13.8186302 7.7236534,13.9625907 8.5,13.9625907 C9.2763466,13.9625907 10.0178571,13.8186302 10.7245316,13.5307091 C11.4312061,13.242788 12.0416667,12.85362 12.5559133,12.3632049 C13.07016,11.8727899 13.4782397,11.2906198 13.7801522,10.6166946 C14.0820648,9.9427694 14.2330211,9.23562256 14.2330211,8.49525405 Z M16.9800937,11.1245114 C16.9535519,11.2194305 16.8871975,11.2827098 16.7810304,11.3143495 L13.8747073,12.2255723 L13.8747073,15.1300949 C13.8747073,15.2313419 13.8315769,15.3136051 13.7453162,15.3768844 C13.6457845,15.4401638 13.5495706,15.4528197 13.4566745,15.414852 L10.5503513,14.5226131 L8.7587822,16.8766052 C8.69242779,16.9588684 8.60616706,17 8.5,17 C8.39383294,17 8.30757221,16.9588684 8.2412178,16.8766052 L6.44964871,14.5226131 L3.54332553,15.414852 C3.45042935,15.4528197 3.35421546,15.4401638 3.25468384,15.3768844 C3.16842311,15.3136051 3.12529274,15.2313419 3.12529274,15.1300949 L3.12529274,12.2255723 L0.218969555,11.3143495 C0.112802498,11.2827098 0.0464480874,11.2194305 0.0199063232,11.1245114 C-0.0132708821,11.0169365 -1.75640752e-15,10.9251815 0.0597189696,10.8492462 L1.85128806,8.49525405 L0.0597189696,6.14126186 C-1.75640752e-15,6.0589987 -0.0132708821,5.96724363 0.0199063232,5.86599665 C0.0464480874,5.77107761 0.112802498,5.70779825 0.218969555,5.67615857 L3.12529274,4.76493579 L3.12529274,1.86041318 C3.12529274,1.7591662 3.16842311,1.67690303 3.25468384,1.61362367 C3.35421546,1.55034431 3.45042935,1.53768844 3.54332553,1.57565606 L6.44964871,2.46789503 L8.2412178,0.113902848 C8.30093677,0.0379676159 8.3871975,0 8.5,0 C8.6128025,0 8.69906323,0.0379676159 8.7587822,0.113902848 L10.5503513,2.46789503 L13.4566745,1.57565606 C13.5495706,1.53768844 13.6457845,1.55034431 13.7453162,1.61362367 C13.8315769,1.67690303 13.8747073,1.7591662 13.8747073,1.86041318 L13.8747073,4.76493579 L16.7810304,5.67615857 C16.8871975,5.70779825 16.9535519,5.77107761 16.9800937,5.86599665 C17.0132709,5.96724363 17,6.0589987 16.940281,6.14126186 L15.1487119,8.49525405 L16.940281,10.8492462 C17,10.9251815 17.0132709,11.0169365 16.9800937,11.1245114 Z" id="Shape"></path>
            </g>
        </g>
    </g>
</svg>