<?xml version="1.0" encoding="UTF-8"?>
<svg width="29px" height="29px" viewBox="0 0 29 29" version="1.1" xmlns="http://www.w3.org/2000/svg" xmlns:xlink="http://www.w3.org/1999/xlink">
    <!-- Generator: Sketch 47 (45396) - http://www.bohemiancoding.com/sketch -->
    <title>national-guard</title>
    <desc>Created with Sketch.</desc>
    <defs></defs>
    <g id="Symbols2" stroke="none" stroke-width="1" fill="none" fill-rule="evenodd">
        <g id="national-guard">
            <path d="M29,14.5 C29,22.508355 22.5081202,29 14.4994755,29 C6.49187977,29 0,22.508355 0,14.5 C0,6.49164497 6.49187977,0 14.4994755,0 C22.5081202,0 29,6.49164497 29,14.5" id="Fill-1-Copy-5" fill="#E31C3D"></path>
            <g id="flag" transform="translate(6.000000, 6.000000)" fill-rule="nonzero" fill="#FFFFFF">
                <path d="M2.51851852,1.41666667 C2.51851852,1.94791667 2.30864198,2.35373264 1.88888889,2.63411458 L1.88888889,16.6458333 C1.88888889,16.7417535 1.85773534,16.8247613 1.79542824,16.8948568 C1.73312114,16.9649523 1.65933642,17 1.57407407,17 L0.944444444,17 C0.859182099,17 0.785397377,16.9649523 0.723090278,16.8948568 C0.660783179,16.8247613 0.62962963,16.7417535 0.62962963,16.6458333 L0.62962963,2.63411458 C0.209876543,2.35373264 0,1.94791667 0,1.41666667 C0,1.02560764 0.122974537,0.691731771 0.368923611,0.415039062 C0.614872685,0.138346354 0.911651235,0 1.25925926,0 C1.60686728,0 1.90364583,0.138346354 2.14959491,0.415039062 C2.39554398,0.691731771 2.51851852,1.02560764 2.51851852,1.41666667 Z M17,2.125 L17,10.5696615 C17,10.7541233 16.9590085,10.8961589 16.8770255,10.9957682 C16.7950424,11.0953776 16.6655093,11.1968316 16.4884259,11.3001302 C15.0783179,12.156033 13.8682485,12.5839844 12.8582176,12.5839844 C12.4581404,12.5839844 12.0531443,12.5028212 11.6432292,12.3404948 C11.233314,12.1781684 10.8775077,12.0010851 10.5758102,11.8092448 C10.2741127,11.6174045 9.89535108,11.4403212 9.43952546,11.2779948 C8.98369985,11.1156684 8.5163966,11.0345052 8.03761574,11.0345052 C6.77835648,11.0345052 5.25675154,11.5731337 3.47280093,12.6503906 C3.36130401,12.7167969 3.25308642,12.75 3.14814815,12.75 C2.97762346,12.75 2.83005401,12.6799045 2.70543981,12.5397135 C2.58082562,12.3995226 2.51851852,12.2335069 2.51851852,12.0416667 L2.51851852,3.82942708 C2.51851852,3.59331597 2.62017747,3.39040799 2.82349537,3.22070312 C2.96122685,3.11740451 3.22029321,2.95876736 3.60069444,2.74479167 C5.14853395,1.859375 6.52912809,1.41666667 7.74247685,1.41666667 C8.44425154,1.41666667 9.10011574,1.52365451 9.71006944,1.73763021 C10.3200231,1.9516059 11.0381944,2.27625868 11.8645833,2.71158854 C12.1138117,2.85177951 12.402392,2.921875 12.7303241,2.921875 C13.0844907,2.921875 13.469811,2.84440104 13.8862847,2.68945312 C14.3027585,2.53450521 14.6634838,2.36111111 14.9684606,2.16927083 C15.2734375,1.97743056 15.5620177,1.80403646 15.8342014,1.64908854 C16.106385,1.49414063 16.285108,1.41666667 16.3703704,1.41666667 C16.5408951,1.41666667 16.6884645,1.48676215 16.8130787,1.62695313 C16.9376929,1.7671441 17,1.93315972 17,2.125 Z" id="Shape"></path>
            </g>
        </g>
    </g>
</svg>