<?xml version="1.0" encoding="UTF-8"?>
<svg width="29px" height="29px" viewBox="0 0 29 29" version="1.1" xmlns="http://www.w3.org/2000/svg" xmlns:xlink="http://www.w3.org/1999/xlink">
    <!-- Generator: Sketch 47 (45396) - http://www.bohemiancoding.com/sketch -->
    <title>peace-corps</title>
    <desc>Created with Sketch.</desc>
    <defs></defs>
    <g id="Symbols2" stroke="none" stroke-width="1" fill="none" fill-rule="evenodd">
        <g id="peace-corps">
            <path d="M29,14.5 C29,22.508355 22.5081202,29 14.4994755,29 C6.49187977,29 0,22.508355 0,14.5 C0,6.49164497 6.49187977,0 14.4994755,0 C22.5081202,0 29,6.49164497 29,14.5" id="Fill-1-Copy-7" fill="#4C2C92"></path>
            <g id="globe" transform="translate(6.000000, 6.000000)" fill-rule="nonzero" fill="#FFFFFF">
                <path d="M8.5,0 C10.0421007,0 11.4643012,0.379991319 12.7666016,1.13997396 C14.0689019,1.8999566 15.1000434,2.93109809 15.860026,4.23339844 C16.6200087,5.53569878 17,6.95789931 17,8.5 C17,10.0421007 16.6200087,11.4643012 15.860026,12.7666016 C15.1000434,14.0689019 14.0689019,15.1000434 12.7666016,15.860026 C11.4643012,16.6200087 10.0421007,17 8.5,17 C6.95789931,17 5.53569878,16.6200087 4.23339844,15.860026 C2.93109809,15.1000434 1.8999566,14.0689019 1.13997396,12.7666016 C0.379991319,11.4643012 0,10.0421007 0,8.5 C0,6.95789931 0.379991319,5.53569878 1.13997396,4.23339844 C1.8999566,2.93109809 2.93109809,1.8999566 4.23339844,1.13997396 C5.53569878,0.379991319 6.95789931,0 8.5,0 Z M11.5325521,5.76627604 C11.5177951,5.77365451 11.4827474,5.80870226 11.4274089,5.87141927 C11.3720703,5.93413628 11.3222656,5.96918403 11.2779948,5.9765625 C11.2927517,5.9765625 11.3093533,5.95811632 11.3277995,5.92122396 C11.3462457,5.8843316 11.3646918,5.84375 11.383138,5.79947917 C11.4015842,5.75520833 11.4144965,5.72938368 11.421875,5.72200521 C11.4661458,5.6703559 11.547309,5.61501736 11.6653646,5.55598958 C11.7686632,5.51171875 11.9605035,5.46744792 12.2408854,5.42317708 C12.4917535,5.36414931 12.6799045,5.4047309 12.8053385,5.54492188 C12.7905816,5.53016493 12.8256293,5.48220486 12.9104818,5.40104167 C12.9953342,5.31987847 13.0488281,5.27560764 13.0709635,5.26822917 C13.093099,5.25347222 13.1484375,5.23687066 13.2369792,5.21842448 C13.3255208,5.1999783 13.3808594,5.17230903 13.4029948,5.13541667 L13.4251302,4.89192708 C13.3365885,4.89930556 13.2720269,4.8734809 13.2314453,4.81445312 C13.1908637,4.75542535 13.1668837,4.67795139 13.1595052,4.58203125 C13.1595052,4.59678819 13.1373698,4.62630208 13.093099,4.67057292 C13.093099,4.61892361 13.0764974,4.58940972 13.0432943,4.58203125 C13.0100911,4.57465278 12.9676649,4.57834201 12.9160156,4.59309896 C12.8643663,4.6078559 12.8311632,4.61154514 12.8164062,4.60416667 C12.7426215,4.58203125 12.687283,4.55436198 12.6503906,4.52115885 C12.6134983,4.48795573 12.5839844,4.42708333 12.561849,4.33854167 C12.5397135,4.25 12.5249566,4.19466146 12.5175781,4.17252604 C12.5028212,4.13563368 12.4677734,4.09505208 12.4124349,4.05078125 C12.3570964,4.00651042 12.3220486,3.96961806 12.3072917,3.94010417 C12.2999132,3.92534722 12.2906901,3.90505642 12.2796224,3.87923177 C12.2685547,3.85340712 12.257487,3.82942708 12.2464193,3.80729167 C12.2353516,3.78515625 12.2205946,3.76486545 12.2021484,3.74641927 C12.1837023,3.72797309 12.1634115,3.71875 12.141276,3.71875 C12.1191406,3.71875 12.093316,3.73719618 12.0638021,3.77408854 C12.0342882,3.8109809 12.0066189,3.84787326 11.9807943,3.88476562 C11.9549696,3.92165799 11.9383681,3.94010417 11.9309896,3.94010417 C11.9088542,3.92534722 11.8867188,3.91981337 11.8645833,3.9235026 C11.8424479,3.92719184 11.8258464,3.93088108 11.8147786,3.93457031 C11.8037109,3.93825955 11.7871094,3.94932726 11.764974,3.96777344 C11.7428385,3.98621962 11.7243924,3.99913194 11.7096354,4.00651042 C11.6875,4.02126736 11.6561415,4.03233507 11.6155599,4.03971354 C11.5749783,4.04709201 11.5436198,4.05447049 11.5214844,4.06184896 C11.6321615,4.0249566 11.6284722,3.984375 11.5104167,3.94010417 C11.4366319,3.91059028 11.3776042,3.89952257 11.3333333,3.90690104 C11.3997396,3.87738715 11.4274089,3.83311632 11.4163411,3.77408854 C11.4052734,3.71506076 11.3739149,3.66341146 11.3222656,3.61914062 L11.3776042,3.61914062 C11.3702257,3.58962674 11.3388672,3.55826823 11.2835286,3.5250651 C11.2281901,3.49186198 11.1636285,3.46050347 11.0898438,3.43098958 C11.016059,3.40147569 10.968099,3.37934028 10.9459635,3.36458333 C10.8869358,3.32769097 10.7615017,3.29264323 10.5696615,3.2594401 C10.3778212,3.22623698 10.2560764,3.22439236 10.2044271,3.25390625 C10.1675347,3.29817708 10.1509332,3.33691406 10.1546224,3.37011719 C10.1583116,3.40332031 10.1730686,3.45496962 10.1988932,3.5250651 C10.2247179,3.59516059 10.2376302,3.64127604 10.2376302,3.66341146 C10.2450087,3.70768229 10.2247179,3.75564236 10.1767578,3.80729167 C10.1287977,3.85894097 10.1048177,3.90321181 10.1048177,3.94010417 C10.1048177,3.99175347 10.156467,4.04893663 10.2597656,4.11165365 C10.3630642,4.17437066 10.3999566,4.25368924 10.3704427,4.34960938 C10.3483073,4.40863715 10.2892795,4.46766493 10.1933594,4.52669271 C10.0974392,4.58572049 10.0384115,4.62999132 10.016276,4.65950521 C9.97938368,4.71853299 9.97384983,4.78678385 9.99967448,4.86425781 C10.0254991,4.94173177 10.0642361,5.00260417 10.1158854,5.046875 C10.1306424,5.06163194 10.1361762,5.07638889 10.132487,5.09114583 C10.1287977,5.10590278 10.1158854,5.12250434 10.09375,5.14095052 C10.0716146,5.1593967 10.0513238,5.17415365 10.0328776,5.18522135 C10.0144314,5.19628906 9.99045139,5.20920139 9.9609375,5.22395833 L9.92773438,5.24609375 C9.84657118,5.28298611 9.77094184,5.26085069 9.70084635,5.1796875 C9.63075087,5.09852431 9.58094618,5.00260417 9.55143229,4.89192708 C9.49978299,4.70746528 9.44075521,4.59678819 9.37434896,4.55989583 C9.2046441,4.50086806 9.09765625,4.50455729 9.05338542,4.57096354 C9.01649306,4.4750434 8.86523438,4.37912326 8.59960938,4.28320312 C8.41514757,4.21679688 8.20117188,4.20203993 7.95768229,4.23893229 C8.00195312,4.23155382 8.00195312,4.17621528 7.95768229,4.07291667 C7.90603299,3.96223958 7.8359375,3.91796875 7.74739583,3.94010417 C7.76953125,3.89583333 7.78428819,3.8312717 7.79166667,3.74641927 C7.79904514,3.66156684 7.80273438,3.61176215 7.80273438,3.59700521 C7.82486979,3.50108507 7.86914063,3.41623264 7.93554688,3.34244792 C7.94292535,3.33506944 7.96875,3.30371094 8.01302083,3.2483724 C8.05729167,3.19303385 8.09233941,3.14322917 8.11816406,3.09895833 C8.14398872,3.0546875 8.14583333,3.03255208 8.12369792,3.03255208 C8.38194444,3.06206597 8.56640625,3.02148438 8.67708333,2.91080729 C8.71397569,2.87391493 8.75640191,2.81119792 8.80436198,2.72265625 C8.85232205,2.63411458 8.89105903,2.57139757 8.92057292,2.53450521 C8.98697917,2.49023438 9.03862847,2.46994358 9.07552083,2.47363281 C9.11241319,2.47732205 9.16590712,2.49761285 9.2360026,2.53450521 C9.30609809,2.57139757 9.35959201,2.58984375 9.39648438,2.58984375 C9.49978299,2.59722222 9.55696615,2.55664062 9.56803385,2.46809896 C9.57910156,2.37955729 9.55143229,2.30577257 9.48502604,2.24674479 C9.57356771,2.25412326 9.58463542,2.19140625 9.51822917,2.05859375 C9.48871528,2.00694444 9.45920139,1.97374132 9.4296875,1.95898437 C9.34114583,1.92947049 9.24153646,1.94791667 9.13085938,2.01432292 C9.0718316,2.04383681 9.07921007,2.07335069 9.15299479,2.10286458 C9.14561632,2.09548611 9.11056858,2.13422309 9.04785156,2.21907552 C8.98513455,2.30392795 8.92426215,2.36848958 8.86523438,2.41276042 C8.8062066,2.45703125 8.74717882,2.43858507 8.68815104,2.35742188 C8.68077257,2.3500434 8.66048177,2.30023872 8.62727865,2.20800781 C8.59407552,2.11577691 8.55902778,2.06597222 8.52213542,2.05859375 C8.46310764,2.05859375 8.40407986,2.11393229 8.34505208,2.22460938 C8.3671875,2.1655816 8.3266059,2.11024306 8.22330729,2.05859375 C8.12000868,2.00694444 8.03146701,1.97743056 7.95768229,1.97005208 C8.09787326,1.88151042 8.06835938,1.78190104 7.86914063,1.67122396 C7.81749132,1.64171007 7.74186198,1.62326389 7.6422526,1.61588542 C7.54264323,1.60850694 7.47070313,1.62326389 7.42643229,1.66015625 C7.38953993,1.71180556 7.36924913,1.75423177 7.3655599,1.7874349 C7.36187066,1.82063802 7.38031684,1.85015191 7.42089844,1.87597656 C7.46148003,1.90180122 7.50021701,1.92209201 7.53710938,1.93684896 C7.57400174,1.9516059 7.61642795,1.96636285 7.66438802,1.98111979 C7.71234809,1.99587674 7.7437066,2.00694444 7.75846354,2.01432292 C7.86176215,2.08810764 7.89127604,2.13975694 7.84700521,2.16927083 C7.83224826,2.17664931 7.80088976,2.18956163 7.75292969,2.20800781 C7.70496962,2.22645399 7.6625434,2.24305556 7.62565104,2.2578125 C7.58875868,2.27256944 7.56662326,2.28732639 7.55924479,2.30208333 C7.53710938,2.33159722 7.53710938,2.38324653 7.55924479,2.45703125 C7.58138021,2.53081597 7.57400174,2.58246528 7.53710938,2.61197917 C7.50021701,2.57508681 7.46701389,2.51052517 7.4375,2.41829427 C7.40798611,2.32606337 7.38216146,2.26519097 7.36002604,2.23567708 C7.41167535,2.30208333 7.31944444,2.32421875 7.08333333,2.30208333 L6.97265625,2.29101562 C6.94314236,2.29101562 6.88411458,2.2983941 6.79557292,2.31315104 C6.70703125,2.32790799 6.63140191,2.33159722 6.5686849,2.32421875 C6.50596788,2.31684028 6.45616319,2.28732639 6.41927083,2.23567708 C6.38975694,2.17664931 6.38975694,2.10286458 6.41927083,2.01432292 C6.42664931,1.98480903 6.44140625,1.97743056 6.46354167,1.9921875 C6.43402778,1.97005208 6.39344618,1.93500434 6.34179688,1.88704427 C6.29014757,1.8390842 6.25325521,1.80772569 6.23111979,1.79296875 C5.89171007,1.90364583 5.54492188,2.05490451 5.19075521,2.24674479 C5.23502604,2.25412326 5.27929688,2.25043403 5.32356771,2.23567708 C5.36046007,2.22092014 5.40842014,2.1969401 5.46744792,2.16373698 C5.52647569,2.13053385 5.56336806,2.11024306 5.578125,2.10286458 C5.82899306,1.99956597 5.98394097,1.97374132 6.04296875,2.02539062 L6.09830729,1.97005208 C6.2016059,2.08810764 6.27539062,2.18033854 6.31966146,2.24674479 C6.26801215,2.2172309 6.15733507,2.21354167 5.98763021,2.23567708 C5.84006076,2.27994792 5.75889757,2.32421875 5.74414062,2.36848958 C5.79578993,2.45703125 5.81423611,2.5234375 5.79947917,2.56770833 C5.76996528,2.54557292 5.72753906,2.50868056 5.67220052,2.45703125 C5.61686198,2.40538194 5.56336806,2.36480035 5.51171875,2.33528646 C5.46006944,2.30577257 5.4047309,2.28732639 5.34570312,2.27994792 C5.22764757,2.27994792 5.14648438,2.28363715 5.10221354,2.29101562 C4.0249566,2.8812934 3.15798611,3.70030382 2.50130208,4.74804688 C2.55295139,4.79969618 2.59722222,4.82921007 2.63411458,4.83658854 C2.66362847,4.84396701 2.68207465,4.87717014 2.68945312,4.93619792 C2.6968316,4.99522569 2.70605469,5.03580729 2.7171224,5.05794271 C2.7281901,5.08007812 2.77061632,5.06901042 2.84440104,5.02473958 C2.91080729,5.08376736 2.921875,5.15386285 2.87760417,5.23502604 C2.88498264,5.22764757 3.04730903,5.32725694 3.36458333,5.53385417 C3.50477431,5.65928819 3.58224826,5.73676215 3.59700521,5.76627604 C3.61914062,5.84743924 3.58224826,5.91384549 3.48632812,5.96549479 C3.47894965,5.95073785 3.44574653,5.91753472 3.38671875,5.86588542 C3.32769097,5.81423611 3.29448785,5.79947917 3.28710938,5.82161458 C3.26497396,5.85850694 3.26681858,5.92675781 3.29264323,6.02636719 C3.31846788,6.12597656 3.35720486,6.17209201 3.40885417,6.16471354 C3.35720486,6.16471354 3.32215712,6.22374132 3.30371094,6.34179688 C3.28526476,6.45985243 3.27604167,6.59082031 3.27604167,6.73470052 C3.27604167,6.87858073 3.27235243,6.96527778 3.26497396,6.99479167 L3.28710938,7.00585938 C3.26497396,7.09440104 3.28526476,7.22167969 3.34798177,7.38769531 C3.41069878,7.55371094 3.49001736,7.62565104 3.5859375,7.60351562 C3.49001736,7.62565104 3.56380208,7.78428819 3.80729167,8.07942708 C3.8515625,8.13845486 3.88107639,8.17165799 3.89583333,8.17903646 C3.91796875,8.1937934 3.96223958,8.22146267 4.02864583,8.26204427 C4.09505208,8.30262587 4.15039062,8.33951823 4.19466146,8.37272135 C4.23893229,8.40592448 4.27582465,8.44466146 4.30533854,8.48893229 C4.33485243,8.52582465 4.37174479,8.60883247 4.41601562,8.73795573 C4.46028646,8.86707899 4.51193576,8.95377604 4.57096354,8.99804688 C4.5562066,9.04231771 4.59125434,9.11610243 4.67610677,9.21940104 C4.7609592,9.32269965 4.79969618,9.40755208 4.79231771,9.47395833 C4.78493924,9.47395833 4.77571615,9.47764757 4.76464844,9.48502604 C4.75358073,9.49240451 4.74435764,9.49609375 4.73697917,9.49609375 C4.75911458,9.54774306 4.81629774,9.59939236 4.90852865,9.65104167 C5.00075955,9.70269097 5.05794271,9.75065104 5.08007812,9.79492188 C5.0874566,9.81705729 5.09483507,9.85394965 5.10221354,9.90559896 C5.10959201,9.95724826 5.12065972,9.99782986 5.13541667,10.0273438 C5.15017361,10.0568576 5.1796875,10.0642361 5.22395833,10.0494792 C5.23871528,9.90190972 5.15017361,9.67317708 4.95833333,9.36328125 C4.84765625,9.17881944 4.78493924,9.0718316 4.77018229,9.04231771 C4.74804688,9.00542535 4.72775608,8.94824219 4.7093099,8.87076823 C4.69086372,8.79329427 4.67426215,8.73980035 4.65950521,8.71028646 C4.67426215,8.71028646 4.69639757,8.71582031 4.72591146,8.72688802 C4.75542535,8.73795573 4.78678385,8.75086806 4.81998698,8.765625 C4.8531901,8.78038194 4.88085938,8.79513889 4.90299479,8.80989583 C4.92513021,8.82465278 4.93250868,8.83572049 4.92513021,8.84309896 C4.90299479,8.89474826 4.91037326,8.9593099 4.94726562,9.03678385 C4.98415799,9.11425781 5.02842882,9.18250868 5.08007812,9.24153646 C5.13172743,9.30056424 5.19444444,9.37065972 5.26822917,9.45182292 C5.34201389,9.53298611 5.38628472,9.58094618 5.40104167,9.59570312 C5.4453125,9.63997396 5.49696181,9.71191406 5.55598958,9.81152344 C5.61501736,9.91113281 5.61501736,9.9609375 5.55598958,9.9609375 C5.62239583,9.9609375 5.69618056,9.99967448 5.77734375,10.0771484 C5.85850694,10.1546224 5.92122396,10.2265625 5.96549479,10.2929688 C6.00238715,10.3519965 6.03190104,10.4479167 6.05403646,10.5807292 C6.07617188,10.7135417 6.09461806,10.8020833 6.109375,10.8463542 C6.12413194,10.8980035 6.15549045,10.9478082 6.20345052,10.9957682 C6.25141059,11.0437283 6.29752604,11.078776 6.34179688,11.1009115 L6.51888021,11.1894531 L6.66276042,11.2669271 C6.69965278,11.281684 6.76790365,11.320421 6.86751302,11.383138 C6.9671224,11.445855 7.04644097,11.4882812 7.10546875,11.5104167 C7.17925347,11.5399306 7.23828125,11.5546875 7.28255208,11.5546875 C7.32682292,11.5546875 7.38031684,11.5454644 7.44303385,11.5270182 C7.50575087,11.508572 7.55555556,11.4956597 7.59244792,11.4882812 C7.703125,11.4735243 7.81011285,11.5288628 7.91341146,11.6542969 C8.01671007,11.7797309 8.09418403,11.8572049 8.14583333,11.8867188 C8.41145833,12.0269097 8.61436632,12.0674913 8.75455729,12.0084635 C8.73980035,12.015842 8.74164497,12.0435113 8.76009115,12.0914714 C8.77853733,12.1394314 8.80805122,12.1966146 8.84863281,12.2630208 C8.88921441,12.3294271 8.92241753,12.382921 8.94824219,12.4235026 C8.97406684,12.4640842 8.99435764,12.4954427 9.00911458,12.5175781 C9.04600694,12.561849 9.11241319,12.6171875 9.20833333,12.6835938 C9.30425347,12.75 9.37065972,12.8053385 9.40755208,12.8496094 C9.45182292,12.8200955 9.47764757,12.7868924 9.48502604,12.75 C9.46289062,12.8090278 9.48871528,12.8828125 9.5625,12.9713542 C9.63628472,13.0598958 9.70269097,13.0967882 9.76171875,13.0820312 C9.86501736,13.0598958 9.91666667,12.9418403 9.91666667,12.7278646 C9.68793403,12.8385417 9.50716146,12.7721354 9.37434896,12.5286458 C9.37434896,12.5212674 9.36512587,12.5009766 9.34667969,12.4677734 C9.32823351,12.4345703 9.31347656,12.4032118 9.30240885,12.3736979 C9.29134115,12.344184 9.28211806,12.3128255 9.27473958,12.2796224 C9.26736111,12.2464193 9.26736111,12.21875 9.27473958,12.1966146 C9.28211806,12.1744792 9.30056424,12.1634115 9.33007812,12.1634115 C9.39648438,12.1634115 9.43337674,12.1504991 9.44075521,12.1246745 C9.44813368,12.0988498 9.44075521,12.0527344 9.41861979,11.9863281 C9.39648438,11.9199219 9.38172743,11.8719618 9.37434896,11.8424479 C9.36697049,11.7834201 9.32638889,11.7096354 9.25260417,11.6210938 C9.17881944,11.5325521 9.13454861,11.4772135 9.11979167,11.4550781 C9.08289931,11.5214844 9.02387153,11.5509983 8.94270833,11.5436198 C8.86154514,11.5362413 8.80251736,11.5030382 8.765625,11.4440104 C8.765625,11.4513889 8.76009115,11.4716797 8.74902344,11.5048828 C8.73795573,11.5380859 8.73242188,11.562066 8.73242188,11.5768229 C8.63650174,11.5768229 8.58116319,11.5731337 8.56640625,11.5657552 C8.57378472,11.5436198 8.58300781,11.4790582 8.59407552,11.3720703 C8.60514323,11.2650825 8.61805556,11.1820747 8.6328125,11.1230469 C8.64019097,11.093533 8.66048177,11.0492622 8.6936849,10.9902344 C8.72688802,10.9312066 8.75455729,10.8777127 8.77669271,10.8297526 C8.79882812,10.7817925 8.81358507,10.7356771 8.82096354,10.6914062 C8.82834201,10.6471354 8.81174045,10.6120877 8.77115885,10.586263 C8.73057726,10.5604384 8.66601562,10.5512153 8.57747396,10.5585938 C8.43728299,10.5659722 8.34136285,10.6397569 8.28971354,10.7799479 C8.28233507,10.8020833 8.27126736,10.8408203 8.25651042,10.8961589 C8.24175347,10.9514974 8.22330729,10.9939236 8.20117188,11.0234375 C8.17903646,11.0529514 8.14583333,11.078776 8.1015625,11.1009115 C8.04991319,11.1230469 7.96137153,11.1304253 7.8359375,11.1230469 C7.71050347,11.1156684 7.62196181,11.0972222 7.5703125,11.0677083 C7.47439236,11.0086806 7.39138455,10.9016927 7.32128906,10.7467448 C7.25119358,10.5917969 7.21614583,10.4552951 7.21614583,10.3372396 C7.21614583,10.2634549 7.22536892,10.1656901 7.2438151,10.0439453 C7.26226128,9.92220052 7.27332899,9.82996962 7.27701823,9.7672526 C7.28070747,9.70453559 7.26041667,9.61414931 7.21614583,9.49609375 C7.23828125,9.48133681 7.27148438,9.44628906 7.31575521,9.39095052 C7.36002604,9.33561198 7.3969184,9.296875 7.42643229,9.27473958 C7.44118924,9.26736111 7.4577908,9.26182726 7.47623698,9.25813802 C7.49468316,9.25444878 7.51128472,9.25444878 7.52604167,9.25813802 C7.54079861,9.26182726 7.55555556,9.2562934 7.5703125,9.24153646 C7.58506944,9.22677951 7.59613715,9.2046441 7.60351563,9.17513021 C7.59613715,9.16775174 7.58138021,9.15668403 7.55924479,9.14192708 C7.53710938,9.11979167 7.52235243,9.10872396 7.51497396,9.10872396 C7.56662326,9.13085938 7.67176649,9.12532552 7.83040365,9.0921224 C7.9890408,9.05891927 8.09049479,9.06445312 8.13476562,9.10872396 C8.24544271,9.18988715 8.3266059,9.18250868 8.37825521,9.08658854 C8.37825521,9.07921007 8.36903212,9.04416233 8.35058594,8.98144531 C8.33213976,8.9187283 8.33029514,8.86892361 8.34505208,8.83203125 C8.38194444,9.03125 8.48893229,9.06445312 8.66601562,8.93164062 C8.68815104,8.95377604 8.7453342,8.97222222 8.8375651,8.98697917 C8.92979601,9.00173611 8.99435764,9.02018229 9.03125,9.04231771 C9.05338542,9.05707465 9.07921007,9.07736545 9.10872396,9.1031901 C9.13823785,9.12901476 9.15852865,9.14561632 9.16959635,9.15299479 C9.18066406,9.16037326 9.19911024,9.15852865 9.2249349,9.14746094 C9.25075955,9.13639323 9.28211806,9.11241319 9.31901042,9.07552083 C9.39279514,9.17881944 9.43706597,9.26736111 9.45182292,9.34114583 C9.53298611,9.63628472 9.6030816,9.79861111 9.66210938,9.828125 C9.71375868,9.85026042 9.75434028,9.85763889 9.78385417,9.85026042 C9.81336806,9.84288194 9.82996962,9.8078342 9.83365885,9.74511719 C9.83734809,9.68240017 9.83734809,9.63075087 9.83365885,9.59016927 C9.82996962,9.54958767 9.82443576,9.50347222 9.81705729,9.45182292 L9.80598958,9.36328125 L9.80598958,9.1640625 L9.79492188,9.07552083 C9.68424479,9.05338542 9.61599392,9.00911458 9.59016927,8.94270833 C9.56434462,8.87630208 9.56987847,8.80805122 9.60677083,8.73795573 C9.64366319,8.66786024 9.69900174,8.59960938 9.77278646,8.53320312 C9.78016493,8.52582465 9.80967882,8.51291233 9.86132812,8.49446615 C9.91297743,8.47601997 9.97016059,8.45203993 10.0328776,8.42252604 C10.0955946,8.39301215 10.1417101,8.36349826 10.171224,8.33398438 C10.3261719,8.1937934 10.3815104,8.06467014 10.3372396,7.94661458 C10.3888889,7.94661458 10.4294705,7.91341146 10.4589844,7.84700521 C10.4516059,7.84700521 10.4331597,7.8359375 10.4036458,7.81380208 C10.3741319,7.79166667 10.3464627,7.77322049 10.320638,7.75846354 C10.2948134,7.7437066 10.2782118,7.73632812 10.2708333,7.73632812 C10.3372396,7.69943576 10.3446181,7.64040799 10.2929688,7.55924479 C10.3298611,7.53710938 10.3575304,7.49652778 10.3759766,7.4375 C10.3944227,7.37847222 10.422092,7.34157986 10.4589844,7.32682292 C10.5253906,7.41536458 10.6028646,7.42274306 10.6914062,7.34895833 C10.750434,7.28993056 10.7541233,7.23090278 10.702474,7.171875 C10.7393663,7.12022569 10.8149957,7.08148872 10.929362,7.05566406 C11.0437283,7.02983941 11.1119792,6.99479167 11.1341146,6.95052083 C11.1857639,6.96527778 11.2152778,6.95789931 11.2226562,6.92838542 C11.2300347,6.89887153 11.233724,6.85460069 11.233724,6.79557292 C11.233724,6.73654514 11.2447917,6.69227431 11.2669271,6.66276042 C11.296441,6.62586806 11.3517795,6.59266493 11.4329427,6.56315104 C11.5141059,6.53363715 11.562066,6.51519097 11.5768229,6.5078125 L11.764974,6.38606771 C11.7871094,6.35655382 11.7871094,6.34179688 11.764974,6.34179688 C11.8977865,6.35655382 12.0121528,6.31597222 12.1080729,6.22005208 C12.1818576,6.13888889 12.1597222,6.06510417 12.0416667,5.99869792 C12.0638021,5.95442708 12.0527344,5.91937934 12.0084635,5.89355469 C11.9641927,5.86773003 11.9088542,5.84743924 11.8424479,5.83268229 C11.8645833,5.82530382 11.9070095,5.8234592 11.9697266,5.82714844 C12.0324436,5.83083767 12.0711806,5.82530382 12.0859375,5.81054688 C12.1966146,5.73676215 12.1707899,5.67773438 12.0084635,5.63346354 C11.8830295,5.59657118 11.7243924,5.64084201 11.5325521,5.76627604 Z M9.72851562,15.4726562 C11.2484809,15.2070312 12.5434028,14.5097656 13.6132812,13.3808594 C13.5911458,13.358724 13.5450304,13.3421224 13.4749349,13.3310547 C13.4048394,13.319987 13.358724,13.3070747 13.3365885,13.2923177 C13.203776,13.2406684 13.1152344,13.2111545 13.0709635,13.203776 C13.078342,13.1521267 13.0691189,13.1041667 13.0432943,13.0598958 C13.0174696,13.015625 12.9879557,12.9824219 12.9547526,12.9602865 C12.9215495,12.938151 12.875434,12.9086372 12.8164062,12.8717448 C12.7573785,12.8348524 12.7167969,12.8090278 12.6946615,12.7942708 C12.6799045,12.7795139 12.6540799,12.7573785 12.6171875,12.7278646 C12.5802951,12.6983507 12.5544705,12.6780599 12.5397135,12.6669922 C12.5249566,12.6559245 12.4972873,12.6393229 12.4567057,12.6171875 C12.4161241,12.5950521 12.3847656,12.5876736 12.3626302,12.5950521 C12.3404948,12.6024306 12.3036024,12.6061198 12.2519531,12.6061198 L12.21875,12.6171875 C12.1966146,12.624566 12.1763238,12.6337891 12.1578776,12.6448568 C12.1394314,12.6559245 12.1191406,12.6669922 12.0970052,12.6780599 C12.0748698,12.6891276 12.0601128,12.7001953 12.0527344,12.711263 C12.0453559,12.7223307 12.0453559,12.7315538 12.0527344,12.7389323 C11.8977865,12.6134983 11.764974,12.5323351 11.6542969,12.4954427 C11.6174045,12.4880642 11.5768229,12.4677734 11.5325521,12.4345703 C11.4882812,12.4013672 11.4495443,12.3755425 11.4163411,12.3570964 C11.383138,12.3386502 11.3462457,12.3331163 11.3056641,12.3404948 C11.2650825,12.3478733 11.2226562,12.3736979 11.1783854,12.4179688 C11.1414931,12.4548611 11.1193576,12.5101997 11.1119792,12.5839844 C11.1046007,12.6577691 11.0972222,12.7057292 11.0898437,12.7278646 C11.0381944,12.6909722 11.0381944,12.6264106 11.0898437,12.5341797 C11.1414931,12.4419488 11.1488715,12.3736979 11.1119792,12.3294271 C11.0898437,12.2851562 11.0511068,12.2685547 10.9957682,12.2796224 C10.9404297,12.2906901 10.8961589,12.3072917 10.8629557,12.3294271 C10.8297526,12.3515625 10.7873264,12.382921 10.7356771,12.4235026 C10.6840278,12.4640842 10.6508247,12.4880642 10.6360677,12.4954427 C10.6213108,12.5028212 10.5899523,12.523112 10.5419922,12.5563151 C10.4940321,12.5895182 10.4626736,12.6171875 10.4479167,12.6393229 C10.4257812,12.6688368 10.4036458,12.7131076 10.3815104,12.7721354 C10.359375,12.8311632 10.3409288,12.8717448 10.3261719,12.8938802 C10.3114149,12.8643663 10.2689887,12.8403863 10.1988932,12.8219401 C10.1287977,12.8034939 10.09375,12.7832031 10.09375,12.7610677 C10.1085069,12.8348524 10.1232639,12.9639757 10.1380208,13.1484375 C10.1527778,13.3328993 10.171224,13.4730903 10.1933594,13.5690104 C10.2450087,13.7977431 10.2007378,13.9748264 10.0605469,14.1002604 C9.86132812,14.2847222 9.75434028,14.4322917 9.73958333,14.5429688 C9.71006944,14.7052951 9.75434028,14.8012153 9.87239583,14.8307292 C9.87239583,14.8823785 9.84288194,14.9580078 9.78385417,15.0576172 C9.72482639,15.1572266 9.69900174,15.2365451 9.70638021,15.2955729 C9.70638021,15.3398438 9.71375868,15.3988715 9.72851562,15.4726562 Z" id="Shape"></path>
            </g>
        </g>
    </g>
</svg>