<?xml version="1.0" encoding="UTF-8"?>
<svg width="29px" height="29px" viewBox="0 0 29 29" version="1.1" xmlns="http://www.w3.org/2000/svg" xmlns:xlink="http://www.w3.org/1999/xlink">
    <!-- Generator: Sketch 47 (45396) - http://www.bohemiancoding.com/sketch -->
    <title>public</title>
    <desc>Created with Sketch.</desc>
    <defs></defs>
    <g id="Symbols2" stroke="none" stroke-width="1" fill="none" fill-rule="evenodd">
        <g id="public">
            <circle id="Oval-3" fill="#02BFE7" cx="14.5" cy="14.5" r="14.5"></circle>
            <g id="users" transform="translate(6.000000, 7.000000)" fill-rule="nonzero" fill="#FFFFFF">
                <path d="M5.25052083,7.93333333 C4.29427083,7.96284722 3.51215278,8.340625 2.90416667,9.06666667 L1.71770833,9.06666667 C1.23368056,9.06666667 0.826388889,8.94713542 0.495833333,8.70807292 C0.165277778,8.46901042 0,8.11927083 0,7.65885417 C0,5.57517361 0.365972222,4.53333333 1.09791667,4.53333333 C1.13333333,4.53333333 1.26171875,4.5953125 1.48307292,4.71927083 C1.70442708,4.84322917 1.9921875,4.96866319 2.34635417,5.09557292 C2.70052083,5.22248264 3.05173611,5.2859375 3.4,5.2859375 C3.79548611,5.2859375 4.18802083,5.21805556 4.57760417,5.08229167 C4.54809028,5.30069444 4.53333333,5.49548611 4.53333333,5.66666667 C4.53333333,6.48715278 4.77239583,7.24270833 5.25052083,7.93333333 Z M14.7333333,13.5734375 C14.7333333,14.2817708 14.5178819,14.841059 14.0869792,15.2513021 C13.6560764,15.6615451 13.0835069,15.8666667 12.3692708,15.8666667 L4.63072917,15.8666667 C3.91649306,15.8666667 3.34392361,15.6615451 2.91302083,15.2513021 C2.48211806,14.841059 2.26666667,14.2817708 2.26666667,13.5734375 C2.26666667,13.2605903 2.27699653,12.9551215 2.29765625,12.6570313 C2.31831597,12.358941 2.35963542,12.0372396 2.42161458,11.6919271 C2.48359375,11.3466146 2.56180556,11.0263889 2.65625,10.73125 C2.75069444,10.4361111 2.87760417,10.1483507 3.03697917,9.86796875 C3.19635417,9.58758681 3.37934028,9.34852431 3.5859375,9.15078125 C3.79253472,8.95303819 4.04487847,8.79513889 4.34296875,8.67708333 C4.64105903,8.55902778 4.97013889,8.5 5.33020833,8.5 C5.38923611,8.5 5.51614583,8.56345486 5.7109375,8.69036458 C5.90572917,8.81727431 6.12118056,8.95894097 6.35729167,9.11536458 C6.59340278,9.27178819 6.90920139,9.41345486 7.3046875,9.54036458 C7.70017361,9.66727431 8.09861111,9.73072917 8.5,9.73072917 C8.90138889,9.73072917 9.29982639,9.66727431 9.6953125,9.54036458 C10.0907986,9.41345486 10.4065972,9.27178819 10.6427083,9.11536458 C10.8788194,8.95894097 11.0942708,8.81727431 11.2890625,8.69036458 C11.4838542,8.56345486 11.6107639,8.5 11.6697917,8.5 C12.0298611,8.5 12.358941,8.55902778 12.6570312,8.67708333 C12.9551215,8.79513889 13.2074653,8.95303819 13.4140625,9.15078125 C13.6206597,9.34852431 13.8036458,9.58758681 13.9630208,9.86796875 C14.1223958,10.1483507 14.2493056,10.4361111 14.34375,10.73125 C14.4381944,11.0263889 14.5164062,11.3466146 14.5783854,11.6919271 C14.6403646,12.0372396 14.681684,12.358941 14.7023437,12.6570313 C14.7230035,12.9551215 14.7333333,13.2605903 14.7333333,13.5734375 Z M5.66666667,2.26666667 C5.66666667,2.89236111 5.4453125,3.4265625 5.00260417,3.86927083 C4.55989583,4.31197917 4.02569444,4.53333333 3.4,4.53333333 C2.77430556,4.53333333 2.24010417,4.31197917 1.79739583,3.86927083 C1.3546875,3.4265625 1.13333333,2.89236111 1.13333333,2.26666667 C1.13333333,1.64097222 1.3546875,1.10677083 1.79739583,0.6640625 C2.24010417,0.221354167 2.77430556,0 3.4,0 C4.02569444,0 4.55989583,0.221354167 5.00260417,0.6640625 C5.4453125,1.10677083 5.66666667,1.64097222 5.66666667,2.26666667 Z M11.9,5.66666667 C11.9,6.60520833 11.5679688,7.40651042 10.9039063,8.07057292 C10.2398438,8.73463542 9.43854167,9.06666667 8.5,9.06666667 C7.56145833,9.06666667 6.76015625,8.73463542 6.09609375,8.07057292 C5.43203125,7.40651042 5.1,6.60520833 5.1,5.66666667 C5.1,4.728125 5.43203125,3.92682292 6.09609375,3.26276042 C6.76015625,2.59869792 7.56145833,2.26666667 8.5,2.26666667 C9.43854167,2.26666667 10.2398438,2.59869792 10.9039063,3.26276042 C11.5679688,3.92682292 11.9,4.728125 11.9,5.66666667 Z M17,7.65885417 C17,8.11927083 16.8347222,8.46901042 16.5041667,8.70807292 C16.1736111,8.94713542 15.7663194,9.06666667 15.2822917,9.06666667 L14.0958333,9.06666667 C13.4878472,8.340625 12.7057292,7.96284722 11.7494792,7.93333333 C12.2276042,7.24270833 12.4666667,6.48715278 12.4666667,5.66666667 C12.4666667,5.49548611 12.4519097,5.30069444 12.4223958,5.08229167 C12.8119792,5.21805556 13.2045139,5.2859375 13.6,5.2859375 C13.9482639,5.2859375 14.2994792,5.22248264 14.6536458,5.09557292 C15.0078125,4.96866319 15.2955729,4.84322917 15.5169271,4.71927083 C15.7382812,4.5953125 15.8666667,4.53333333 15.9020833,4.53333333 C16.6340278,4.53333333 17,5.57517361 17,7.65885417 Z M15.8666667,2.26666667 C15.8666667,2.89236111 15.6453125,3.4265625 15.2026042,3.86927083 C14.7598958,4.31197917 14.2256944,4.53333333 13.6,4.53333333 C12.9743056,4.53333333 12.4401042,4.31197917 11.9973958,3.86927083 C11.5546875,3.4265625 11.3333333,2.89236111 11.3333333,2.26666667 C11.3333333,1.64097222 11.5546875,1.10677083 11.9973958,0.6640625 C12.4401042,0.221354167 12.9743056,0 13.6,0 C14.2256944,0 14.7598958,0.221354167 15.2026042,0.6640625 C15.6453125,1.10677083 15.8666667,1.64097222 15.8666667,2.26666667 Z" id="Shape"></path>
            </g>
        </g>
    </g>
</svg>