<?xml version="1.0" encoding="UTF-8"?>
<svg width="29px" height="29px" viewBox="0 0 29 29" version="1.1" xmlns="http://www.w3.org/2000/svg" xmlns:xlink="http://www.w3.org/1999/xlink">
    <!-- Generator: Sketch 47 (45396) - http://www.bohemiancoding.com/sketch -->
    <title>ses</title>
    <desc>Created with Sketch.</desc>
    <defs></defs>
    <g id="Symbols2" stroke="none" stroke-width="1" fill="none" fill-rule="evenodd">
        <g id="ses">
            <path d="M29,14.5 C29,22.508355 22.5081202,29 14.4994755,29 C6.49187977,29 0,22.508355 0,14.5 C0,6.49164497 6.49187977,0 14.4994755,0 C22.5081202,0 29,6.49164497 29,14.5" id="Fill-1-Copy-8" fill="#112E51"></path>
            <g id="briefcase" transform="translate(6.000000, 6.000000)" fill-rule="nonzero" fill="#FFFFFF">
                <path d="M6.07142857,2.83333333 L10.9285714,2.83333333 L10.9285714,1.41666667 L6.07142857,1.41666667 L6.07142857,2.83333333 Z M17,9.91666667 L17,15.2291667 C17,15.7161458 16.8513765,16.1330295 16.5541295,16.4798177 C16.2568824,16.8266059 15.8995536,17 15.4821429,17 L1.51785714,17 C1.10044643,17 0.74311756,16.8266059 0.445870536,16.4798177 C0.148623512,16.1330295 0,15.7161458 0,15.2291667 L0,9.91666667 L6.375,9.91666667 L6.375,11.6875 C6.375,11.8793403 6.43508185,12.0453559 6.55524554,12.1855469 C6.67540923,12.3257378 6.81770833,12.3958333 6.98214286,12.3958333 L10.0178571,12.3958333 C10.1822917,12.3958333 10.3245908,12.3257378 10.4447545,12.1855469 C10.5649182,12.0453559 10.625,11.8793403 10.625,11.6875 L10.625,9.91666667 L17,9.91666667 Z M9.71428571,9.91666667 L9.71428571,11.3333333 L7.28571429,11.3333333 L7.28571429,9.91666667 L9.71428571,9.91666667 Z M17,4.60416667 L17,8.85416667 L0,8.85416667 L0,4.60416667 C0,4.1171875 0.148623512,3.70030382 0.445870536,3.35351562 C0.74311756,3.00672743 1.10044643,2.83333333 1.51785714,2.83333333 L4.85714286,2.83333333 L4.85714286,1.0625 C4.85714286,0.767361111 4.94568452,0.516493056 5.12276786,0.309895833 C5.29985119,0.103298611 5.51488095,0 5.76785714,0 L11.2321429,0 C11.485119,0 11.7001488,0.103298611 11.8772321,0.309895833 C12.0543155,0.516493056 12.1428571,0.767361111 12.1428571,1.0625 L12.1428571,2.83333333 L15.4821429,2.83333333 C15.8995536,2.83333333 16.2568824,3.00672743 16.5541295,3.35351562 C16.8513765,3.70030382 17,4.1171875 17,4.60416667 Z" id="Shape"></path>
            </g>
        </g>
    </g>
</svg>