<?xml version="1.0" encoding="UTF-8"?>
<svg width="29px" height="29px" viewBox="0 0 29 29" version="1.1" xmlns="http://www.w3.org/2000/svg" xmlns:xlink="http://www.w3.org/1999/xlink">
    <!-- Generator: Sketch 47 (45396) - http://www.bohemiancoding.com/sketch -->
    <title>students</title>
    <desc>Created with Sketch.</desc>
    <defs></defs>
    <g id="Symbols2" stroke="none" stroke-width="1" fill="none" fill-rule="evenodd">
        <g id="students">
            <path d="M29,14.5 C29,22.508355 22.5081202,29 14.4994755,29 C6.49187977,29 0,22.508355 0,14.5 C0,6.49164497 6.49187977,0 14.4994755,0 C22.5081202,0 29,6.49164497 29,14.5" id="Fill-1-Copy" fill="#FDB81E"></path>
            <g id="graduation-cap" transform="translate(5.000000, 7.000000)" fill-rule="nonzero" fill="#FFFFFF">
                <path d="M15.3993056,7.17013889 L15.5555556,10.3703704 C15.5787037,10.8362269 15.3414352,11.2683256 14.84375,11.6666667 C14.3460648,12.0650077 13.666088,12.3806424 12.8038194,12.6135706 C11.9415509,12.8464988 11.0069444,12.962963 10,12.962963 C8.99305556,12.962963 8.05844907,12.8464988 7.19618056,12.6135706 C6.33391204,12.3806424 5.65393519,12.0650077 5.15625,11.6666667 C4.65856481,11.2683256 4.4212963,10.8362269 4.44444444,10.3703704 L4.60069444,7.17013889 L9.58333333,9.00318287 C9.71064815,9.05044367 9.84953704,9.07407407 10,9.07407407 C10.150463,9.07407407 10.2893519,9.05044367 10.4166667,9.00318287 L15.3993056,7.17013889 Z M20,3.88888889 C20,4.04417438 19.9363426,4.1488233 19.8090278,4.20283565 L10.0868056,7.76765046 C10.0636574,7.77440201 10.0347222,7.77777778 10,7.77777778 C9.96527778,7.77777778 9.93634259,7.77440201 9.91319444,7.76765046 L4.25347222,5.68142361 C4.00462963,5.91097608 3.79918981,6.28737461 3.63715278,6.81061921 C3.47511574,7.33386381 3.37673611,7.93643904 3.34201389,8.61834491 C3.70659722,8.86140046 3.88888889,9.22935957 3.88888889,9.72222222 C3.88888889,10.1880787 3.72106481,10.5492863 3.38541667,10.8058449 L3.88888889,15.1909722 C3.90046296,15.2854938 3.87731481,15.3698881 3.81944444,15.4441551 C3.76736111,15.5184221 3.69791667,15.5555556 3.61111111,15.5555556 L1.94444444,15.5555556 C1.85763889,15.5555556 1.78819444,15.5184221 1.73611111,15.4441551 C1.67824074,15.3698881 1.65509259,15.2854938 1.66666667,15.1909722 L2.17013889,10.8058449 C1.83449074,10.5492863 1.66666667,10.1880787 1.66666667,9.72222222 C1.66666667,9.22935957 1.85474537,8.85464892 2.23090278,8.59809028 C2.29456019,7.20052083 2.578125,6.0865162 3.08159722,5.25607639 L0.190972222,4.20283565 C0.0636574074,4.1488233 0,4.04417438 0,3.88888889 C0,3.7336034 0.0636574074,3.62895448 0.190972222,3.57494213 L9.91319444,0.0101273148 C9.93634259,0.0033757716 9.96527778,0 10,0 C10.0347222,0 10.0636574,0.0033757716 10.0868056,0.0101273148 L19.8090278,3.57494213 C19.9363426,3.62895448 20,3.7336034 20,3.88888889 Z" id="Shape"></path>
            </g>
        </g>
    </g>
</svg>