<?xml version="1.0" encoding="UTF-8"?>
<svg width="29px" height="29px" viewBox="0 0 29 29" version="1.1" xmlns="http://www.w3.org/2000/svg" xmlns:xlink="http://www.w3.org/1999/xlink">
    <!-- Generator: Sketch 47 (45396) - http://www.bohemiancoding.com/sketch -->
    <title>veterans</title>
    <desc>Created with Sketch.</desc>
    <defs></defs>
    <g id="Symbols2" stroke="none" stroke-width="1" fill="none" fill-rule="evenodd">
        <g id="veterans">
            <path d="M29,14.5 C29,22.508355 22.5081202,29 14.4994755,29 C6.49187977,29 0,22.508355 0,14.5 C0,6.49164497 6.49187977,0 14.4994755,0 C22.5081202,0 29,6.49164497 29,14.5" id="Fill-1" fill="#008647"></path>
            <g id="shield" transform="translate(9.000000, 6.000000)" fill-rule="nonzero" fill="#FFFFFF">
                <path d="M10.2,9.1 L10.2,2.1 L6,2.1 L6,14.5359375 C6.74375,14.0765625 7.409375,13.5770833 7.996875,13.0375 C9.465625,11.6958333 10.2,10.3833333 10.2,9.1 Z M12,0.7 L12,9.1 C12,9.72708333 11.8953125,10.3486979 11.6859375,10.9648437 C11.4765625,11.5809896 11.2171875,12.1278646 10.9078125,12.6054687 C10.5984375,13.0830729 10.2296875,13.5479167 9.8015625,14 C9.3734375,14.4520833 8.978125,14.8276042 8.615625,15.1265625 C8.253125,15.4255208 7.875,15.7080729 7.48125,15.9742187 C7.0875,16.2403646 6.8078125,16.4208333 6.6421875,16.515625 C6.4765625,16.6104167 6.34375,16.6833333 6.24375,16.734375 C6.16875,16.778125 6.0875,16.8 6,16.8 C5.9125,16.8 5.83125,16.778125 5.75625,16.734375 C5.65625,16.6833333 5.5234375,16.6104167 5.3578125,16.515625 C5.1921875,16.4208333 4.9125,16.2403646 4.51875,15.9742187 C4.125,15.7080729 3.746875,15.4255208 3.384375,15.1265625 C3.021875,14.8276042 2.6265625,14.4520833 2.1984375,14 C1.7703125,13.5479167 1.4015625,13.0830729 1.0921875,12.6054687 C0.7828125,12.1278646 0.5234375,11.5809896 0.3140625,10.9648437 C0.1046875,10.3486979 0,9.72708333 0,9.1 L0,0.7 C0,0.510416667 0.059375,0.346354167 0.178125,0.2078125 C0.296875,0.0692708333 0.4375,0 0.6,0 L11.4,0 C11.5625,0 11.703125,0.0692708333 11.821875,0.2078125 C11.940625,0.346354167 12,0.510416667 12,0.7 Z" id="Shape"></path>
            </g>
        </g>
    </g>
</svg>