<?xml version="1.0" encoding="UTF-8"?>
<svg width="343px" height="47px" viewBox="0 0 343 47" version="1.1" xmlns="http://www.w3.org/2000/svg" xmlns:xlink="http://www.w3.org/1999/xlink">
    <!-- Generator: Sketch 47.1 (45422) - http://www.bohemiancoding.com/sketch -->
    <title>Artboard</title>
    <desc>Created with Sketch.</desc>
    <defs></defs>
    <g id="Page-1" stroke="none" stroke-width="1" fill="none" fill-rule="evenodd">
        <g id="Artboard">
            <g id="logo" transform="translate(1.000000, 1.000000)">
                <path d="M163.60343,40.0311279 L163.163003,43.7501309 L161.921799,43.7501309 L163.089598,33.8443105 L165.725488,33.8443105 C166.232649,33.8443105 166.673071,33.9065237 167.046769,34.0309519 C167.420466,34.1553801 167.72854,34.3328029 167.970998,34.5632256 C168.213457,34.7936482 168.394742,35.0701513 168.514859,35.392743 C168.634976,35.7153347 168.695034,36.0747886 168.695034,36.4711156 C168.695034,36.9918708 168.612733,37.4699907 168.448128,37.9054895 C168.283523,38.3409883 168.044405,38.7154195 167.730765,39.0287943 C167.417126,39.3421691 167.030088,39.5875656 166.56964,39.764991 C166.109191,39.9424165 165.58313,40.0311279 164.991442,40.0311279 L163.60343,40.0311279 Z M164.217358,34.8604693 L163.723546,39.0080564 L165.111559,39.0080564 C165.489705,39.0080564 165.823359,38.9481474 166.11253,38.8283276 C166.4017,38.7085078 166.644155,38.5414539 166.839902,38.3271608 C167.035648,38.1128678 167.18468,37.8571024 167.287002,37.5598572 C167.389324,37.262612 167.440484,36.938873 167.440484,36.5886306 C167.440484,36.3213403 167.40267,36.0817043 167.327041,35.8697155 C167.251411,35.6577266 167.137969,35.4768476 166.986711,35.3270729 C166.835452,35.1772981 166.644157,35.0620885 166.412821,34.9814406 C166.181484,34.9007927 165.912337,34.8604693 165.605371,34.8604693 L164.217358,34.8604693 Z M180.084173,38.0955872 C180.084173,38.6578185 180.02634,39.1900869 179.910672,39.6924082 C179.795003,40.1947296 179.631513,40.6590243 179.420196,41.0853062 C179.208879,41.5115881 178.953078,41.8952361 178.652785,42.2362616 C178.352492,42.5772872 178.016614,42.8676154 177.645141,43.1072549 C177.273668,43.3468945 176.871059,43.5312298 176.437303,43.6602665 C176.003547,43.7893032 175.548666,43.8538206 175.072647,43.8538206 C174.485408,43.8538206 173.957123,43.7455236 173.487777,43.5289263 C173.01843,43.312329 172.618046,43.0116319 172.286612,42.6268261 C171.955178,42.2420203 171.701601,41.7846381 171.525874,41.254666 C171.350147,40.7246939 171.262285,40.1440375 171.262285,39.5126795 C171.262285,38.6693325 171.389073,37.8939719 171.642654,37.1865744 C171.896234,36.4791768 172.246571,35.869718 172.693673,35.3581798 C173.140776,34.8466415 173.670173,34.4480162 174.28188,34.1622921 C174.893587,33.8765681 175.557558,33.7337082 176.273812,33.7337082 C176.861051,33.7337082 177.389335,33.8431573 177.858682,34.0620588 C178.328028,34.2809603 178.728412,34.5839616 179.059846,34.9710716 C179.391281,35.3581817 179.644857,35.817868 179.820584,36.3501443 C179.996311,36.8824207 180.084173,37.4642291 180.084173,38.0955872 Z M178.802931,38.1232378 C178.802931,37.6209164 178.740649,37.1658385 178.616083,36.7579904 C178.491517,36.3501423 178.314681,36.0033614 178.085568,35.7176373 C177.856456,35.4319132 177.576187,35.2107108 177.244753,35.0540234 C176.913319,34.897336 176.540739,34.8189934 176.127002,34.8189934 C175.602046,34.8189934 175.119361,34.9284426 174.678932,35.1473441 C174.238502,35.3662456 173.860362,35.6784636 173.544498,36.0840075 C173.228635,36.4895514 172.981731,36.9791922 172.80378,37.5529446 C172.625829,38.126697 172.536854,38.7684145 172.536854,39.4781162 C172.536854,39.9804376 172.599136,40.4343635 172.723702,40.8399073 C172.848268,41.2454512 173.025105,41.59108 173.254217,41.8768041 C173.483329,42.1625282 173.762486,42.3825785 174.091695,42.5369617 C174.420905,42.6913449 174.792373,42.7685353 175.206109,42.7685353 C175.739963,42.7685353 176.227097,42.6602383 176.667527,42.443641 C177.107956,42.2270437 177.486097,41.9171299 177.80196,41.5138902 C178.117823,41.1106506 178.363615,40.6221619 178.539342,40.0484095 C178.715069,39.4746571 178.802931,38.8329396 178.802931,38.1232378 Z M183.138563,33.8443105 L184.112842,33.8443105 C184.224061,33.8443105 184.313035,33.8731129 184.379767,33.9307185 C184.446499,33.9883242 184.486537,34.0632104 184.499884,34.1553795 L185.527547,41.1648016 C185.536444,41.22932 185.54423,41.3076625 185.550903,41.3998316 C185.557576,41.4920006 185.565361,41.5818641 185.574259,41.6694247 C185.578707,41.7708107 185.583156,41.8744994 185.587605,41.9804938 C185.632093,41.8330233 185.677692,41.6901634 185.724404,41.5519098 C185.771116,41.4136562 185.81894,41.2846214 185.867877,41.1648016 L188.730653,34.1553795 C188.766243,34.0770358 188.824076,34.0056058 188.904154,33.9410875 C188.984232,33.8765692 189.077655,33.8443105 189.184426,33.8443105 L189.471371,33.8443105 C189.582591,33.8443105 189.671565,33.8731129 189.738297,33.9307185 C189.805028,33.9883242 189.847291,34.0632104 189.865086,34.1553795 L191.059578,41.1648016 C191.081822,41.2846214 191.099617,41.411352 191.112963,41.5449971 C191.126309,41.6786423 191.137431,41.819198 191.146329,41.9666685 C191.190816,41.819198 191.231967,41.6786423 191.269782,41.5449971 C191.307596,41.411352 191.348747,41.2846214 191.393235,41.1648016 L194.082509,34.1553795 C194.113651,34.0770358 194.172596,34.0056058 194.259347,33.9410875 C194.346099,33.8765692 194.442858,33.8443105 194.549629,33.8443105 L195.523907,33.8443105 L191.606775,43.7501309 L190.479015,43.7501309 L189.184426,36.1254834 C189.17108,36.0517481 189.158846,35.9711014 189.147724,35.8835408 C189.136602,35.7959802 189.126592,35.7061167 189.117695,35.6139476 C189.086553,35.7061167 189.056524,35.7959802 189.027607,35.8835408 C188.99869,35.9711014 188.968662,36.0517481 188.93752,36.1254834 L185.834511,43.7501309 L184.713424,43.7501309 L183.138563,33.8443105 Z M203.883442,34.9019452 L199.699384,34.9019452 L199.298996,38.2407528 L202.68895,38.2407528 L202.56216,39.2569116 L199.17888,39.2569116 L198.771818,42.6994089 L202.969222,42.6994089 L202.842432,43.7501309 L197.390479,43.7501309 L198.571624,33.8443105 L204.010231,33.8443105 L203.883442,34.9019452 Z M208.265786,39.5956312 L207.771974,43.7501309 L206.530771,43.7501309 L207.69857,33.8443105 L210.214343,33.8443105 C210.721504,33.8443105 211.160814,33.8996111 211.532287,34.010214 C211.90376,34.1208168 212.210722,34.278654 212.45318,34.4837301 C212.695639,34.6888063 212.875812,34.937659 212.993704,35.2302958 C213.111597,35.5229326 213.170543,35.8489758 213.170543,36.2084351 C213.170543,36.6093705 213.112709,36.9826496 212.997041,37.3282836 C212.881373,37.6739176 212.714546,37.9838314 212.496556,38.2580344 C212.278565,38.5322373 212.016091,38.7649607 211.709125,38.9562115 C211.40216,39.1474623 211.05516,39.2891701 210.668116,39.3813392 C210.810477,39.4827252 210.928368,39.6209767 211.021792,39.7960979 L213.083792,43.7501309 L211.976051,43.7501309 C211.758061,43.7501309 211.602356,43.6579632 211.508931,43.4736251 L209.707184,39.9067002 C209.64935,39.7914889 209.582619,39.7108422 209.50699,39.6647577 C209.431361,39.6186731 209.311245,39.5956312 209.146641,39.5956312 L208.265786,39.5956312 Z M208.833003,34.8604693 L208.37923,38.6555115 L209.600414,38.6555115 C209.97856,38.6555115 210.312214,38.6002109 210.601385,38.489608 C210.890555,38.3790051 211.134122,38.2234722 211.332093,38.0230044 C211.530064,37.8225367 211.679096,37.585205 211.779193,37.311002 C211.879291,37.036799 211.929339,36.736102 211.929339,36.4089018 C211.929339,35.9065804 211.776971,35.5229325 211.472229,35.2579464 C211.167488,34.9929603 210.710382,34.8604693 210.100899,34.8604693 L208.833003,34.8604693 Z M222.744588,34.9019452 L218.560531,34.9019452 L218.160143,38.2407528 L221.550097,38.2407528 L221.423307,39.2569116 L218.040026,39.2569116 L217.632965,42.6994089 L221.830369,42.6994089 L221.703579,43.7501309 L216.251625,43.7501309 L217.432771,33.8443105 L222.871378,33.8443105 L222.744588,34.9019452 Z M233.579857,38.1024999 C233.579857,38.9458468 233.454181,39.7142948 233.202825,40.407867 C232.951469,41.1014392 232.604469,41.6959207 232.161815,42.1913294 C231.719162,42.6867382 231.191989,43.0703861 230.580282,43.3422849 C229.968575,43.6141836 229.30238,43.7501309 228.581677,43.7501309 L225.278474,43.7501309 L226.459619,33.8443105 L229.756149,33.8443105 C230.343388,33.8443105 230.873898,33.9479991 231.347693,34.1553795 C231.821488,34.3627599 232.222984,34.6542402 232.552194,35.0298291 C232.881404,35.405418 233.134981,35.8547355 233.312932,36.3777949 C233.490883,36.9008543 233.579857,37.4757502 233.579857,38.1024999 Z M232.298615,38.1301504 C232.298615,37.6324375 232.237445,37.1831201 232.115104,36.7821846 C231.992762,36.3812492 231.817038,36.0413809 231.587926,35.7625695 C231.358813,35.4837581 231.079657,35.2694682 230.750447,35.1196935 C230.421237,34.9699188 230.049769,34.8950325 229.636033,34.8950325 L227.594053,34.8950325 L226.659813,42.7063215 L228.701794,42.7063215 C229.235647,42.7063215 229.722781,42.6014808 230.163211,42.3917962 C230.60364,42.1821115 230.981781,41.8802624 231.297644,41.4862396 C231.613508,41.0922169 231.859299,40.612945 232.035026,40.0484095 C232.210753,39.483874 232.298615,38.8444607 232.298615,38.1301504 Z M240.909822,43.7501309 L242.090967,33.8443105 L244.920378,33.8443105 C245.418641,33.8443105 245.84683,33.8961548 246.204957,33.999845 C246.563084,34.1035352 246.857811,34.2510035 247.089148,34.4422543 C247.320484,34.6335051 247.49176,34.8662285 247.602979,35.1404314 C247.714199,35.4146344 247.769808,35.7199398 247.769808,36.0563569 C247.769808,36.3512979 247.728657,36.6324093 247.646355,36.8996996 C247.564052,37.1669899 247.4406,37.4135384 247.275995,37.6393526 C247.111391,37.8651668 246.905637,38.0656315 246.65873,38.2407528 C246.411823,38.415874 246.123769,38.5564297 245.794559,38.6624241 C246.368452,38.7960693 246.799977,39.0299447 247.089148,39.3640576 C247.378318,39.6981704 247.522901,40.1232939 247.522901,40.6394406 C247.522901,41.0956775 247.443937,41.5138883 247.286005,41.8940857 C247.128073,42.2742831 246.900077,42.6026304 246.602008,42.8791376 C246.30394,43.1556448 245.940258,43.3699347 245.51095,43.5220136 C245.081643,43.6740926 244.597846,43.7501309 244.059543,43.7501309 L240.909822,43.7501309 Z M242.698223,39.2223484 L242.277815,42.7270594 L244.15964,42.7270594 C244.511094,42.7270594 244.820279,42.6786714 245.087206,42.5818939 C245.354133,42.4851164 245.576569,42.3468649 245.75452,42.1671352 C245.932471,41.9874055 246.065933,41.7708115 246.154908,41.5173465 C246.243884,41.2638816 246.288371,40.9781618 246.288371,40.6601786 C246.288371,40.2223755 246.146012,39.8732904 245.86129,39.6129128 C245.576568,39.3525352 245.147267,39.2223484 244.573375,39.2223484 L242.698223,39.2223484 Z M242.804993,38.3098792 L244.346488,38.3098792 C244.706839,38.3098792 245.021586,38.2603391 245.290737,38.1612573 C245.559888,38.0621756 245.784548,37.9239241 245.964724,37.7464986 C246.144899,37.5690732 246.279473,37.3559354 246.368449,37.107079 C246.457424,36.8582225 246.501911,36.5840237 246.501911,36.2844742 C246.501911,35.8098035 246.364001,35.4538059 246.088177,35.2164705 C245.812352,34.9791352 245.385276,34.8604693 244.806934,34.8604693 L243.218728,34.8604693 L242.804993,38.3098792 Z M254.694618,39.7891853 L254.220825,43.7501309 L252.972948,43.7501309 L253.446741,39.8030106 L250.924295,33.8443105 L252.032036,33.8443105 C252.143255,33.8443105 252.227781,33.8731129 252.285615,33.9307185 C252.343449,33.9883242 252.390161,34.0609062 252.425751,34.1484669 L254.013958,38.1163252 C254.058446,38.2499703 254.09626,38.3767009 254.127401,38.4965206 C254.158543,38.6163404 254.185235,38.7361584 254.207479,38.8559782 C254.260864,38.7361584 254.31981,38.6163404 254.384317,38.4965206 C254.448824,38.3767009 254.518891,38.2499703 254.594521,38.1163252 L257.136986,34.1484669 C257.185923,34.0747316 257.247093,34.0056058 257.320497,33.9410875 C257.393902,33.8765692 257.483989,33.8443105 257.590759,33.8443105 L258.625096,33.8443105 L254.694618,39.7891853 Z" id="POWERED-BY-USAJOBS" fill="#595959"></path>
                <path d="M271.847317,41.9303875 C272.153396,41.9303875 272.426837,41.8794137 272.667649,41.7774644 C272.908461,41.6755152 273.112135,41.5293901 273.278678,41.3390848 C273.445221,41.1487795 273.572376,40.9165652 273.660149,40.642435 C273.747921,40.3683048 273.791807,40.0567978 273.791807,39.7079048 L273.791807,33.8424535 L276.073882,33.8424535 L276.073882,39.7079048 C276.073882,40.3150693 275.975984,40.8723835 275.780183,41.3798643 C275.584383,41.8873451 275.30419,42.3245875 274.939596,42.6916049 C274.575003,43.0586222 274.131645,43.3440758 273.609511,43.5479744 C273.087377,43.7518729 272.499985,43.8538206 271.847317,43.8538206 C271.190148,43.8538206 270.600505,43.7518729 270.078371,43.5479744 C269.556237,43.3440758 269.112879,43.0586222 268.748286,42.6916049 C268.383692,42.3245875 268.104624,41.8873451 267.911075,41.3798643 C267.717525,40.8723835 267.620751,40.3150693 267.620751,39.7079048 L267.620751,33.8424535 L269.902827,33.8424535 L269.902827,39.7011082 C269.902827,40.0500013 269.946712,40.3615082 270.034485,40.6356384 C270.122257,40.9097687 270.249413,41.1431157 270.415956,41.3356865 C270.582499,41.5282573 270.786173,41.6755152 271.026985,41.7774644 C271.267797,41.8794137 271.541238,41.9303875 271.847317,41.9303875 Z M284.970697,35.8542421 C284.903179,35.962988 284.832287,36.0445462 284.758018,36.0989191 C284.683749,36.1532921 284.588101,36.1804781 284.471071,36.1804781 C284.367544,36.1804781 284.256142,36.1476283 284.136861,36.0819277 C284.017581,36.016227 283.882548,35.9425981 283.731759,35.8610387 C283.580971,35.7794793 283.408804,35.7058504 283.215254,35.6401498 C283.021704,35.5744491 282.801151,35.5415993 282.553587,35.5415993 C282.125977,35.5415993 281.807525,35.6333523 281.598221,35.8168609 C281.388918,36.0003696 281.284267,36.2484424 281.284267,36.5610868 C281.284267,36.7604542 281.347283,36.9258361 281.473315,37.0572374 C281.599347,37.1886386 281.764762,37.3019139 281.969565,37.3970665 C282.174368,37.4922192 282.408424,37.5794411 282.671742,37.658735 C282.93506,37.7380288 283.204,37.8263835 283.47857,37.9238017 C283.753141,38.0212199 284.022081,38.1356279 284.285399,38.2670292 C284.548717,38.3984304 284.782773,38.5660778 284.987576,38.7699763 C285.192379,38.9738749 285.357794,39.2219477 285.483826,39.5142022 C285.609858,39.8064567 285.672874,40.1587428 285.672874,40.5710709 C285.672874,41.0287098 285.594105,41.4568902 285.436564,41.8556251 C285.279024,42.25436 285.050593,42.602115 284.751266,42.8989007 C284.451939,43.1956863 284.08285,43.4290333 283.643987,43.5989487 C283.205124,43.7688642 282.706629,43.8538206 282.148485,43.8538206 C281.842406,43.8538206 281.530706,43.8221035 281.213374,43.7586684 C280.896043,43.6952333 280.588843,43.6057459 280.291767,43.4902034 C279.994691,43.3746609 279.715623,43.2375978 279.454556,43.0790101 C279.193489,42.9204224 278.966184,42.743713 278.772634,42.5488766 L279.447804,41.4750165 C279.497317,41.3934571 279.567084,41.3277574 279.657107,41.2779155 C279.74713,41.2280737 279.843904,41.2031531 279.94743,41.2031531 C280.082465,41.2031531 280.218623,41.2461977 280.355908,41.3322882 C280.493194,41.4183787 280.648481,41.5135299 280.821776,41.6177447 C280.99507,41.7219595 281.194243,41.8171107 281.419301,41.9032012 C281.644359,41.9892917 281.909923,42.0323363 282.216002,42.0323363 C282.630109,42.0323363 282.951937,41.9405833 283.181496,41.7570747 C283.411055,41.573566 283.525832,41.2824486 283.525832,40.8837137 C283.525832,40.6526287 283.462817,40.4645918 283.336785,40.3195973 C283.210752,40.1746028 283.045337,40.054531 282.840535,39.9593784 C282.635732,39.8642258 282.402801,39.7804021 282.141733,39.7079048 C281.880666,39.6354076 281.612851,39.5549821 281.338281,39.4666261 C281.06371,39.3782701 280.795895,39.2695258 280.534828,39.1403901 C280.273761,39.0112544 280.04083,38.8413415 279.836027,38.6306464 C279.631225,38.4199512 279.465809,38.1571527 279.339777,37.8422427 C279.213745,37.5273328 279.150729,37.1387987 279.150729,36.6766287 C279.150729,36.3050803 279.224997,35.9425995 279.373536,35.5891754 C279.522074,35.2357513 279.740377,34.9208461 280.028451,34.6444503 C280.316525,34.3680545 280.66986,34.1471678 281.088468,33.9817834 C281.507076,33.8163991 281.986442,33.7337082 282.52658,33.7337082 C282.828158,33.7337082 283.121854,33.757496 283.407678,33.8050723 C283.693501,33.8526486 283.964692,33.9228793 284.221258,34.0157664 C284.477824,34.1086535 284.717507,34.2196632 284.940314,34.3487989 C285.163121,34.4779347 285.362294,34.6240597 285.53784,34.7871786 L284.970697,35.8542421 Z M297.891525,43.7450753 L296.122579,43.7450753 C295.924528,43.7450753 295.761364,43.6986324 295.633081,43.6057453 C295.504798,43.5128582 295.415901,43.3939192 295.366389,43.2489247 L294.785742,41.5225925 L291.045299,41.5225925 L290.464653,43.2489247 C290.419641,43.3757949 290.33187,43.4902029 290.201337,43.5921521 C290.070803,43.6941014 289.911014,43.7450753 289.721966,43.7450753 L287.939516,43.7450753 L291.747476,33.8424535 L294.083565,33.8424535 L297.891525,43.7450753 Z M291.571932,39.9593784 L294.25911,39.9593784 L293.354382,37.2475417 C293.295866,37.0753607 293.227225,36.872598 293.148455,36.6392475 C293.069684,36.405897 292.992041,36.1532931 292.915521,35.8814285 C292.843502,36.1578242 292.769234,36.4138263 292.692715,36.6494424 C292.616195,36.8850584 292.544178,37.0889539 292.47666,37.2611349 L291.571932,39.9593784 Z M305.208441,40.1564793 C305.208441,40.7092708 305.1398,41.212213 305.002514,41.6653208 C304.865229,42.1184286 304.658179,42.5069627 304.381358,42.8309348 C304.104537,43.1549069 303.756827,43.406378 303.33822,43.5853556 C302.919612,43.7643331 302.426743,43.8538206 301.859597,43.8538206 C301.603031,43.8538206 301.349845,43.8402276 301.100031,43.8130411 C300.850216,43.7858546 300.590278,43.7405445 300.320209,43.6771094 L300.44174,42.3381825 C300.450742,42.2203745 300.496878,42.1252233 300.580149,42.052726 C300.663421,41.9802288 300.779324,41.9439807 300.927862,41.9439807 C301.004382,41.9439807 301.098905,41.956441 301.211434,41.9813619 C301.323963,42.0062828 301.458995,42.0187431 301.616536,42.0187431 C301.837092,42.0187431 302.029514,41.9881588 302.193806,41.9269892 C302.358099,41.8658197 302.494256,41.763872 302.602284,41.621143 C302.710312,41.478414 302.791332,41.2915099 302.845346,41.0604249 C302.899359,40.8293399 302.926366,40.5438863 302.926366,40.2040554 L302.926366,33.8424535 L305.208441,33.8424535 L305.208441,40.1564793 Z M318.466855,38.7903661 C318.466855,39.5062764 318.3442,40.1723349 318.098887,40.7885616 C317.853574,41.4047882 317.508116,41.9405801 317.062501,42.3959535 C316.616886,42.8513268 316.080132,43.2081439 315.45222,43.4664154 C314.824309,43.7246868 314.127765,43.8538206 313.362568,43.8538206 C312.597372,43.8538206 311.899703,43.7246868 311.269541,43.4664154 C310.639379,43.2081439 310.100373,42.8513268 309.652508,42.3959535 C309.204643,41.9405801 308.858059,41.4047882 308.612746,40.7885616 C308.367433,40.1723349 308.244778,39.5062764 308.244778,38.7903661 C308.244778,38.0744557 308.367433,37.4083972 308.612746,36.7921706 C308.858059,36.175944 309.204643,35.6412848 309.652508,35.188177 C310.100373,34.7350692 310.639379,34.3793849 311.269541,34.1211134 C311.899703,33.8628419 312.597372,33.7337082 313.362568,33.7337082 C314.127765,33.7337082 314.824309,33.8639747 315.45222,34.1245117 C316.080132,34.3850487 316.616886,34.7418657 317.062501,35.1949735 C317.508116,35.6480814 317.853574,36.1827406 318.098887,36.7989672 C318.3442,37.4151938 318.466855,38.0789868 318.466855,38.7903661 Z M316.130766,38.7903661 C316.130766,38.3010096 316.067751,37.8603689 315.941719,37.4684306 C315.815686,37.0764924 315.634517,36.7445959 315.398206,36.4727312 C315.161896,36.2008665 314.872701,35.99244 314.530613,35.8474455 C314.188525,35.702451 313.799181,35.6299549 313.362568,35.6299549 C312.921455,35.6299549 312.528735,35.702451 312.184396,35.8474455 C311.840058,35.99244 311.549737,36.2008665 311.313427,36.4727312 C311.077116,36.7445959 310.895947,37.0764924 310.769915,37.4684306 C310.643882,37.8603689 310.580867,38.3010096 310.580867,38.7903661 C310.580867,39.2842536 310.643882,39.7271598 310.769915,40.1190981 C310.895947,40.5110364 311.077116,40.8429329 311.313427,41.1147976 C311.549737,41.3866622 311.840058,41.593956 312.184396,41.7366849 C312.528735,41.8794139 312.921455,41.9507773 313.362568,41.9507773 C313.799181,41.9507773 314.188525,41.8794139 314.530613,41.7366849 C314.872701,41.593956 315.161896,41.3866622 315.398206,41.1147976 C315.634517,40.8429329 315.815686,40.5110364 315.941719,40.1190981 C316.067751,39.7271598 316.130766,39.2842536 316.130766,38.7903661 Z M321.489688,43.7450753 L321.489688,33.8424535 L325.108601,33.8424535 C325.788276,33.8424535 326.366666,33.9058876 326.843788,34.0327578 C327.320911,34.159628 327.710255,34.3386029 328.011833,34.5696879 C328.31341,34.8007729 328.532838,35.0816955 328.670124,35.4124642 C328.807409,35.7432329 328.876051,36.1125102 328.876051,36.5203073 C328.876051,36.7423301 328.844543,36.9564203 328.781527,37.1625844 C328.718511,37.3687485 328.619487,37.5624491 328.484452,37.7436923 C328.349417,37.9249354 328.176125,38.0891845 327.964571,38.2364445 C327.753016,38.3837046 327.498705,38.5117056 327.201628,38.6204515 C327.849795,38.7790392 328.329161,39.0361741 328.639741,39.3918637 C328.950321,39.7475533 329.105608,40.2040526 329.105608,40.7613752 C329.105608,41.1827655 329.024589,41.5746979 328.862547,41.9371841 C328.700506,42.2996704 328.463073,42.6157083 328.150243,42.8853075 C327.837412,43.1549066 327.451444,43.3655986 326.992326,43.5173897 C326.533208,43.6691808 326.008831,43.7450753 325.419179,43.7450753 L321.489688,43.7450753 Z M323.771764,39.5447868 L323.771764,42.0119465 L325.378669,42.0119465 C325.680246,42.0119465 325.926681,41.973433 326.11798,41.8964046 C326.309279,41.8193763 326.458941,41.7196941 326.566968,41.597355 C326.674996,41.4750159 326.749264,41.33682 326.789775,41.1827634 C326.830285,41.0287067 326.85054,40.8723869 326.85054,40.7137991 C326.85054,40.532556 326.826909,40.3694396 326.779647,40.2244451 C326.732385,40.0794506 326.651365,39.9571134 326.536586,39.8574297 C326.421806,39.7577459 326.269895,39.6807188 326.080846,39.6263458 C325.891797,39.5719729 325.65324,39.5447868 325.365166,39.5447868 L323.771764,39.5447868 Z M323.771764,38.008759 L324.960063,38.008759 C325.212128,38.008759 325.439433,37.990635 325.641985,37.9543863 C325.844537,37.9181377 326.016704,37.8547036 326.158491,37.764082 C326.300277,37.6734605 326.408303,37.5488577 326.482572,37.3902699 C326.556841,37.2316822 326.593975,37.0323178 326.593975,36.7921706 C326.593975,36.5565545 326.564718,36.3605884 326.506203,36.2042662 C326.447688,36.047944 326.357666,35.9222084 326.236135,35.8270558 C326.114604,35.7319031 325.960442,35.663938 325.773643,35.6231583 C325.586845,35.5823786 325.365167,35.561989 325.108601,35.561989 L323.771764,35.561989 L323.771764,38.008759 Z M337.759361,35.8542421 C337.691844,35.962988 337.620952,36.0445462 337.546683,36.0989191 C337.472414,36.1532921 337.376766,36.1804781 337.259735,36.1804781 C337.156209,36.1804781 337.044807,36.1476283 336.925526,36.0819277 C336.806246,36.016227 336.671213,35.9425981 336.520424,35.8610387 C336.369635,35.7794793 336.197469,35.7058504 336.003919,35.6401498 C335.810369,35.5744491 335.589816,35.5415993 335.342252,35.5415993 C334.914642,35.5415993 334.59619,35.6333523 334.386886,35.8168609 C334.177582,36.0003696 334.072932,36.2484424 334.072932,36.5610868 C334.072932,36.7604542 334.135947,36.9258361 334.26198,37.0572374 C334.388012,37.1886386 334.553427,37.3019139 334.75823,37.3970665 C334.963032,37.4922192 335.197089,37.5794411 335.460407,37.658735 C335.723725,37.7380288 335.992665,37.8263835 336.267235,37.9238017 C336.541806,38.0212199 336.810746,38.1356279 337.074064,38.2670292 C337.337381,38.3984304 337.571438,38.5660778 337.776241,38.7699763 C337.981043,38.9738749 338.146458,39.2219477 338.272491,39.5142022 C338.398523,39.8064567 338.461538,40.1587428 338.461538,40.5710709 C338.461538,41.0287098 338.382769,41.4568902 338.225229,41.8556251 C338.067688,42.25436 337.839258,42.602115 337.539931,42.8989007 C337.240604,43.1956863 336.871515,43.4290333 336.432652,43.5989487 C335.993789,43.7688642 335.495293,43.8538206 334.93715,43.8538206 C334.631071,43.8538206 334.319371,43.8221035 334.002039,43.7586684 C333.684708,43.6952333 333.377508,43.6057459 333.080432,43.4902034 C332.783355,43.3746609 332.504288,43.2375978 332.243221,43.0790101 C331.982154,42.9204224 331.754849,42.743713 331.561299,42.5488766 L332.236469,41.4750165 C332.285982,41.3934571 332.355749,41.3277574 332.445772,41.2779155 C332.535795,41.2280737 332.632568,41.2031531 332.736095,41.2031531 C332.87113,41.2031531 333.007288,41.2461977 333.144573,41.3322882 C333.281858,41.4183787 333.437146,41.5135299 333.61044,41.6177447 C333.783735,41.7219595 333.982908,41.8171107 334.207966,41.9032012 C334.433024,41.9892917 334.698588,42.0323363 335.004667,42.0323363 C335.418773,42.0323363 335.740601,41.9405833 335.97016,41.7570747 C336.199719,41.573566 336.314497,41.2824486 336.314497,40.8837137 C336.314497,40.6526287 336.251482,40.4645918 336.12545,40.3195973 C335.999417,40.1746028 335.834002,40.054531 335.629199,39.9593784 C335.424397,39.8642258 335.191465,39.7804021 334.930398,39.7079048 C334.669331,39.6354076 334.401516,39.5549821 334.126946,39.4666261 C333.852375,39.3782701 333.58456,39.2695258 333.323493,39.1403901 C333.062426,39.0112544 332.829495,38.8413415 332.624692,38.6306464 C332.419889,38.4199512 332.254474,38.1571527 332.128442,37.8422427 C332.002409,37.5273328 331.939394,37.1387987 331.939394,36.6766287 C331.939394,36.3050803 332.013662,35.9425995 332.1622,35.5891754 C332.310739,35.2357513 332.529041,34.9208461 332.817115,34.6444503 C333.10519,34.3680545 333.458525,34.1471678 333.877133,33.9817834 C334.29574,33.8163991 334.775106,33.7337082 335.315245,33.7337082 C335.616823,33.7337082 335.910519,33.757496 336.196342,33.8050723 C336.482166,33.8526486 336.753357,33.9228793 337.009923,34.0157664 C337.266488,34.1086535 337.506171,34.2196632 337.728979,34.3487989 C337.951786,34.4779347 338.150959,34.6240597 338.326504,34.7871786 L337.759361,35.8542421 Z" id="POWERED-BY-USAJOBS" fill="#981B1E"></path>
                <path d="M17.945982,8.65512596 C16.5521124,7.09435774 14.83884,6.31398533 12.8061134,6.31398533 C10.7733868,6.31398533 9.06011441,7.09435774 7.66624476,8.65512596 C6.2723751,10.2158942 5.57545073,12.1017942 5.57545073,14.3128825 C5.57545073,16.5239708 6.2723751,18.4039589 7.66624476,19.9529031 C9.06011441,21.5018473 10.7733868,22.2763078 12.8061134,22.2763078 C14.83884,22.2763078 16.5521124,21.5018473 17.945982,19.9529031 C19.3398517,18.4039589 20.0367761,16.5239708 20.0367761,14.3128825 C20.0367761,12.1017942 19.3398517,10.2158942 17.945982,8.65512596 Z M12.7886901,27.1004764 C9.18786018,27.1004764 6.15623916,25.8767106 3.69373611,23.4291422 C1.23123306,20.9815739 0,17.9369391 0,14.2951466 C0,10.653354 1.23123306,7.60871928 3.69373611,5.16115093 C6.15623916,2.71358258 9.18786018,1.48981676 12.7886901,1.48981676 C16.3895201,1.48981676 19.4211411,2.71358258 21.8836441,5.16115093 C24.3461472,7.60871928 25.5773802,10.653354 25.5773802,14.2951466 C25.5773802,17.9369391 24.3461472,20.9815739 21.8836441,23.4291422 C19.4211411,25.8767106 16.3895201,27.1004764 12.7886901,27.1004764 Z M45.7646301,10.2336223 C47.4721205,12.0899906 48.3258528,14.4251959 48.3258528,17.2393083 C48.3258528,20.0534207 47.4721205,22.4063617 45.7646301,24.298202 C44.0571398,26.1900423 42.0592899,27.1359482 39.7710206,27.1359482 C37.4827512,27.1359482 35.6417094,26.2018661 34.2478397,24.3336738 L34.2478397,33.7337082 L29.0208547,33.7337082 L29.0208547,7.76833027 L34.2478397,7.76833027 L34.2478397,9.89663993 C35.8507898,8.2649277 37.744101,7.44908382 39.9278301,7.44908382 C42.1115593,7.44908382 44.0571398,8.37725403 45.7646301,10.2336223 Z M35.4500463,21.1234734 C36.2979837,22.1048655 37.3259471,22.5955543 38.5339675,22.5955543 C39.7419878,22.5955543 40.7989898,22.1048655 41.7050051,21.1234734 C42.6110203,20.1420813 43.0640212,18.882844 43.0640212,17.3457238 C43.0640212,15.8086035 42.6226357,14.5198067 41.7398516,13.4792945 C40.8570675,12.4387824 39.8000656,11.9185341 38.568814,11.9185341 C37.3375625,11.9185341 36.2979837,12.4328705 35.4500463,13.4615586 C34.6021089,14.4902468 34.1781466,15.7790436 34.1781466,17.3279878 C34.1781466,18.8769321 34.6021089,20.1420813 35.4500463,21.1234734 Z M67.8335947,24.085371 C65.719559,26.1190993 63.2396698,27.1359482 60.3938526,27.1359482 C57.5480354,27.1359482 55.1959156,26.2432495 53.3374228,24.4578252 C51.4789299,22.672401 50.5496974,20.2780765 50.5496974,17.2747801 C50.5496974,14.2714837 51.496353,11.8830712 53.3896926,10.1094709 C55.2830322,8.33587064 57.5189979,7.44908382 60.0976568,7.44908382 C62.6763156,7.44908382 64.8658197,8.24128005 66.6662347,9.82569628 C68.4666496,11.4101125 69.3668436,13.5856962 69.3668436,16.3525126 L69.3668436,19.1902588 L55.7069893,19.1902588 C55.8696074,20.2307709 56.4039161,21.0820863 57.3099314,21.7442304 C58.2159467,22.4063745 59.2381024,22.7374416 60.3764293,22.7374416 C62.211691,22.7374416 63.7216938,22.1107789 64.906483,20.8574347 L67.8335947,24.085371 Z M62.815689,12.769858 C62.095523,12.1550099 61.2185598,11.8475905 60.1847732,11.8475905 C59.1509865,11.8475905 58.2043309,12.1668337 57.344778,12.8053298 C56.485225,13.4438259 55.9857625,14.3069651 55.8463756,15.3947732 L64.0701654,15.3947732 C63.9540096,14.2596691 63.535855,13.3847061 62.815689,12.769858 Z M77.723684,16.2106253 L77.723684,26.8521736 L72.4966989,26.8521736 L72.4966989,7.76833027 L77.723684,7.76833027 L77.723684,9.89663993 C79.3034029,8.2649277 81.0805601,7.44908382 83.0552087,7.44908382 C85.0298574,7.44908382 86.6850528,8.15851328 88.0208446,9.57739348 C89.3566363,10.9962737 90.0245222,12.8880856 90.0245222,15.2528859 L90.0245222,26.8521736 L84.7975371,26.8521736 L84.7975371,16.068738 C84.7975371,13.1363855 83.7405351,11.6702313 81.6264995,11.6702313 C80.5810973,11.6702313 79.6692879,12.0545056 78.891044,12.8230657 C78.1128001,13.5916258 77.723684,14.7208011 77.723684,16.2106253 Z M119.770819,8.65512596 C118.376949,7.09435774 116.663677,6.31398533 114.63095,6.31398533 C112.598224,6.31398533 110.884951,7.09435774 109.491082,8.65512596 C108.097212,10.2158942 107.400288,12.1017942 107.400288,14.3128825 C107.400288,16.5239708 108.097212,18.4039589 109.491082,19.9529031 C110.884951,21.5018473 112.598224,22.2763078 114.63095,22.2763078 C116.663677,22.2763078 118.376949,21.5018473 119.770819,19.9529031 C121.164689,18.4039589 121.861613,16.5239708 121.861613,14.3128825 C121.861613,12.1017942 121.164689,10.2158942 119.770819,8.65512596 Z M114.613527,27.1004764 C111.012697,27.1004764 107.981076,25.8767106 105.518573,23.4291422 C103.05607,20.9815739 101.824837,17.9369391 101.824837,14.2951466 C101.824837,10.653354 103.05607,7.60871928 105.518573,5.16115093 C107.981076,2.71358258 111.012697,1.48981676 114.613527,1.48981676 C118.214357,1.48981676 121.245978,2.71358258 123.708481,5.16115093 C126.170984,7.60871928 127.402217,10.653354 127.402217,14.2951466 C127.402217,17.9369391 126.170984,20.9815739 123.708481,23.4291422 C121.245978,25.8767106 118.214357,27.1004764 114.613527,27.1004764 Z M147.589467,10.2336223 C149.296957,12.0899906 150.15069,14.4251959 150.15069,17.2393083 C150.15069,20.0534207 149.296957,22.4063617 147.589467,24.298202 C145.881977,26.1900423 143.884127,27.1359482 141.595858,27.1359482 C139.307588,27.1359482 137.466546,26.2018661 136.072677,24.3336738 L136.072677,33.7337082 L130.845692,33.7337082 L130.845692,7.76833027 L136.072677,7.76833027 L136.072677,9.89663993 C137.675627,8.2649277 139.568938,7.44908382 141.752667,7.44908382 C143.936396,7.44908382 145.881977,8.37725403 147.589467,10.2336223 Z M137.274883,21.1234734 C138.122821,22.1048655 139.150784,22.5955543 140.358804,22.5955543 C141.566825,22.5955543 142.623827,22.1048655 143.529842,21.1234734 C144.435857,20.1420813 144.888858,18.882844 144.888858,17.3457238 C144.888858,15.8086035 144.447473,14.5198067 143.564689,13.4792945 C142.681904,12.4387824 141.624903,11.9185341 140.393651,11.9185341 C139.162399,11.9185341 138.122821,12.4328705 137.274883,13.4615586 C136.426946,14.4902468 136.002984,15.7790436 136.002984,17.3279878 C136.002984,18.8769321 136.426946,20.1420813 137.274883,21.1234734 Z M170.163707,10.2336223 C171.871197,12.0899906 172.72493,14.4251959 172.72493,17.2393083 C172.72493,20.0534207 171.871197,22.4063617 170.163707,24.298202 C168.456217,26.1900423 166.458367,27.1359482 164.170097,27.1359482 C161.881828,27.1359482 160.040786,26.2018661 158.646916,24.3336738 L158.646916,33.7337082 L153.419931,33.7337082 L153.419931,7.76833027 L158.646916,7.76833027 L158.646916,9.89663993 C160.249867,8.2649277 162.143178,7.44908382 164.326907,7.44908382 C166.510636,7.44908382 168.456217,8.37725403 170.163707,10.2336223 Z M159.849123,21.1234734 C160.69706,22.1048655 161.725024,22.5955543 162.933044,22.5955543 C164.141065,22.5955543 165.198066,22.1048655 166.104082,21.1234734 C167.010097,20.1420813 167.463098,18.882844 167.463098,17.3457238 C167.463098,15.8086035 167.021712,14.5198067 166.138928,13.4792945 C165.256144,12.4387824 164.199142,11.9185341 162.967891,11.9185341 C161.736639,11.9185341 160.69706,12.4328705 159.849123,13.4615586 C159.001186,14.4902468 158.577223,15.7790436 158.577223,17.3279878 C158.577223,18.8769321 159.001186,20.1420813 159.849123,21.1234734 Z M181.482505,21.1234734 C182.353674,22.1048655 183.468753,22.5955543 184.827776,22.5955543 C186.186799,22.5955543 187.301878,22.1048655 188.173046,21.1234734 C189.044215,20.1420813 189.479793,18.8710201 189.479793,17.3102519 C189.479793,15.7494837 189.044215,14.4725107 188.173046,13.4792945 C187.301878,12.4860784 186.186799,11.9894778 184.827776,11.9894778 C183.468753,11.9894778 182.353674,12.4860784 181.482505,13.4792945 C180.611337,14.4725107 180.175759,15.7494837 180.175759,17.3102519 C180.175759,18.8710201 180.611337,20.1420813 181.482505,21.1234734 Z M191.919052,24.298202 C190.037328,26.1900423 187.673593,27.1359482 184.827776,27.1359482 C181.981959,27.1359482 179.618223,26.1900423 177.736499,24.298202 C175.854775,22.4063617 174.913928,20.0770683 174.913928,17.3102519 C174.913928,14.5434355 175.854775,12.2082302 177.736499,10.3045659 C179.618223,8.40090168 181.981959,7.44908382 184.827776,7.44908382 C187.673593,7.44908382 190.037328,8.40090168 191.919052,10.3045659 C193.800776,12.2082302 194.741624,14.5434355 194.741624,17.3102519 C194.741624,20.0770683 193.800776,22.4063617 191.919052,24.298202 Z M207.837598,12.4506115 C206.28111,12.4506115 205.119569,13.0122432 204.352941,14.1355233 C203.586313,15.2588035 203.203004,16.7426935 203.203004,18.5872377 L203.203004,26.8521736 L197.976019,26.8521736 L197.976019,7.76833027 L203.203004,7.76833027 L203.203004,10.28683 C203.876708,9.50644592 204.718825,8.84431176 205.72938,8.30040768 C206.739936,7.75650361 207.767899,7.47273182 208.813302,7.44908382 L208.848148,12.4506115 L207.837598,12.4506115 Z M217.90192,11.5992877 L217.90192,20.1479981 C217.90192,20.8810862 218.087766,21.4545417 218.459465,21.8683818 C218.831164,22.2822218 219.272549,22.4891388 219.783634,22.4891388 C220.759343,22.4891388 221.584037,22.0398334 222.257741,21.1412093 L224.209148,24.8657512 C222.582967,26.3792234 220.869695,27.1359482 219.06928,27.1359482 C217.268865,27.1359482 215.747247,26.5329332 214.50438,25.326885 C213.261512,24.1208368 212.640088,22.4773252 212.640088,20.3963009 L212.640088,11.5992877 L210.444755,11.5992877 L210.444755,7.76833027 L212.640088,7.76833027 L212.640088,2.05736601 L217.90192,2.05736601 L217.90192,7.76833027 L222.431974,7.76833027 L222.431974,11.5992877 L217.90192,11.5992877 Z M238.455059,18.0551603 L238.455059,7.76833027 L243.71689,7.76833027 L243.71689,26.8521736 L238.455059,26.8521736 L238.455059,24.3336738 C237.154114,26.2018661 235.475688,27.1359482 233.41973,27.1359482 C231.363772,27.1359482 229.638884,26.4797259 228.245015,25.1672618 C226.851145,23.8547976 226.154221,21.9097785 226.154221,19.3321461 L226.154221,7.76833027 L231.416052,7.76833027 L231.416052,18.1615758 C231.416052,21.0939282 232.473054,22.5600824 234.58709,22.5600824 C235.632492,22.5600824 236.538494,22.1758081 237.305122,21.407248 C238.07175,20.6386879 238.455059,19.5213365 238.455059,18.0551603 Z M253.258514,16.2106253 L253.258514,26.8521736 L248.031529,26.8521736 L248.031529,7.76833027 L253.258514,7.76833027 L253.258514,9.89663993 C254.838233,8.2649277 256.61539,7.44908382 258.590039,7.44908382 C260.564687,7.44908382 262.219883,8.15851328 263.555675,9.57739348 C264.891466,10.9962737 265.559352,12.8880856 265.559352,15.2528859 L265.559352,26.8521736 L260.332367,26.8521736 L260.332367,16.068738 C260.332367,13.1363855 259.275365,11.6702313 257.16133,11.6702313 C256.115927,11.6702313 255.204118,12.0545056 254.425874,12.8230657 C253.64763,13.5916258 253.258514,14.7208011 253.258514,16.2106253 Z M274.891896,26.8521736 L269.664911,26.8521736 L269.664911,7.76833027 L274.891896,7.76833027 L274.891896,26.8521736 Z M269.211906,3.12152084 C269.211906,2.24654471 269.508099,1.50755569 270.100493,0.904531607 C270.692888,0.30150752 271.418851,0 272.278404,0 C273.137957,0 273.86392,0.30150752 274.456314,0.904531607 C275.048709,1.50755569 275.344902,2.24654471 275.344902,3.12152084 C275.344902,3.99649696 275.048709,4.73548598 274.456314,5.33851007 C273.86392,5.94153416 273.137957,6.24304168 272.278404,6.24304168 C271.418851,6.24304168 270.692888,5.94153416 270.100493,5.33851007 C269.508099,4.73548598 269.211906,3.99649696 269.211906,3.12152084 Z M285.444071,11.5992877 L285.444071,20.1479981 C285.444071,20.8810862 285.629917,21.4545417 286.001616,21.8683818 C286.373314,22.2822218 286.8147,22.4891388 287.325785,22.4891388 C288.301494,22.4891388 289.126188,22.0398334 289.799891,21.1412093 L291.751299,24.8657512 C290.125118,26.3792234 288.411845,27.1359482 286.611431,27.1359482 C284.811016,27.1359482 283.289397,26.5329332 282.04653,25.326885 C280.803663,24.1208368 280.182239,22.4773252 280.182239,20.3963009 L280.182239,11.5992877 L277.986905,11.5992877 L277.986905,7.76833027 L280.182239,7.76833027 L280.182239,2.05736601 L285.444071,2.05736601 L285.444071,7.76833027 L289.974124,7.76833027 L289.974124,11.5992877 L285.444071,11.5992877 Z M299.132436,26.8521736 L293.905451,26.8521736 L293.905451,7.76833027 L299.132436,7.76833027 L299.132436,26.8521736 Z M293.452445,3.12152084 C293.452445,2.24654471 293.748638,1.50755569 294.341033,0.904531607 C294.933427,0.30150752 295.65939,0 296.518943,0 C297.378496,0 298.104459,0.30150752 298.696854,0.904531607 C299.289248,1.50755569 299.585441,2.24654471 299.585441,3.12152084 C299.585441,3.99649696 299.289248,4.73548598 298.696854,5.33851007 C298.104459,5.94153416 297.378496,6.24304168 296.518943,6.24304168 C295.65939,6.24304168 294.933427,5.94153416 294.341033,5.33851007 C293.748638,4.73548598 293.452445,3.99649696 293.452445,3.12152084 Z M319.685575,24.085371 C317.571539,26.1190993 315.09165,27.1359482 312.245832,27.1359482 C309.400015,27.1359482 307.047895,26.2432495 305.189403,24.4578252 C303.33091,22.672401 302.401677,20.2780765 302.401677,17.2747801 C302.401677,14.2714837 303.348333,11.8830712 305.241672,10.1094709 C307.135012,8.33587064 309.370978,7.44908382 311.949637,7.44908382 C314.528295,7.44908382 316.7178,8.24128005 318.518215,9.82569628 C320.318629,11.4101125 321.218823,13.5856962 321.218823,16.3525126 L321.218823,19.1902588 L307.558969,19.1902588 C307.721587,20.2307709 308.255896,21.0820863 309.161911,21.7442304 C310.067927,22.4063745 311.090082,22.7374416 312.228409,22.7374416 C314.063671,22.7374416 315.573674,22.1107789 316.758463,20.8574347 L319.685575,24.085371 Z M314.667669,12.769858 C313.947503,12.1550099 313.07054,11.8475905 312.036753,11.8475905 C311.002966,11.8475905 310.056311,12.1668337 309.196758,12.8053298 C308.337205,13.4438259 307.837742,14.3069651 307.698355,15.3947732 L315.922145,15.3947732 C315.805989,14.2596691 315.387835,13.3847061 314.667669,12.769858 Z M336.423014,25.4333005 C335.063991,26.5684046 333.339104,27.1359482 331.248299,27.1359482 C329.854429,27.1359482 328.402504,26.881736 326.892478,26.3733039 C325.382453,25.8648718 324.02345,25.114059 322.81543,24.1208428 L325.115303,20.786491 C327.066721,22.3236113 329.145878,23.0921598 331.352839,23.0921598 C332.026542,23.0921598 332.560851,22.9561859 332.955781,22.6842338 C333.350711,22.4122818 333.548173,22.0516551 333.548173,21.6023431 C333.548173,21.153031 333.27521,20.7391972 332.729278,20.3608291 C332.183346,19.9824611 331.393498,19.6277463 330.359712,19.2966743 C329.325925,18.9656022 328.536077,18.6818304 327.990145,18.4453504 C327.444213,18.2088704 326.822789,17.8659795 326.125854,17.4166674 C324.708753,16.5180433 324.000213,15.187863 324.000213,13.4260868 C324.000213,11.6643105 324.697137,10.2277159 326.091007,9.11625972 C327.484877,8.00480356 329.285265,7.44908382 331.492225,7.44908382 C333.699185,7.44908382 335.906113,8.20580858 338.113073,9.71928079 L336.161665,13.2664636 C334.535484,12.1313594 332.915135,11.5638158 331.300569,11.5638158 C329.686003,11.5638158 328.878733,12.0131212 328.878733,12.9117453 C328.878733,13.4083534 329.134271,13.7985396 329.645357,14.0823156 C330.156443,14.3660916 331.004367,14.6971587 332.189156,15.0755268 C333.373946,15.4538948 334.216063,15.7435785 334.715533,15.9445866 C335.215002,16.1455946 335.813196,16.4589259 336.510131,16.88459 C337.811076,17.6886221 338.461538,19.0306262 338.461538,20.9106424 C338.461538,22.7906587 337.782037,24.2981963 336.423014,25.4333005 Z" id="Open-Opportunities" fill="#009688"></path>
                <g id="LOGO" transform="translate(339.000000, 33.000000)" fill="#802119">
                    <path d="M0.856853477,0.678595544 L0.856853477,0.928426739 L0.928426739,0.928426739 C1,0.928426739 1.03511141,0.928426739 1.07089804,0.892640108 C1.10668467,0.856853477 1.10668467,0.856853477 1.10668467,0.785280216 C1.10668467,0.750168805 1.10668467,0.714382174 1.07089804,0.714382174 C1.03511141,0.678595544 1,0.678595544 0.964213369,0.678595544 L0.856853477,0.678595544 Z M1.1424713,1.07157326 L1.42808913,1.46455098 L1.1424713,1.46455098 L0.892640108,1.10735989 L0.856853477,1.10735989 L0.856853477,1.46455098 L0.571235652,1.46455098 L0.571235652,0.49966239 L0.964213369,0.49966239 L1.1424713,0.49966239 C1.17825793,0.49966239 1.2498312,0.535449021 1.28561783,0.535449021 C1.32140446,0.571235652 1.35719109,0.607022282 1.3923025,0.642808913 C1.42808913,0.678595544 1.42808913,0.714382174 1.42808913,0.785280216 C1.42808913,0.856853477 1.3923025,0.928426739 1.35719109,0.964213369 C1.28561783,1.03578663 1.21404456,1.03578663 1.1424713,1.07157326 L1.1424713,1.07157326 Z M0.249831195,1 C0.249831195,1.10735989 0.249831195,1.21404456 0.285617826,1.28561783 C0.321404456,1.39297772 0.356515868,1.46455098 0.428089129,1.53544902 C0.49966239,1.60702228 0.571235652,1.64280891 0.678595544,1.71438217 C0.785280216,1.7501688 0.856853477,1.78595544 0.964213369,1.78595544 C1.07089804,1.78595544 1.17825793,1.7501688 1.2498312,1.71438217 C1.35651587,1.67859554 1.42808913,1.60702228 1.49966239,1.53544902 C1.57123565,1.46455098 1.60702228,1.39297772 1.64280891,1.28561783 C1.67859554,1.17825793 1.67859554,1.10735989 1.67859554,1 C1.67859554,0.892640108 1.67859554,0.785280216 1.64280891,0.714382174 C1.60702228,0.607022282 1.57123565,0.535449021 1.49966239,0.464550979 C1.42808913,0.392977718 1.35719109,0.357191087 1.2498312,0.321404456 C1.1424713,0.285617826 1.07089804,0.249831195 0.964213369,0.249831195 C0.856853477,0.249831195 0.749493585,0.285617826 0.678595544,0.321404456 C0.571235652,0.357191087 0.49966239,0.428764348 0.428089129,0.464550979 C0.356515868,0.535449021 0.321404456,0.607022282 0.285617826,0.714382174 C0.249831195,0.785280216 0.249831195,0.892640108 0.249831195,1 L0.249831195,1 Z M0,1 C0,0.856853477 0.0351114112,0.714382174 0.0708980419,0.607022282 C0.106684673,0.49966239 0.178257934,0.392977718 0.285617826,0.285617826 C0.357191087,0.214044564 0.46387576,0.143146523 0.607022282,0.0715732613 C0.713706955,0.0357866307 0.856853477,0 1,0 C1.1424713,0 1.2498312,0.0357866307 1.3923025,0.0715732613 C1.49966239,0.107359892 1.60702228,0.178257934 1.71370695,0.285617826 C1.78528022,0.357191087 1.85685348,0.464550979 1.92842674,0.607022282 C1.96421337,0.714382174 2,0.856853477 2,1 C2,1.1424713 1.96421337,1.28561783 1.92842674,1.39297772 C1.89264011,1.49966239 1.82106685,1.60702228 1.71370695,1.71438217 C1.64280891,1.78595544 1.53544902,1.85685348 1.3923025,1.92842674 C1.28561783,1.96421337 1.1424713,2 1,2 C0.856853477,2 0.749493585,1.96421337 0.607022282,1.92842674 C0.49966239,1.89264011 0.392302498,1.82106685 0.285617826,1.71438217 C0.214044564,1.64280891 0.142471303,1.53544902 0.0708980419,1.39297772 C0,1.2498312 0,1.1424713 0,1 L0,1 Z" id="Fill-19"></path>
                </g>
            </g>
        </g>
    </g>
</svg>