<?xml version="1.0" encoding="UTF-8" standalone="no"?>
<svg width="30px" height="30px" viewBox="0 0 30 30" version="1.1" xmlns="http://www.w3.org/2000/svg" xmlns:xlink="http://www.w3.org/1999/xlink">
    <!-- Generator: Sketch 41 (35326) - http://www.bohemiancoding.com/sketch -->
    <title>icon_intraagency 2</title>
    <desc>Created with Sketch.</desc>
    <defs>
        <polygon id="path-1" points="0 29.94 29.585 29.94 29.585 0.393 0 0.393"></polygon>
    </defs>
    <g stroke="none" stroke-width="1" fill="none" fill-rule="evenodd">
        <g>
            <mask id="mask-2" fill="white">
                <use xlink:href="#path-1"></use>
            </mask>
            <g></g>
            <path d="M29.384,6.682 C29.195,6.534 29.002,6.52 28.807,6.641 L27.409,7.473 C27.393,7.446 27.29,7.276 27.29,7.276 C24.374,2.683 19.233,0.012 13.405,0.437 C12.721,0.487 12.041,0.6 11.377,0.773 C4.463,2.582 -0.034,8.466 0,15.502 C0.007,16.869 0.226,18.235 0.645,19.535 C2.315,24.713 6.345,28.39 11.382,29.591 C12.53,29.865 13.688,30 14.839,30 C17.542,30 20.2,29.254 22.56,27.803 C24.658,26.513 26.411,24.709 27.631,22.587 L25.897,21.591 C24.843,23.424 23.327,24.983 21.513,26.099 C17.729,28.426 13.061,28.657 8.9,26.566 C7.807,26.017 6.798,25.296 5.93,24.435 C1.8,20.34 0.847,14.354 3.505,9.178 C4.064,8.09 4.799,7.093 5.668,6.232 C8.968,2.963 13.465,1.731 17.778,2.76 C20.485,3.405 22.843,4.888 24.596,6.983 C24.596,6.983 25.012,7.609 25.676,8.29 C25.669,8.353 25.667,8.367 25.659,8.43 L24.34,9.18 C24.136,9.291 24.05,9.462 24.083,9.689 C24.114,9.922 24.239,10.069 24.458,10.129 L27.961,11.092 C28.096,11.13 28.227,11.113 28.353,11.041 C28.48,10.969 28.561,10.865 28.599,10.73 L29.562,7.227 C29.623,7.007 29.563,6.826 29.384,6.682" fill="#16243B" mask="url(#mask-2)"></path>
        </g>
        <text font-family="FontAwesome" font-size="17" font-weight="normal" fill="#112E50">
            <tspan x="5" y="20"></tspan>
        </text>
    </g>
</svg>