<?xml version="1.0" encoding="UTF-8"?>
<svg width="24px" height="24px" viewBox="0 0 24 24" version="1.1" xmlns="http://www.w3.org/2000/svg" xmlns:xlink="http://www.w3.org/1999/xlink">
    <!-- Generator: Sketch 47 (45396) - http://www.bohemiancoding.com/sketch -->
    <title>question-circle</title>
    <desc>Created with Sketch.</desc>
    <defs></defs>
    <g id="Symbols" stroke="none" stroke-width="1" fill="none" fill-rule="evenodd">
        <g id="question-circle" fill-rule="nonzero" fill="#0071BC">
            <g id="Shape">
                <path d="M14,19.5 L14,16.5 C14,16.3541667 13.953125,16.234375 13.859375,16.140625 C13.765625,16.046875 13.6458333,16 13.5,16 L10.5,16 C10.3541667,16 10.234375,16.046875 10.140625,16.140625 C10.046875,16.234375 10,16.3541667 10,16.5 L10,19.5 C10,19.6458333 10.046875,19.765625 10.140625,19.859375 C10.234375,19.953125 10.3541667,20 10.5,20 L13.5,20 C13.6458333,20 13.765625,19.953125 13.859375,19.859375 C13.953125,19.765625 14,19.6458333 14,19.5 Z M18,9 C18,8.08333333 17.7109375,7.234375 17.1328125,6.453125 C16.5546875,5.671875 15.8333333,5.06770833 14.96875,4.640625 C14.1041667,4.21354167 13.21875,4 12.3125,4 C9.78125,4 7.84895833,5.109375 6.515625,7.328125 C6.359375,7.578125 6.40104167,7.796875 6.640625,7.984375 L8.703125,9.546875 C8.77604167,9.609375 8.875,9.640625 9,9.640625 C9.16666667,9.640625 9.296875,9.578125 9.390625,9.453125 C9.94270833,8.74479167 10.390625,8.265625 10.734375,8.015625 C11.0885417,7.765625 11.5364583,7.640625 12.078125,7.640625 C12.578125,7.640625 13.0234375,7.77604167 13.4140625,8.046875 C13.8046875,8.31770833 14,8.625 14,8.96875 C14,9.36458333 13.8958333,9.68229167 13.6875,9.921875 C13.4791667,10.1614583 13.125,10.3958333 12.625,10.625 C11.96875,10.9166667 11.3671875,11.3671875 10.8203125,11.9765625 C10.2734375,12.5859375 10,13.2395833 10,13.9375 L10,14.5 C10,14.6458333 10.046875,14.765625 10.140625,14.859375 C10.234375,14.953125 10.3541667,15 10.5,15 L13.5,15 C13.6458333,15 13.765625,14.953125 13.859375,14.859375 C13.953125,14.765625 14,14.6458333 14,14.5 C14,14.3020833 14.1119792,14.0442708 14.3359375,13.7265625 C14.5598958,13.4088542 14.84375,13.1510417 15.1875,12.953125 C15.5208333,12.765625 15.7760417,12.6171875 15.953125,12.5078125 C16.1302083,12.3984375 16.3697917,12.2161458 16.671875,11.9609375 C16.9739583,11.7057292 17.2057292,11.4557292 17.3671875,11.2109375 C17.5286458,10.9661458 17.6744792,10.6510417 17.8046875,10.265625 C17.9348958,9.88020833 18,9.45833333 18,9 Z M24,12 C24,14.1770833 23.4635417,16.1848958 22.390625,18.0234375 C21.3177083,19.8619792 19.8619792,21.3177083 18.0234375,22.390625 C16.1848958,23.4635417 14.1770833,24 12,24 C9.82291667,24 7.81510417,23.4635417 5.9765625,22.390625 C4.13802083,21.3177083 2.68229167,19.8619792 1.609375,18.0234375 C0.536458333,16.1848958 0,14.1770833 0,12 C0,9.82291667 0.536458333,7.81510417 1.609375,5.9765625 C2.68229167,4.13802083 4.13802083,2.68229167 5.9765625,1.609375 C7.81510417,0.536458333 9.82291667,0 12,0 C14.1770833,0 16.1848958,0.536458333 18.0234375,1.609375 C19.8619792,2.68229167 21.3177083,4.13802083 22.390625,5.9765625 C23.4635417,7.81510417 24,9.82291667 24,12 Z"></path>
            </g>
        </g>
    </g>
</svg>