<?xml version="1.0" encoding="UTF-8"?>
<svg width="24px" height="24px" viewBox="0 0 24 24" version="1.1" xmlns="http://www.w3.org/2000/svg" xmlns:xlink="http://www.w3.org/1999/xlink">
    <!-- Generator: Sketch 47 (45396) - http://www.bohemiancoding.com/sketch -->
    <title>search</title>
    <desc>Created with Sketch.</desc>
    <defs></defs>
    <g id="Symbols" stroke="none" stroke-width="1" fill="none" fill-rule="evenodd">
        <g id="search" fill-rule="nonzero" fill="#0071BC">
            <g id="Shape">
                <path d="M16.6153846,10.1538462 C16.6153846,8.375 15.9831731,6.85336538 14.71875,5.58894231 C13.4543269,4.32451923 11.9326923,3.69230769 10.1538462,3.69230769 C8.375,3.69230769 6.85336538,4.32451923 5.58894231,5.58894231 C4.32451923,6.85336538 3.69230769,8.375 3.69230769,10.1538462 C3.69230769,11.9326923 4.32451923,13.4543269 5.58894231,14.71875 C6.85336538,15.9831731 8.375,16.6153846 10.1538462,16.6153846 C11.9326923,16.6153846 13.4543269,15.9831731 14.71875,14.71875 C15.9831731,13.4543269 16.6153846,11.9326923 16.6153846,10.1538462 Z M24,22.1538462 C24,22.6538462 23.8173077,23.0865385 23.4519231,23.4519231 C23.0865385,23.8173077 22.6538462,24 22.1538462,24 C21.6346154,24 21.2019231,23.8173077 20.8557692,23.4519231 L15.9086538,18.5192308 C14.1875,19.7115385 12.2692308,20.3076923 10.1538462,20.3076923 C8.77884615,20.3076923 7.46394231,20.0408654 6.20913462,19.5072115 C4.95432692,18.9735577 3.87259615,18.2524038 2.96394231,17.34375 C2.05528846,16.4350962 1.33413462,15.3533654 0.800480769,14.0985577 C0.266826923,12.84375 0,11.5288462 0,10.1538462 C0,8.77884615 0.266826923,7.46394231 0.800480769,6.20913462 C1.33413462,4.95432692 2.05528846,3.87259615 2.96394231,2.96394231 C3.87259615,2.05528846 4.95432692,1.33413462 6.20913462,0.800480769 C7.46394231,0.266826923 8.77884615,0 10.1538462,0 C11.5288462,0 12.84375,0.266826923 14.0985577,0.800480769 C15.3533654,1.33413462 16.4350962,2.05528846 17.34375,2.96394231 C18.2524038,3.87259615 18.9735577,4.95432692 19.5072115,6.20913462 C20.0408654,7.46394231 20.3076923,8.77884615 20.3076923,10.1538462 C20.3076923,12.2692308 19.7115385,14.1875 18.5192308,15.9086538 L23.4663462,20.8557692 C23.8221154,21.2115385 24,21.6442308 24,22.1538462 Z"></path>
            </g>
        </g>
    </g>
</svg>