<?xml version="1.0" encoding="UTF-8"?>
<svg width="19px" height="24px" viewBox="0 0 19 24" version="1.1" xmlns="http://www.w3.org/2000/svg" xmlns:xlink="http://www.w3.org/1999/xlink">
    <!-- Generator: Sketch 47 (45396) - http://www.bohemiancoding.com/sketch -->
    <title>user</title>
    <desc>Created with Sketch.</desc>
    <defs></defs>
    <g id="Symbols" stroke="none" stroke-width="1" fill="none" fill-rule="evenodd">
        <g id="user" fill-rule="nonzero" fill="#0071BC">
            <g id="Shape">
                <path d="M18.8400002,19.6503289 C18.8400002,20.7737939 18.5333595,21.7375 17.9200783,22.5414474 C17.306797,23.3453947 16.5684064,23.7473684 15.7049064,23.7473684 L3.13509378,23.7473684 C2.27159377,23.7473684 1.53320314,23.3453947 0.919921882,22.5414474 C0.306640627,21.7375 0,20.7737939 0,19.6503289 C0,18.7742325 0.0417031253,17.9470943 0.125109376,17.1689145 C0.208515627,16.3907346 0.363062503,15.6074013 0.588750005,14.8189145 C0.814437507,14.0304276 1.10145313,13.355318 1.44979689,12.7935855 C1.79814064,12.2318531 2.25932814,11.7731908 2.8333594,11.4175987 C3.40739065,11.0620066 4.06728128,10.8842105 4.81303129,10.8842105 C6.0984688,12.2035088 7.63412506,12.8631579 9.42000008,12.8631579 C11.2058751,12.8631579 12.7415314,12.2035088 14.0269689,10.8842105 C14.7727189,10.8842105 15.4326095,11.0620066 16.0066408,11.4175987 C16.580672,11.7731908 17.0418595,12.2318531 17.3902033,12.7935855 C17.738547,13.355318 18.0255626,14.0304276 18.2512501,14.8189145 C18.4769376,15.6074013 18.6314845,16.3907346 18.7148908,17.1689145 C18.798297,17.9470943 18.8400002,18.7742325 18.8400002,19.6503289 Z M15.0720001,5.93684211 C15.0720001,7.57565789 14.520047,8.97483553 13.4161407,10.134375 C12.3122345,11.2939145 10.9801876,11.8736842 9.42000008,11.8736842 C7.85981256,11.8736842 6.52776568,11.2939145 5.42385942,10.134375 C4.31995316,8.97483553 3.76800003,7.57565789 3.76800003,5.93684211 C3.76800003,4.29802632 4.31995316,2.89884868 5.42385942,1.73930921 C6.52776568,0.579769737 7.85981256,0 9.42000008,0 C10.9801876,0 12.3122345,0.579769737 13.4161407,1.73930921 C14.520047,2.89884868 15.0720001,4.29802632 15.0720001,5.93684211 Z"></path>
            </g>
        </g>
    </g>
</svg>