<?xml version="1.0" encoding="UTF-8"?>
<svg width="30px" height="30px" viewBox="0 0 30 30" version="1.1" xmlns="http://www.w3.org/2000/svg" xmlns:xlink="http://www.w3.org/1999/xlink">
    <!-- Generator: Sketch 47 (45396) - http://www.bohemiancoding.com/sketch -->
    <title>check</title>
    <desc>Created with Sketch.</desc>
    <defs></defs>
    <g id="Symbols" stroke="none" stroke-width="1" fill="none" fill-rule="evenodd">
        <g id="check" fill-rule="nonzero" fill="#2E8540">
            <g transform="translate(0.000000, 3.000000)" id="Shape">
                <path d="M30,4.49032258 C30,5.00645161 29.8193548,5.44516129 29.4580645,5.80645161 L15.4451613,19.8193548 L12.8129032,22.4516129 C12.4516129,22.8129032 12.0129032,22.9935484 11.4967742,22.9935484 C10.9806452,22.9935484 10.5419355,22.8129032 10.1806452,22.4516129 L7.5483871,19.8193548 L0.541935484,12.8129032 C0.180645161,12.4516129 0,12.0129032 0,11.4967742 C0,10.9806452 0.180645161,10.5419355 0.541935484,10.1806452 L3.17419355,7.5483871 C3.53548387,7.18709677 3.97419355,7.00645161 4.49032258,7.00645161 C5.00645161,7.00645161 5.44516129,7.18709677 5.80645161,7.5483871 L11.4967742,13.2580645 L24.1935484,0.541935484 C24.5548387,0.180645161 24.9935484,0 25.5096774,0 C26.0258065,0 26.4645161,0.180645161 26.8258065,0.541935484 L29.4580645,3.17419355 C29.8193548,3.53548387 30,3.97419355 30,4.49032258 Z"></path>
            </g>
        </g>
    </g>
</svg>