<?xml version="1.0" encoding="UTF-8"?>
<svg width="30px" height="30px" viewBox="0 0 30 30" version="1.1" xmlns="http://www.w3.org/2000/svg" xmlns:xlink="http://www.w3.org/1999/xlink">
    <!-- Generator: Sketch 47 (45396) - http://www.bohemiancoding.com/sketch -->
    <title>exclamation-red</title>
    <desc>Created with Sketch.</desc>
    <defs></defs>
    <g id="Symbols" stroke="none" stroke-width="1" fill="none" fill-rule="evenodd">
        <g id="exclamation-red" fill-rule="nonzero" fill="#CD2026">
            <g id="exclamation" transform="translate(1.000000, 0.000000)">
                <path d="M8.23397436,22.2727273 L8.23397436,26.7272727 C8.23397436,27.0719697 8.10802739,27.3702652 7.85613345,27.6221591 C7.60423951,27.874053 7.30594406,28 6.96124709,28 L1.870338,28 C1.52564103,28 1.22734557,27.874053 0.975451632,27.6221591 C0.723557692,27.3702652 0.597610723,27.0719697 0.597610723,26.7272727 L0.597610723,22.2727273 C0.597610723,21.9280303 0.723557692,21.6297348 0.975451632,21.3778409 C1.22734557,21.125947 1.52564103,21 1.870338,21 L6.96124709,21 C7.30594406,21 7.60423951,21.125947 7.85613345,21.3778409 C8.10802739,21.6297348 8.23397436,21.9280303 8.23397436,22.2727273 Z M8.83056527,1.27272727 L8.27374709,16.5454545 C8.26048951,16.8901515 8.12459936,17.188447 7.86607663,17.4403409 C7.6075539,17.6922348 7.30594406,17.8181818 6.96124709,17.8181818 L1.870338,17.8181818 C1.52564103,17.8181818 1.22403118,17.6922348 0.96550845,17.4403409 C0.706985723,17.188447 0.571095571,16.8901515 0.557837995,16.5454545 L0.00101981352,1.27272727 C-0.0122377622,0.928030303 0.103766026,0.629734848 0.349031177,0.377840909 C0.594296329,0.12594697 0.889277389,0 1.23397436,0 L7.59761072,0 C7.94230769,0 8.23728875,0.12594697 8.4825539,0.377840909 C8.72781906,0.629734848 8.84382284,0.928030303 8.83056527,1.27272727 Z" id="Shape"></path>
            </g>
        </g>
    </g>
</svg>