<?xml version="1.0" encoding="UTF-8"?>
<svg width="30px" height="30px" viewBox="0 0 30 30" version="1.1" xmlns="http://www.w3.org/2000/svg" xmlns:xlink="http://www.w3.org/1999/xlink">
    <!-- Generator: Sketch 47 (45396) - http://www.bohemiancoding.com/sketch -->
    <title>info</title>
    <desc>Created with Sketch.</desc>
    <defs></defs>
    <g id="Symbols" stroke="none" stroke-width="1" fill="none" fill-rule="evenodd">
        <g id="info" fill-rule="nonzero" fill="#205493">
            <g id="Shape">
                <path d="M11.8181818,22.4545455 L11.8181818,24.8181818 C11.8181818,25.1382576 11.7012311,25.4152462 11.4673295,25.6491477 C11.233428,25.8830492 10.9564394,26 10.6363636,26 L1.18181818,26 C0.861742424,26 0.584753788,25.8830492 0.350852273,25.6491477 C0.116950758,25.4152462 0,25.1382576 0,24.8181818 L0,22.4545455 C0,22.1344697 0.116950758,21.8574811 0.350852273,21.6235795 C0.584753788,21.389678 0.861742424,21.2727273 1.18181818,21.2727273 L2.36363636,21.2727273 L2.36363636,14.1818182 L1.18181818,14.1818182 C0.861742424,14.1818182 0.584753788,14.0648674 0.350852273,13.8309659 C0.116950758,13.5970644 0,13.3200758 0,13 L0,10.6363636 C0,10.3162879 0.116950758,10.0392992 0.350852273,9.80539773 C0.584753788,9.57149621 0.861742424,9.45454545 1.18181818,9.45454545 L8.27272727,9.45454545 C8.59280303,9.45454545 8.86979167,9.57149621 9.10369318,9.80539773 C9.3375947,10.0392992 9.45454545,10.3162879 9.45454545,10.6363636 L9.45454545,21.2727273 L10.6363636,21.2727273 C10.9564394,21.2727273 11.233428,21.389678 11.4673295,21.6235795 C11.7012311,21.8574811 11.8181818,22.1344697 11.8181818,22.4545455 Z M9.45454545,1.18181818 L9.45454545,4.72727273 C9.45454545,5.04734848 9.3375947,5.32433712 9.10369318,5.55823864 C8.86979167,5.79214015 8.59280303,5.90909091 8.27272727,5.90909091 L3.54545455,5.90909091 C3.22537879,5.90909091 2.94839015,5.79214015 2.71448864,5.55823864 C2.48058712,5.32433712 2.36363636,5.04734848 2.36363636,4.72727273 L2.36363636,1.18181818 C2.36363636,0.861742424 2.48058712,0.584753788 2.71448864,0.350852273 C2.94839015,0.116950758 3.22537879,0 3.54545455,0 L8.27272727,0 C8.59280303,0 8.86979167,0.116950758 9.10369318,0.350852273 C9.3375947,0.584753788 9.45454545,0.861742424 9.45454545,1.18181818 Z"></path>
            </g>
        </g>
    </g>
</svg>