<?xml version="1.0" encoding="UTF-8"?>
<svg width="30px" height="30px" viewBox="0 0 30 30" version="1.1" xmlns="http://www.w3.org/2000/svg" xmlns:xlink="http://www.w3.org/1999/xlink">
    <!-- Generator: Sketch 47 (45396) - http://www.bohemiancoding.com/sketch -->
    <title>lightbulb</title>
    <desc>Created with Sketch.</desc>
    <defs></defs>
    <g id="Symbols" stroke="none" stroke-width="1" fill="none" fill-rule="evenodd">
        <g id="lightbulb" fill-rule="nonzero" fill="#00A6D2">
            <g id="lightbulb-o">
                <path d="M12.4583333,7.58333333 C12.4583333,7.73003472 12.4047309,7.85698785 12.297526,7.96419271 C12.1903212,8.07139757 12.0633681,8.125 11.9166667,8.125 C11.7699653,8.125 11.6430122,8.07139757 11.5358073,7.96419271 C11.4286024,7.85698785 11.375,7.73003472 11.375,7.58333333 C11.375,7.06423611 11.0703125,6.66362847 10.4609375,6.38151042 C9.8515625,6.09939236 9.25347222,5.95833333 8.66666667,5.95833333 C8.51996528,5.95833333 8.39301215,5.9047309 8.28580729,5.79752604 C8.17860243,5.69032118 8.125,5.56336806 8.125,5.41666667 C8.125,5.26996528 8.17860243,5.14301215 8.28580729,5.03580729 C8.39301215,4.92860243 8.51996528,4.875 8.66666667,4.875 C9.23090278,4.875 9.79231771,4.96527778 10.3509115,5.14583333 C10.9095052,5.32638889 11.4003906,5.63107639 11.8235677,6.05989583 C12.2467448,6.48871528 12.4583333,6.99652778 12.4583333,7.58333333 Z M15.1666667,7.58333333 C15.1666667,6.77083333 14.9720052,6.01475694 14.5826823,5.31510417 C14.1933594,4.61545139 13.6855469,4.04275174 13.0592448,3.59700521 C12.4329427,3.15125868 11.7389323,2.80143229 10.9772135,2.54752604 C10.2154948,2.29361979 9.4453125,2.16666667 8.66666667,2.16666667 C7.88802083,2.16666667 7.11783854,2.29361979 6.35611979,2.54752604 C5.59440104,2.80143229 4.90039062,3.15125868 4.27408854,3.59700521 C3.64778646,4.04275174 3.13997396,4.61545139 2.75065104,5.31510417 C2.36132812,6.01475694 2.16666667,6.77083333 2.16666667,7.58333333 C2.16666667,8.72309028 2.55034722,9.73871528 3.31770833,10.6302083 C3.43055556,10.7543403 3.60264757,10.9405382 3.83398437,11.1888021 C4.06532118,11.437066 4.23741319,11.6232639 4.35026042,11.7473958 C5.79470486,13.4739583 6.59027778,15.1553819 6.73697917,16.7916667 L10.5963542,16.7916667 C10.7430556,15.1553819 11.5386285,13.4739583 12.9830729,11.7473958 C13.0959201,11.6232639 13.2680122,11.437066 13.499349,11.1888021 C13.7306858,10.9405382 13.9027778,10.7543403 14.015625,10.6302083 C14.7829861,9.73871528 15.1666667,8.72309028 15.1666667,7.58333333 Z M17.3333333,7.58333333 C17.3333333,9.33246528 16.7521701,10.8446181 15.5898437,12.1197917 C15.0820312,12.6727431 14.6616753,13.1636285 14.328776,13.5924479 C13.9958767,14.0212674 13.6601562,14.5601128 13.3216146,15.2089844 C12.9830729,15.8578559 12.7912326,16.4644097 12.7460938,17.0286458 C13.2764757,17.3446181 13.5416667,17.8072917 13.5416667,18.4166667 C13.5416667,18.8342014 13.4006076,19.1953125 13.1184896,19.5 C13.4006076,19.8046875 13.5416667,20.1657986 13.5416667,20.5833333 C13.5416667,21.1701389 13.2877604,21.6271701 12.7799479,21.9544271 C12.9266493,22.2139757 13,22.4791667 13,22.75 C13,23.2690972 12.8222656,23.6697049 12.4667969,23.9518229 C12.1113281,24.233941 11.6740451,24.375 11.1549479,24.375 C10.9292535,24.8715278 10.5907118,25.2664931 10.1393229,25.5598958 C9.68793403,25.8532986 9.19704861,26 8.66666667,26 C8.13628472,26 7.64539931,25.8532986 7.19401042,25.5598958 C6.74262153,25.2664931 6.40407986,24.8715278 6.17838542,24.375 C5.65928819,24.375 5.22200521,24.233941 4.86653646,23.9518229 C4.51106771,23.6697049 4.33333333,23.2690972 4.33333333,22.75 C4.33333333,22.4791667 4.40668403,22.2139757 4.55338542,21.9544271 C4.04557292,21.6271701 3.79166667,21.1701389 3.79166667,20.5833333 C3.79166667,20.1657986 3.93272569,19.8046875 4.21484375,19.5 C3.93272569,19.1953125 3.79166667,18.8342014 3.79166667,18.4166667 C3.79166667,17.8072917 4.05685764,17.3446181 4.58723958,17.0286458 C4.54210069,16.4644097 4.35026042,15.8578559 4.01171875,15.2089844 C3.67317708,14.5601128 3.3374566,14.0212674 3.00455729,13.5924479 C2.67165799,13.1636285 2.25130208,12.6727431 1.74348958,12.1197917 C0.581163194,10.8446181 0,9.33246528 0,7.58333333 C0,6.46614583 0.251085069,5.42513021 0.753255208,4.46028646 C1.25542535,3.49544271 1.9155816,2.69422743 2.73372396,2.05664062 C3.55186632,1.41905382 4.47721354,0.916883681 5.50976562,0.550130208 C6.54231771,0.183376736 7.59461806,0 8.66666667,0 C9.73871528,0 10.7910156,0.183376736 11.8235677,0.550130208 C12.8561198,0.916883681 13.781467,1.41905382 14.5996094,2.05664062 C15.4177517,2.69422743 16.077908,3.49544271 16.5800781,4.46028646 C17.0822483,5.42513021 17.3333333,6.46614583 17.3333333,7.58333333 Z" id="Shape"></path>
            </g>
        </g>
    </g>
</svg>